<svg width="32" height="32" viewBox="0 0 32 32" fill="none" xmlns="http://www.w3.org/2000/svg">
<path d="M17.069 4.54808L22.7668 5.40117C25.813 5.85699 27.3859 8.29051 26.9301 11.333L25.7022 19.5427C25.2464 22.5853 23.0308 24.4522 19.9833 23.9964L14.2868 23.1432C11.2405 22.6874 9.66758 20.2551 10.1222 17.2113L11.3514 9.00164C11.8059 5.95912 14.0315 4.09475 17.069 4.54808Z" stroke="#183087" stroke-width="1.44" stroke-linecap="round" stroke-linejoin="round"/>
<path d="M16.4328 11.9697L22.1865 12.7942M15.7725 16.5721L19.2246 17.0678" stroke="#183087" stroke-width="1.44" stroke-linecap="round" stroke-linejoin="round"/>
<path d="M11.543 8.16016L7.88153 9.36945C4.95234 10.3334 3.80158 12.9961 4.77798 15.9253L7.36967 23.8062C8.33485 26.7241 10.8344 28.1887 13.7512 27.2249L19.2384 25.4227C20.1574 25.1326 20.9234 24.6444 21.4813 24.0278" stroke="#183087" stroke-width="1.44" stroke-linecap="round" stroke-linejoin="round"/>
</svg>
