<svg width="32" height="32" viewBox="0 0 32 32" fill="none" xmlns="http://www.w3.org/2000/svg">
<path d="M14.4256 4.35205C15.4192 3.88265 16.5809 3.88265 17.5745 4.35205L25.4049 8.05153C26.7197 8.67272 26.754 10.4734 25.4636 11.1409L17.6919 15.1615C16.6349 15.7083 15.3653 15.7083 14.3081 15.1615L6.53648 11.1409C5.24618 10.4734 5.28042 8.67272 6.59522 8.05153L14.4256 4.35205Z" stroke="#183087" stroke-width="1.5" stroke-linecap="round" stroke-linejoin="round"/>
<path d="M22.2783 12.7891L25.4049 14.2661C26.7197 14.8873 26.7539 16.688 25.4635 17.3555L17.6919 21.3761C16.6349 21.9229 15.3653 21.9229 14.3081 21.3761L6.53649 17.3555C5.24617 16.688 5.28041 14.8873 6.59521 14.2661L9.72165 12.7891" stroke="#183087" stroke-width="1.5" stroke-linecap="round" stroke-linejoin="round"/>
<path d="M22.2783 19.0029L25.4049 20.48C26.7197 21.1012 26.7539 22.9019 25.4635 23.5693L17.6919 27.5899C16.6349 28.1368 15.3653 28.1368 14.3081 27.5899L6.53649 23.5693C5.24617 22.9019 5.28041 21.1012 6.59521 20.48L9.72165 19.0029" stroke="#183087" stroke-width="1.5" stroke-linecap="round" stroke-linejoin="round"/>
</svg>
