<svg width="30" height="30" viewBox="0 0 30 30" fill="none" xmlns="http://www.w3.org/2000/svg">
<path d="M4.6875 3.75C3.14531 3.75 1.875 5.02031 1.875 6.5625V22.1875C1.875 24.42 3.70504 26.25 5.9375 26.25H24.0625C26.295 26.25 28.125 24.42 28.125 22.1875V12.8125C28.125 11.2703 26.8547 10 25.3125 10H24.375V6.5625C24.375 5.02031 23.1047 3.75 21.5625 3.75H4.6875ZM4.6875 5.15625H21.5625C22.0916 5.15625 22.9688 6.03344 22.9688 6.5625V10.7812V11.25V21.5625C22.967 21.6867 22.9688 22.0312 22.9688 22.0312C22.9688 22.0312 23.0839 22.2515 23.1711 22.3399C23.2583 22.4284 23.3229 22.452 23.4375 22.5C23.3133 22.5 23.5521 22.548 23.4375 22.5C23.5617 22.5 23.6847 22.4887 23.7994 22.4407C23.914 22.3928 24.0179 22.3225 24.1052 22.234C24.1924 22.1456 24.2612 22.0406 24.3075 21.9254C24.3538 21.8101 24.3768 21.6867 24.375 21.5625V11.25H25.3125C25.8416 11.25 26.7188 12.2834 26.7188 12.8125V22.234C26.7188 23.4528 25.2813 24.8438 24.0625 24.8438H5.89097C4.67218 24.8438 3.28125 23.4063 3.28125 22.1875V6.5625C3.28125 6.03344 4.15844 5.15625 4.6875 5.15625ZM6.5625 14.375C6.31387 14.375 6.07542 14.4738 5.89961 14.6496C5.7238 14.8254 5.62502 15.0639 5.625 15.3125V19.6875C5.62502 19.9361 5.7238 20.1746 5.89961 20.3504C6.07542 20.5262 6.31387 20.625 6.5625 20.625H10.9375C11.1861 20.625 11.4246 20.5262 11.6004 20.3504C11.7762 20.1746 11.875 19.9361 11.875 19.6875V15.3125C11.875 15.0639 11.7762 14.8254 11.6004 14.6496C11.4246 14.4738 11.1861 14.375 10.9375 14.375H6.5625ZM7.03125 15.9375H10.3125V19.2188H7.03125V15.9375Z" fill="#183087"/>
<path d="M19.6875 10.3125H6.5625" stroke="#183087" stroke-width="1.5" stroke-linecap="round" stroke-linejoin="round"/>
<path d="M23.6719 9.5625V22.0312" stroke="#183087" stroke-width="1.5" stroke-linecap="round" stroke-linejoin="round"/>
<path d="M19.6875 15L15 15M19.6875 19.6875H15" stroke="#183087" stroke-width="1.5" stroke-linecap="round" stroke-linejoin="round"/>
</svg>
