<svg width="32" height="32" viewBox="0 0 32 32" fill="none" xmlns="http://www.w3.org/2000/svg">
<g opacity="0.92">
<path d="M16.2129 14.4946C16.0796 14.4813 15.9196 14.4813 15.7729 14.4946C12.5996 14.388 10.0796 11.788 10.0796 8.58797C10.0796 5.3213 12.7196 2.66797 15.9996 2.66797C19.2663 2.66797 21.9196 5.3213 21.9196 8.58797C21.9063 11.788 19.3863 14.388 16.2129 14.4946Z" stroke="#183087" stroke-width="1.5" stroke-linecap="round" stroke-linejoin="round"/>
<path d="M9.54646 19.412C6.3198 21.572 6.3198 25.092 9.54646 27.2387C13.2131 29.692 19.2265 29.692 22.8931 27.2387C26.1198 25.0787 26.1198 21.5587 22.8931 19.412C19.2398 16.972 13.2265 16.972 9.54646 19.412Z" stroke="#183087" stroke-width="1.5" stroke-linecap="round" stroke-linejoin="round"/>
</g>
</svg>
