<svg width="32" height="32" viewBox="0 0 32 32" fill="none" xmlns="http://www.w3.org/2000/svg">
<g clip-path="url(#clip0_189_555)">
<path d="M21.3027 18.9173C20.8186 18.9229 20.3382 18.833 19.8893 18.6528C19.4404 18.4725 19.0321 18.2055 18.6879 17.8672C17.3951 16.5819 17.8284 15.333 18.1155 14.5064C18.3029 13.9659 18.3468 13.7688 18.2371 13.6598C18.1777 13.6007 18.0863 13.6171 17.6401 13.8287C16.8794 14.1921 15.6058 14.797 14.0095 13.2102C12.5192 11.7286 12.6188 9.21799 14.228 7.61749C15.0255 6.81483 16.1099 6.35775 17.2451 6.34581C18.2034 6.33847 19.1262 6.70508 19.8152 7.36679C20.2563 7.72776 20.6199 8.1732 20.8842 8.67661C21.1486 9.18002 21.3083 9.73111 21.3539 10.2971C22.5936 10.5167 23.7217 11.1475 24.5539 12.0865C26.0168 13.5399 25.918 16.0469 24.308 17.6492C23.5117 18.4505 22.4296 18.9074 21.2963 18.9209L21.3027 18.9173ZM18.1941 12.607C18.3381 12.6069 18.4805 12.6362 18.6125 12.6933C18.7445 12.7503 18.8632 12.8338 18.9612 12.9386C19.54 13.5145 19.2858 14.2457 19.0819 14.8343C18.8186 15.5964 18.5708 16.3076 19.4111 17.146C19.6603 17.39 19.9559 17.5824 20.2807 17.712C20.6054 17.8415 20.9528 17.9057 21.3027 17.9008C22.1637 17.8877 22.9849 17.5382 23.5884 16.928C24.8008 15.7226 24.8986 13.8569 23.8069 12.7705C23.1745 12.0642 22.3432 11.5626 21.4207 11.3308C21.4207 11.4113 21.4188 11.4934 21.4152 11.577C21.413 11.6437 21.3977 11.7094 21.37 11.7703C21.3422 11.8311 21.3027 11.886 21.2536 11.9316C21.2045 11.9773 21.1468 12.0128 21.0839 12.0363C21.0209 12.0598 20.9539 12.0707 20.8867 12.0684H20.8511C20.7212 12.0548 20.6015 11.9924 20.5165 11.8939C20.4314 11.7955 20.3876 11.6684 20.3939 11.5388C20.4853 9.0454 19.2684 8.2179 19.2145 8.17794C19.1842 8.15735 19.1558 8.13426 19.1295 8.1089C18.8797 7.86758 18.5845 7.67769 18.2606 7.55017C17.9367 7.42266 17.5907 7.36002 17.2424 7.36588C16.3815 7.37886 15.5604 7.72801 14.9567 8.33781C13.7434 9.54409 13.6456 11.4089 14.7372 12.4953C15.8289 13.5817 16.4917 13.2574 17.2058 12.9186C17.5091 12.7468 17.8463 12.6427 18.1941 12.6134V12.607Z" fill="#183087"/>
<path d="M24.8309 12.5611H23.8079C23.8079 9.85608 24.4899 9.1939 25.2826 8.42998L25.4874 8.23106L31.1313 2.69017C31.1791 2.64331 31.2358 2.60628 31.298 2.58119C31.3603 2.55611 31.4269 2.54345 31.494 2.54396C31.5612 2.54447 31.6276 2.55812 31.6895 2.58414C31.7513 2.61017 31.8074 2.64805 31.8545 2.69562C31.9492 2.7915 32.0018 2.92076 32.0007 3.05509C31.9997 3.18941 31.9452 3.31786 31.849 3.4123L25.9976 9.16211C25.2963 9.83973 24.8319 10.2903 24.8319 12.5666L24.8309 12.5611Z" fill="#183087"/>
<path d="M19.3398 8.116V7.60006C19.3398 7.46803 19.3915 7.34116 19.484 7.24637C19.5765 7.15158 19.7026 7.09631 19.8354 7.0923C21.6978 7.02781 22.1302 6.58453 22.7611 5.94143L22.9714 5.72252L28.5723 0.148927C28.6198 0.101715 28.6761 0.0642611 28.7382 0.0387071C28.8002 0.0131531 28.8667 0 28.9339 0C29.0011 0 29.0676 0.0131531 29.1296 0.0387071C29.1917 0.0642611 29.248 0.101715 29.2955 0.148927C29.343 0.196085 29.3807 0.252086 29.4064 0.313729C29.4322 0.375372 29.4454 0.441447 29.4454 0.508177C29.4454 0.574906 29.4322 0.640981 29.4064 0.702624C29.3807 0.764267 29.343 0.820268 29.2955 0.867426L23.4971 6.64903C22.7273 7.43656 22.0608 8.116 19.3398 8.116Z" fill="#183087"/>
<path d="M14.7034 25.5092C13.7433 25.5196 12.8175 25.1546 12.126 24.4927C11.6847 24.1319 11.3209 23.6864 11.0564 23.183C10.7919 22.6796 10.6321 22.1285 10.5863 21.5624C9.3453 21.3429 8.21572 20.7121 7.38178 19.773C5.91892 18.3196 6.01766 15.8126 7.62863 14.2103C8.42627 13.4078 9.51064 12.9508 10.6458 12.9386C11.1297 12.9343 11.6097 13.0254 12.058 13.2068C12.5062 13.3881 12.9137 13.656 13.257 13.995C14.5498 15.2803 14.1164 16.5293 13.8293 17.3559C13.6419 17.8964 13.598 18.0944 13.7077 18.2025C13.769 18.2624 13.8613 18.2443 14.3084 18.0335C15.0691 17.6702 16.3418 17.0652 17.939 18.6521C19.4293 20.1336 19.3306 22.6443 17.7196 24.2411C16.9225 25.0444 15.8378 25.5016 14.7025 25.5128L14.7034 25.5092ZM11.0892 19.7866C11.2189 19.8002 11.3385 19.8624 11.4235 19.9607C11.5085 20.059 11.5524 20.1858 11.5463 20.3153C11.4549 22.8087 12.6718 23.6362 12.7267 23.6761C12.7572 23.6964 12.7857 23.7195 12.8117 23.7452C13.0605 23.9889 13.3555 24.1812 13.6795 24.3109C14.0036 24.4406 14.3504 24.5052 14.6997 24.5009C15.5613 24.4869 16.3825 24.1361 16.9854 23.5244C18.1987 22.3191 18.2965 20.4533 17.2049 19.3679C16.1132 18.2824 15.4503 18.6058 14.7363 18.9446C14.2398 19.1808 13.5605 19.5032 12.9699 18.9173C12.3793 18.3315 12.6453 17.6102 12.8492 17.0216C13.1134 16.2595 13.3603 15.5483 12.5201 14.7099C12.2713 14.4662 11.9763 14.2739 11.6523 14.1442C11.3282 14.0144 10.9814 13.9498 10.6321 13.9542C9.77083 13.9679 8.9497 14.3181 8.34635 14.9288C7.13949 16.1305 7.03983 17.9954 8.13698 19.0817C8.76945 19.7881 9.60073 20.2896 10.5233 20.5215C10.5233 20.4397 10.5254 20.3568 10.5297 20.2726C10.532 20.2059 10.5476 20.1403 10.5755 20.0796C10.6034 20.0189 10.643 19.9642 10.6922 19.9188C10.7414 19.8733 10.7991 19.8379 10.862 19.8146C10.925 19.7913 10.9919 19.7806 11.059 19.783L11.0892 19.7866Z" fill="#183087"/>
<path d="M0.145323 29.1065C0.0509116 29.0107 -0.00150122 28.8816 -0.000473447 28.7475C0.000554322 28.6134 0.0549392 28.4851 0.150809 28.3907L5.94281 22.6954C6.59012 22.0687 7.03995 21.639 7.1003 19.7815C7.10457 19.6496 7.1603 19.5247 7.25568 19.4329C7.35107 19.3412 7.47864 19.29 7.61138 19.29C7.67857 19.2899 7.74513 19.303 7.80725 19.3284C7.86936 19.3539 7.92581 19.3913 7.97336 19.4384C8.02092 19.4856 8.05865 19.5416 8.08439 19.6033C8.11013 19.6649 8.12338 19.731 8.12338 19.7978C8.12338 19.8045 8.12338 19.8111 8.12338 19.8178C8.03835 22.0886 7.39195 22.709 6.66052 23.4221L6.45481 23.6247L0.868524 29.1119C0.820698 29.1588 0.764044 29.1958 0.701803 29.2209C0.639562 29.246 0.572953 29.2587 0.505786 29.2582C0.43862 29.2577 0.372212 29.244 0.310361 29.218C0.24851 29.192 0.192428 29.1541 0.145323 29.1065Z" fill="#183087"/>
<path d="M2.70337 31.6482C2.65585 31.601 2.61815 31.545 2.59243 31.4834C2.56671 31.4218 2.55347 31.3557 2.55347 31.2889C2.55347 31.2222 2.56671 31.1561 2.59243 31.0945C2.61815 31.0329 2.65585 30.9769 2.70337 30.9297L8.44874 25.2071C9.21583 24.4196 9.88326 23.7393 12.6033 23.7393V24.7521C10.3175 24.7521 9.86588 25.2135 9.18291 25.912L8.97263 26.1255L3.42657 31.6464C3.3791 31.6936 3.32273 31.731 3.26069 31.7566C3.19864 31.7822 3.13213 31.7953 3.06497 31.7953C2.9978 31.7953 2.93129 31.7822 2.86925 31.7566C2.8072 31.731 2.75083 31.6936 2.70337 31.6464V31.6482Z" fill="#183087"/>
<path d="M23.272 26.0237C23.213 25.9062 23.2021 25.7705 23.2417 25.6452C23.2812 25.5198 23.3681 25.4146 23.4841 25.3516C24.6642 24.6916 25.6954 23.7982 26.5141 22.7265C26.602 22.6231 26.7101 22.5386 26.8319 22.478C26.9538 22.4174 27.0867 22.382 27.2226 22.374C27.2983 22.3741 27.3725 22.3948 27.4372 22.4337C27.5019 22.4727 27.5547 22.5285 27.5898 22.595C27.6249 22.6616 27.641 22.7365 27.6364 22.8115C27.6318 22.8866 27.6067 22.9589 27.5637 23.0208C26.6263 24.3435 25.4034 25.4414 23.9842 26.2345C23.8673 26.3023 23.7281 26.3212 23.5972 26.2872C23.4662 26.2531 23.3542 26.1688 23.2857 26.0528L23.272 26.0237Z" fill="#183087"/>
<path d="M21.8513 27.8752V27.8534C21.8313 27.7267 21.8611 27.5972 21.9347 27.4918C22.0082 27.3864 22.1198 27.3132 22.2463 27.2875C23.258 27.0698 24.2245 26.6808 25.1034 26.1375C25.209 26.0713 25.335 26.045 25.4585 26.0633C25.5821 26.0816 25.6948 26.1434 25.7763 26.2374C25.824 26.2935 25.8589 26.3592 25.8785 26.43C25.8981 26.5008 25.9021 26.5749 25.8901 26.6474C25.8781 26.7198 25.8504 26.7888 25.809 26.8496C25.7676 26.9104 25.7134 26.9615 25.6502 26.9995C24.6674 27.6069 23.5864 28.0409 22.4547 28.2821C22.3248 28.3105 22.1888 28.2864 22.0766 28.2152C21.9645 28.144 21.8854 28.0315 21.8568 27.9024C21.8531 27.8915 21.8513 27.8824 21.8513 27.8752Z" fill="#183087"/>
<path d="M3.95779 11.1727C3.893 11.1537 3.83265 11.1221 3.78023 11.0798C3.72781 11.0374 3.68436 10.9852 3.65239 10.9261C3.62043 10.8669 3.60057 10.8021 3.59399 10.7353C3.5874 10.6685 3.59421 10.6011 3.61402 10.5369L3.62316 10.5106C4.24259 8.78481 5.29938 7.24684 6.69151 6.04515C6.78976 5.95733 6.91771 5.90949 7.04987 5.91118C7.18202 5.91286 7.30869 5.96394 7.40465 6.05424C7.45217 6.10139 7.48987 6.15739 7.51559 6.21904C7.54131 6.28068 7.55455 6.34676 7.55455 6.41348C7.55455 6.48021 7.54131 6.54629 7.51559 6.60793C7.48987 6.66958 7.45217 6.72558 7.40465 6.77273L7.37265 6.8018C6.10615 7.89212 5.14544 9.28971 4.58408 10.8585C4.53978 10.9804 4.45023 11.0808 4.3338 11.1392C4.21736 11.1977 4.08284 11.2097 3.95779 11.1727Z" fill="#183087"/>
<path d="M4.29707 6.68109C4.2467 6.63702 4.20556 6.58352 4.176 6.52365C4.14645 6.46378 4.12905 6.39871 4.1248 6.33216C4.12056 6.26561 4.12955 6.19888 4.15126 6.13578C4.17298 6.07268 4.20699 6.01445 4.25136 5.96441L4.26141 5.95351C5.83581 4.31849 7.49981 3.24483 9.2141 2.7625C9.33998 2.72476 9.47553 2.73527 9.59401 2.79193C9.71248 2.8486 9.80528 2.94732 9.8541 3.06861C9.87792 3.13133 9.88901 3.19812 9.88672 3.26512C9.88444 3.33212 9.86881 3.398 9.84077 3.45897C9.81272 3.51994 9.77279 3.57479 9.7233 3.62035C9.6738 3.66592 9.61571 3.70129 9.55239 3.72444L9.51216 3.73715C7.96701 4.16317 6.45661 5.14145 5.01021 6.65112C4.91878 6.74756 4.79302 6.80468 4.65978 6.81028C4.52654 6.81588 4.39638 6.76952 4.29707 6.68109Z" fill="#183087"/>
<path d="M0.146273 23.0115C0.0514222 22.9154 -0.0011799 22.7859 2.00894e-05 22.6514C0.00122008 22.5168 0.0561241 22.3883 0.152673 22.2939C0.83473 21.6272 2.33507 20.1547 3.48799 19.0084C4.1993 18.3017 4.29713 17.4851 4.43519 16.3506C4.66193 14.4703 4.97279 11.8997 8.4681 8.42441C11.9634 4.94909 14.5481 4.63844 16.4361 4.41408C17.5753 4.27965 18.3972 4.17882 19.1086 3.47395C20.2532 2.33307 21.7335 0.847019 22.4219 0.169396C22.5163 0.0711089 22.6455 0.0132683 22.7821 0.00817908C22.9187 0.00308988 23.0519 0.0511538 23.1534 0.142146C23.2025 0.187732 23.2421 0.242495 23.2698 0.3033C23.2976 0.364105 23.3131 0.429756 23.3153 0.496496C23.3175 0.563236 23.3064 0.629753 23.2827 0.692239C23.259 0.754725 23.2231 0.811952 23.1771 0.860645L23.1662 0.871545C22.4841 1.54917 20.9892 3.04339 19.8363 4.19154C18.8745 5.1462 17.8048 5.27428 16.5632 5.41962C14.7255 5.63853 12.4388 5.91285 9.19587 9.14382C5.9529 12.3748 5.66856 14.6438 5.45004 16.4696C5.30102 17.7022 5.17576 18.7677 4.21119 19.7215C3.05736 20.8714 1.55427 22.3457 0.869473 23.0142C0.821826 23.0612 0.765316 23.0985 0.703172 23.1238C0.641028 23.1491 0.574471 23.162 0.507304 23.1618C0.440138 23.1615 0.37368 23.1481 0.311732 23.1223C0.249783 23.0965 0.193559 23.0589 0.146273 23.0115Z" fill="#183087"/>
<path d="M31.7476 9.00098C31.8425 9.09702 31.8951 9.22654 31.8939 9.36109C31.8927 9.49564 31.8378 9.62421 31.7412 9.71857C31.0592 10.3853 29.5588 11.8577 28.4059 13.004C27.6946 13.7107 27.5949 14.5282 27.4578 15.6609C27.2311 17.5412 26.9202 20.1118 23.4249 23.5871C19.9296 27.0625 17.3449 27.3731 15.4569 27.5975C14.3186 27.7328 13.4967 27.8318 12.7853 28.5394C11.6397 29.6812 10.1549 31.1645 9.47198 31.8422C9.37764 31.9404 9.24843 31.9983 9.11183 32.0034C8.97523 32.0085 8.84202 31.9604 8.74055 31.8694C8.69143 31.8238 8.65185 31.7691 8.62407 31.7083C8.59629 31.6474 8.58085 31.5818 8.57865 31.5151C8.57644 31.4483 8.5875 31.3818 8.6112 31.3193C8.63491 31.2568 8.67078 31.1996 8.71677 31.1509L8.72775 31.14C9.4098 30.4624 10.9047 28.9682 12.0576 27.82C13.0194 26.8644 14.0891 26.7355 15.3307 26.5874C17.1684 26.3685 19.4551 26.0942 22.698 22.8632C25.941 19.6322 26.2189 17.3595 26.4393 15.5338C26.5883 14.3012 26.7136 13.2357 27.6781 12.2819C28.832 11.1319 30.3378 9.6568 31.0199 8.98917C31.0679 8.94255 31.1248 8.9058 31.1871 8.88102C31.2495 8.85624 31.3162 8.84392 31.3834 8.84477C31.4505 8.84561 31.5169 8.8596 31.5786 8.88594C31.6403 8.91227 31.6962 8.95044 31.7431 8.99825L31.7476 9.00098Z" fill="#183087"/>
</g>
<defs>
<clipPath id="clip0_189_555">
<rect width="32" height="32" fill="white"/>
</clipPath>
</defs>
</svg>
