<svg width="32" height="32" viewBox="0 0 32 32" fill="none" xmlns="http://www.w3.org/2000/svg">
<g clip-path="url(#clip0_189_572)">
<path d="M31.0303 9.81376C30.9228 10.4249 30.8485 11.0452 30.703 11.6505C30.1721 13.842 29.0764 15.7205 27.5935 17.3577C27.0989 17.9035 26.4413 18.2621 25.726 18.3759C25.0107 18.4898 24.2792 18.3523 23.6485 17.9855C23.0186 17.6203 22.5237 17.0494 22.2415 16.3625C21.9593 15.6755 21.9056 14.9112 22.0889 14.1894C22.3792 13.0506 22.5168 11.8761 22.4978 10.6987C22.4752 9.45643 21.4166 8.77017 20.316 9.2928C19.2154 9.81543 18.9091 10.318 18.9608 11.5595C18.9762 11.9435 19.0238 12.3259 19.0626 12.7091C19.2113 14.1777 19.4077 15.6429 19.4966 17.1148C19.5636 18.221 19.3657 19.3163 19.0206 20.3708C18.9325 20.6413 19.0004 20.7699 19.2137 20.9327C19.6178 21.2407 19.983 21.6006 20.3685 21.9404C20.7879 21.7792 21.2356 21.5622 21.7059 21.4394C22.6847 21.1809 23.7169 21.2408 24.6616 21.611C25.6063 21.9811 26.4173 22.6435 26.984 23.5077C27.5507 24.3718 27.8455 25.3956 27.828 26.4393C27.8106 27.483 27.4817 28.4956 26.8865 29.339C26.6739 29.6379 26.4251 29.7097 26.1923 29.5402C25.9596 29.3708 25.941 29.1078 26.143 28.7989C26.16 28.773 26.1778 28.7479 26.1956 28.7221C26.664 28.0385 26.9161 27.2219 26.9172 26.3844C26.923 25.5602 26.6909 24.7529 26.2506 24.0657C25.8103 23.3784 25.1817 22.8423 24.4451 22.5258C23.7085 22.2094 22.8973 22.1269 22.1151 22.289C21.333 22.4511 20.6153 22.8504 20.0538 23.4359C19.4923 24.0213 19.1124 24.7664 18.9627 25.576C18.813 26.3856 18.9002 27.2228 19.2133 27.9809C19.5263 28.739 20.0509 29.3835 20.7202 29.8322C21.3894 30.2808 22.1729 30.5131 22.9705 30.4995C23.5894 30.4876 24.1975 30.3297 24.7483 30.0378C25.0901 29.8583 25.3479 29.9159 25.4756 30.1864C25.6032 30.4569 25.4941 30.6932 25.1523 30.8785C23.1483 31.9539 20.5988 31.4304 19.1596 29.6346C18.8986 29.3081 18.6828 28.9416 18.4388 28.5826C18.2279 28.7655 18.2061 29.0335 18.2036 29.3015C18.198 29.9886 18.1923 30.6765 18.2036 31.3636C18.2101 31.6533 18.1228 31.8645 17.8804 32.0098H17.638C17.3842 31.8804 17.2824 31.6717 17.2873 31.3795C17.2978 30.6815 17.2873 29.9836 17.2873 29.2856C17.2873 28.6469 17.4982 28.1076 17.9887 27.6943C18.0227 27.663 18.0495 27.6243 18.0673 27.581C18.085 27.5377 18.0933 27.4909 18.0913 27.4439C17.7492 25.5804 18.2303 23.983 19.5345 22.6517C19.565 22.6086 19.592 22.5631 19.6154 22.5156C19.3091 22.2451 19.0141 21.9495 18.6844 21.7024C18.0517 21.2282 17.9184 20.8675 18.1568 20.0994C18.6238 18.5967 18.6909 17.0546 18.5107 15.4976C18.362 14.2169 18.1875 12.9395 18.0541 11.6572C18.0286 11.2628 18.0519 10.8666 18.1236 10.4783C18.1949 9.97273 18.4462 9.51278 18.8283 9.18844C19.5038 8.60403 20.2319 8.13482 21.1717 8.17824C22.358 8.23417 23.3576 9.24688 23.4053 10.47C23.455 11.7618 23.3188 13.0541 23.0012 14.3046C22.6408 15.7339 23.364 17.0663 24.6804 17.3936C25.516 17.5998 26.2966 17.4136 26.8824 16.7658C28.7289 14.732 29.9531 12.376 30.1034 9.54577C30.202 7.70152 29.6703 5.99086 28.8234 4.37955C28.7758 4.28771 28.7224 4.19921 28.6764 4.10654C28.5333 3.82102 28.5851 3.55886 28.8089 3.42361C29.0465 3.27918 29.3026 3.3635 29.4683 3.65404C30.0883 4.72826 30.5341 5.90004 30.7879 7.12295C30.8889 7.62388 30.9495 8.12481 31.0303 8.62573V9.81376Z" fill="#183087"/>
<path d="M0 8.62509C0.119596 7.96303 0.207677 7.28929 0.367677 6.64142C0.502626 6.08957 0.709495 5.55608 0.903434 5.02092C1.02384 4.68697 1.25333 4.57677 1.51273 4.68196C1.77212 4.78716 1.8699 5.05599 1.73333 5.38577C1.3424 6.32286 1.08517 7.31361 0.969697 8.32704C0.78303 9.99679 1.13131 11.5764 1.76727 13.0992C2.31354 14.4116 3.0901 15.5754 4.01778 16.6316C4.77818 17.4957 5.92727 17.7111 6.88727 17.1884C7.35163 16.9372 7.72029 16.5313 7.93354 16.0366C8.14678 15.5418 8.19213 14.9872 8.06222 14.4625C7.76107 13.2305 7.61281 11.9638 7.62101 10.6931C7.64687 8.79206 9.38101 7.64077 11.061 8.42388C12.5317 9.11015 13.0505 9.97341 12.9786 11.6415C12.9616 12.0247 12.9139 12.4079 12.8735 12.7903C12.7257 14.2096 12.5341 15.6197 12.4388 17.039C12.3685 18.0926 12.5673 19.132 12.8865 20.1405C13.1079 20.8402 12.9673 21.2526 12.3709 21.665C11.8182 22.035 11.3653 22.5437 11.0545 23.1436C10.8929 23.4625 10.6335 23.561 10.3879 23.4191C10.1422 23.2772 10.0986 23.0192 10.2513 22.7103C10.6189 21.9745 11.1684 21.3524 11.844 20.907C12.0307 20.7809 12.1018 20.6632 12.0234 20.4236C11.4392 18.6152 11.4246 16.7651 11.663 14.8975C11.8028 13.8047 11.9394 12.711 12.0671 11.6165C12.0871 11.388 12.085 11.1581 12.0606 10.9302C12.0218 10.4293 11.8263 10.001 11.4085 9.71961C11.1359 9.52398 10.8455 9.35622 10.5414 9.21869C10.3233 9.12713 10.0869 9.09164 9.85255 9.11529C9.61822 9.13893 9.39294 9.221 9.19607 9.35443C8.99921 9.48787 8.83663 9.66868 8.72232 9.88135C8.60801 10.094 8.54537 10.3322 8.5398 10.5754C8.50178 11.7732 8.63216 12.9703 8.92687 14.1294C9.33091 15.7307 8.65293 17.3137 7.27677 18.0442C5.93374 18.758 4.30626 18.3998 3.2695 17.1776C1.84566 15.4995 0.764445 13.6318 0.279596 11.4378C0.161616 10.901 0.0913131 10.3524 0 9.81312V8.62509Z" fill="#183087"/>
<path d="M13.1514 32C12.909 31.8581 12.8217 31.6444 12.8282 31.3547C12.8427 30.6793 12.8241 30.003 12.8346 29.3276C12.8427 28.8409 12.6496 28.5069 12.2342 28.2656C11.0617 27.5835 10.214 26.6243 9.91424 25.23C9.91424 25.2091 9.90212 25.1899 9.89808 25.1699C9.81242 24.7232 9.93363 24.4586 10.2464 24.4052C10.5405 24.3559 10.7045 24.5421 10.7942 24.9971C10.9688 25.8879 11.4649 26.5641 12.1542 27.1018C12.3394 27.2453 12.5344 27.3747 12.7377 27.4892C13.389 27.859 13.7211 28.4301 13.7373 29.1865C13.7534 29.9429 13.7373 30.6843 13.7429 31.4331C13.7429 31.7062 13.6169 31.8806 13.3938 32H13.1514Z" fill="#183087"/>
<path d="M13.2678 16.9976C13.4206 15.7603 13.5684 14.5222 13.7276 13.2858C13.8602 12.2522 13.9975 11.2211 13.7688 10.1817C13.6035 9.41097 13.1727 8.72857 12.5567 8.26147C11.824 7.68332 10.9677 7.29511 10.0598 7.12938C8.53976 6.84636 7.73491 5.60239 8.0541 4.04117C8.36925 2.505 7.54824 1.1934 6.10743 0.973831C5.25248 0.844425 4.52925 1.16001 3.97895 1.83709C3.53046 2.38561 3.12723 2.97253 2.70461 3.54275C2.65511 3.62167 2.60114 3.69749 2.54299 3.76983C2.3636 3.95935 2.15269 3.99525 1.94339 3.83746C1.74945 3.69052 1.67673 3.47095 1.80844 3.25889C2.39834 2.30629 2.99875 1.35454 3.87875 0.668266C4.40681 0.256246 5.04574 0.0239261 5.70717 0.00343559C6.36861 -0.017055 7.01986 0.175297 7.57087 0.553888C8.72481 1.3345 9.26784 2.75963 8.95753 4.18059C8.71511 5.27094 9.1644 5.99144 10.2286 6.20434C11.2027 6.39465 12.1263 6.79708 12.9381 7.38485C14.1559 8.26481 14.7773 9.49041 14.7725 10.9957C14.7725 12.0627 14.6327 13.1313 14.5066 14.1933C14.3563 15.4648 14.1486 16.7296 14.3006 18.017C14.3329 18.3168 14.3798 18.6146 14.4412 18.9095C14.4962 19.1631 14.6337 19.3896 14.8306 19.5513C15.0276 19.713 15.2722 19.8001 15.5237 19.7983C15.7753 19.7964 16.0186 19.7057 16.2133 19.5411C16.408 19.3765 16.5423 19.148 16.5939 18.8936C16.7863 18.0396 16.8409 17.1587 16.7555 16.2863C16.6125 14.963 16.4032 13.6464 16.2901 12.3206C16.2275 11.6059 16.2467 10.886 16.3474 10.1758C16.5899 8.53364 17.6331 7.50424 19.0214 6.82799C19.6077 6.55572 20.2201 6.34781 20.8484 6.20767C21.8303 5.9714 22.3151 5.23755 22.0832 4.22484C21.6194 2.19526 22.8525 0.310939 24.8549 0.0370994C25.8634 -0.10149 26.7539 0.229121 27.4884 0.955464C27.787 1.26612 28.0669 1.5954 28.3264 1.94145C28.5212 2.18691 28.4953 2.46242 28.2909 2.6344C28.0864 2.80639 27.8367 2.77884 27.6266 2.53088C27.427 2.29628 27.242 2.04832 27.0408 1.81455C26.2884 0.943776 25.1369 0.701662 24.1802 1.20843C23.2105 1.72188 22.7256 2.80722 22.96 3.94516C23.2234 5.23588 22.8258 6.28281 21.8286 6.83383C21.5592 6.97357 21.2714 7.072 20.9745 7.12604C20.0587 7.30324 19.1953 7.69795 18.4525 8.27901C17.6097 8.94691 17.1596 9.84774 17.1684 10.9172C17.192 11.9876 17.2794 13.0555 17.4303 14.1148C17.6404 15.7395 17.8343 17.3583 17.5062 18.9896C17.2897 20.0549 16.5187 20.737 15.5175 20.7429C14.5163 20.7487 13.7398 20.0658 13.5256 18.9997C13.4732 18.7555 13.4336 18.5085 13.4068 18.26C13.3672 17.8425 13.347 17.4301 13.3179 17.0152L13.2678 16.9976Z" fill="#183087"/>
<path d="M17.6904 23.2236C17.6961 23.6677 17.3607 23.8748 17.0213 23.7404C16.7021 23.6151 16.3878 23.4673 16.0581 23.3855C15.4157 23.2269 14.7975 23.363 14.2044 23.636C14.1308 23.6702 14.0605 23.7136 13.9862 23.7437C13.7365 23.8422 13.5062 23.7596 13.3922 23.535C13.3627 23.4827 13.3441 23.4246 13.3374 23.3644C13.3308 23.3043 13.3363 23.2434 13.3536 23.1855C13.3709 23.1277 13.3997 23.0742 13.4381 23.0284C13.4764 22.9827 13.5235 22.9456 13.5765 22.9197C14.8629 22.2025 16.1623 22.2 17.444 22.9197C17.5684 22.9923 17.6403 23.1601 17.6904 23.2236Z" fill="#183087"/>
<path d="M7.38264 6.78388C6.5681 6.78805 6.04284 6.34556 5.87153 5.51069C5.78345 5.07906 5.62426 4.96802 5.18305 5.0298C4.85254 5.07572 4.63436 4.93713 4.59395 4.65661C4.55355 4.37609 4.70789 4.17572 5.0384 4.10726C5.89335 3.93444 6.54547 4.37609 6.74183 5.26022C6.84123 5.70939 6.98426 5.84464 7.3883 5.84464C7.84082 5.84464 8.04365 5.98239 8.05254 6.28462C8.06143 6.58684 7.81173 6.78137 7.38264 6.78388Z" fill="#183087"/>
<path d="M23.5821 5.84423C24.0282 5.86009 24.1841 5.73236 24.2876 5.25982C24.4847 4.3665 25.1563 3.92401 26.0201 4.1152C26.3264 4.18366 26.4742 4.37735 26.4354 4.65704C26.3967 4.93672 26.1777 5.07447 25.8763 5.03774C25.3752 4.97345 25.2556 5.06195 25.149 5.57457C25.1107 5.77701 25.0329 5.96925 24.9202 6.13952C24.8075 6.3098 24.6624 6.45451 24.4937 6.56479C24.325 6.67508 24.1363 6.74862 23.9391 6.78091C23.7419 6.8132 23.5404 6.80356 23.347 6.75258C23.2349 6.73501 23.134 6.67266 23.066 6.57897C22.9979 6.48527 22.9683 6.36773 22.9833 6.25165C23.0003 5.96946 23.2169 5.8292 23.5821 5.84423Z" fill="#183087"/>
<path d="M5.2178 9.75468C5.68406 9.78139 5.78346 9.70291 5.87719 9.23204C6.04851 8.37462 6.76608 7.86952 7.60568 8.01229C7.88528 8.05904 8.06629 8.26275 8.05012 8.51321C8.03235 8.78037 7.82871 8.94568 7.52002 8.94317C6.95437 8.93817 6.85578 9.01748 6.73295 9.57434C6.54548 10.4217 5.81174 10.8809 4.98184 10.6705C4.70225 10.5996 4.5576 10.3959 4.59558 10.127C4.63517 9.84234 4.81942 9.73213 5.2178 9.75468Z" fill="#183087"/>
<path d="M25.6882 10.7189C24.935 10.7022 24.4591 10.3073 24.2926 9.55011C24.1811 9.04 24.0502 8.93564 23.5459 8.94482C23.1952 8.95067 22.9803 8.78286 22.9803 8.4965C22.9762 8.226 23.1791 8.03648 23.5031 8.00809C24.3758 7.93212 24.9795 8.39381 25.1613 9.27794C25.2421 9.68453 25.3617 9.77887 25.7641 9.76133C25.8449 9.76133 25.9257 9.7438 26.0065 9.74547C26.2377 9.75132 26.3896 9.87154 26.434 10.1053C26.4785 10.3391 26.3936 10.5444 26.1625 10.6296C26.0069 10.6724 25.8483 10.7023 25.6882 10.7189Z" fill="#183087"/>
<path d="M6.61502 7.49499C6.61987 7.85983 6.38068 8.10195 6.10189 8.02347C5.50876 7.85649 4.94795 7.93998 4.38634 8.1512C4.13825 8.24304 3.94836 8.12866 3.83765 7.90074C3.8114 7.84661 3.7963 7.78744 3.79329 7.72697C3.79027 7.66651 3.79942 7.60605 3.82014 7.54942C3.84087 7.49279 3.87273 7.44121 3.91371 7.39793C3.95469 7.35465 4.00391 7.32061 4.05825 7.29796C4.7726 6.99072 5.50795 6.88052 6.26755 7.11679C6.48573 7.18024 6.6029 7.32968 6.61502 7.49499Z" fill="#183087"/>
<path d="M25.659 6.87598C25.9992 6.95946 26.3645 7.02458 26.716 7.13896C26.7779 7.15421 26.8358 7.1831 26.8859 7.22365C26.9359 7.2642 26.9769 7.31546 27.006 7.3739C27.0351 7.43234 27.0516 7.49659 27.0544 7.56224C27.0572 7.6279 27.0462 7.6934 27.0223 7.75427C26.9366 7.99972 26.6845 8.10909 26.3984 8.00473C25.9521 7.83599 25.466 7.81527 25.0077 7.94545C24.7297 8.02226 24.4978 7.89202 24.4291 7.64824C24.354 7.38108 24.476 7.14063 24.7701 7.05631C25.0505 6.977 25.3382 6.93943 25.659 6.87598Z" fill="#183087"/>
<path d="M21.452 24.8486C21.452 24.5263 21.452 24.2466 21.452 23.9669C21.4601 23.4735 21.7252 23.1855 22.1963 23.1755C22.6674 23.1655 23.145 23.1655 23.6193 23.1755C24.0759 23.1855 24.3466 23.4719 24.3611 23.9402C24.3684 24.2299 24.3611 24.5196 24.3611 24.8486C24.6439 24.8486 24.9033 24.8486 25.1635 24.8486C25.7138 24.8569 25.9846 25.1316 25.991 25.6901C25.9951 26.1376 25.9967 26.5851 25.991 27.0318C25.9829 27.5377 25.7171 27.8249 25.2274 27.85C24.9559 27.8633 24.6835 27.85 24.3619 27.85C24.3619 28.1213 24.3619 28.3751 24.3619 28.6297C24.3619 29.2551 24.1066 29.5147 23.4932 29.518C23.069 29.518 22.6456 29.5239 22.2221 29.518C21.7268 29.5089 21.4585 29.2275 21.4512 28.7207C21.4472 28.4427 21.4512 28.1647 21.4512 27.8533C21.1579 27.8533 20.8985 27.8591 20.6383 27.8533C20.0928 27.8383 19.8254 27.5569 19.8205 26.9967C19.8205 26.5492 19.8157 26.1017 19.8205 25.6542C19.8278 25.1475 20.0985 24.8653 20.5898 24.8511C20.871 24.8419 21.1514 24.8486 21.452 24.8486ZM25.0609 26.9174V25.782C24.7555 25.782 24.4734 25.7953 24.1922 25.782C23.7171 25.7544 23.465 25.4689 23.4553 24.9755C23.4512 24.6975 23.4553 24.4195 23.4553 24.1131H22.3611C22.3611 24.4061 22.3611 24.654 22.3611 24.902C22.3571 25.5031 22.0969 25.7753 21.5102 25.7878C21.2605 25.7928 21.0116 25.7878 20.753 25.7878V26.9199C21.0464 26.9199 21.3187 26.9141 21.5886 26.9199C22.0791 26.9324 22.3506 27.2146 22.3603 27.7206C22.3652 27.9986 22.3603 28.2766 22.3603 28.5621H23.4536C23.4536 28.2707 23.4536 28.0019 23.4536 27.7331C23.4601 27.2063 23.7268 26.9308 24.2415 26.9199C24.513 26.9124 24.7829 26.9174 25.0609 26.9174Z" fill="#183087"/>
</g>
<defs>
<clipPath id="clip0_189_572">
<rect width="31.0303" height="32" fill="white"/>
</clipPath>
</defs>
</svg>
