<svg width="32" height="24" viewBox="0 0 32 24" fill="none" xmlns="http://www.w3.org/2000/svg">
<g clip-path="url(#clip0_189_613)">
<path d="M0 2.73708C0.060141 2.49696 0.111929 2.25297 0.182093 2.01576C0.584704 0.64284 1.57786 -0.0426525 2.80073 0.261366C5.33333 0.888766 7.86259 1.54231 10.3902 2.19779C10.6207 2.25782 10.7644 2.22296 10.9273 2.00414C11.75 0.91878 12.8409 0.387233 14.0404 0.193591C15.721 -0.0833173 17.4041 -0.116237 19.0522 0.47534C19.8976 0.761482 20.6567 1.31702 21.2431 2.0787C21.2943 2.12722 21.354 2.1621 21.4181 2.18084C21.4822 2.19958 21.5491 2.20173 21.614 2.18714C24.1399 1.55393 26.6525 0.891671 29.1759 0.271048C30.5808 -0.0736352 31.696 0.851974 31.944 2.49793C32.0828 3.40837 31.9622 4.34641 31.6006 5.17045C31.2389 5.99449 30.6559 6.6598 29.9393 7.06595C29.723 7.18794 29.637 7.30606 29.6503 7.6004C29.6804 8.2917 29.4114 8.85907 29.0071 9.34318C28.0399 10.505 26.2398 10.8846 24.9785 10.1962C23.5694 9.4216 23.2862 7.64397 24.3629 6.3427C25.5248 4.93976 27.857 4.65898 29.084 6.01931C29.13 6.0558 29.1827 6.07951 29.2378 6.08857C29.293 6.09764 29.3493 6.09183 29.4022 6.0716C30.5399 5.52649 31.2207 3.97639 30.9442 2.58604C30.7546 1.63138 30.1757 1.19375 29.3421 1.40385C26.9431 2.00995 24.5453 2.62315 22.1486 3.24345C22.065 3.26379 21.989 3.29477 21.9155 3.31897C21.9924 3.836 22.0893 4.3385 22.1369 4.84584C22.2254 5.8034 21.9849 6.6593 21.4795 7.41838C21.193 7.84826 20.8948 8.2704 20.6192 8.70707C20.2509 9.2969 20.0222 9.9882 19.9559 10.7122C19.901 11.1955 19.9894 11.6861 20.2065 12.1035C20.3585 12.4056 20.5156 12.7048 20.6584 13.0127C20.9992 13.7505 20.9691 14.5134 20.7854 15.2977C20.2408 17.6214 19.4614 19.8483 18.6629 22.0567C18.5557 22.3242 18.5007 22.6158 18.5017 22.9107C18.5059 23.0801 18.5092 23.2496 18.5017 23.4181C18.48 23.7792 18.262 24.0125 17.9746 23.999C17.6873 23.9854 17.5169 23.7511 17.5161 23.3919C17.5161 21.9551 17.5419 20.5163 17.501 19.0805C17.4868 18.606 17.3891 18.0658 17.1669 17.6853C16.9163 17.2593 16.4836 16.9756 16.1194 16.6445C16.0794 16.6077 15.9624 16.6445 15.8998 16.6822C15.0286 17.2544 14.5867 18.1094 14.6009 19.2867C14.6181 20.6751 14.6181 22.0629 14.6009 23.45C14.6009 23.6156 14.4681 23.8721 14.3461 23.9206C14.1899 23.9845 13.9702 23.9206 13.8032 23.8344C13.7533 23.7934 13.7129 23.7386 13.6856 23.6751C13.6584 23.6116 13.6451 23.5412 13.647 23.4703C13.7681 22.6503 13.3822 21.9967 13.16 21.2831C12.528 19.2544 11.9101 17.2212 11.3065 15.1834C11.1744 14.7594 11.1354 14.304 11.1928 13.8582C11.2503 13.4124 11.4024 12.9901 11.6356 12.6293C12.4709 11.2738 12.2053 9.99091 11.5003 8.72643C11.2901 8.36625 11.059 8.02303 10.8087 7.69916C9.96168 6.55861 9.76455 5.26508 10.1054 3.83697C10.1404 3.68786 10.173 3.53682 10.2164 3.34221C9.76956 3.22409 9.33772 3.1079 8.90504 2.99753C6.82238 2.4663 4.73944 1.93605 2.65623 1.40676C1.82595 1.19859 1.22788 1.67592 1.06416 2.65285C0.953113 3.33418 1.04125 4.03899 1.31463 4.65573C1.588 5.27248 2.031 5.76594 2.57353 6.05804C2.66625 6.10742 2.84417 6.12001 2.89846 6.05804C3.8841 4.88457 5.76184 4.89619 6.97969 5.7424C7.58027 6.15777 8.04886 6.71062 8.23931 7.51326C8.46317 8.45146 8.13406 9.39159 7.40402 9.96671C6.03247 11.0375 3.71788 10.5612 2.75646 9.00431C2.47593 8.56274 2.33389 8.02339 2.35385 7.4755C2.35457 7.4157 2.34333 7.35652 2.32101 7.3026C2.29869 7.24868 2.2659 7.20148 2.22522 7.16471C1.00235 6.48115 0.266458 5.37158 0.0467763 3.81179C0.0355173 3.76569 0.0198269 3.72119 0 3.67915L0 2.73708ZM18.5493 19.3041C18.5692 19.2742 18.586 19.2417 18.5994 19.2073C19.0121 17.8305 19.4236 16.4531 19.834 15.075C20.0495 14.3459 19.9401 13.672 19.5592 13.0505C18.7857 11.7918 18.7849 10.4363 19.3353 9.10694C19.6594 8.32462 20.123 7.60621 20.5924 6.92169C21.2565 5.95347 21.2799 4.92233 20.9725 3.8147C20.9157 3.61137 20.8288 3.55328 20.6492 3.60556C20.1547 3.74983 19.6544 3.86698 19.1624 4.01705C19.0351 4.05637 18.9229 4.1444 18.8442 4.26685C18.3756 5.10145 18.0089 5.98349 17.917 6.99721C17.8685 7.5607 17.8134 8.12517 17.7341 8.68383C17.6388 9.35286 17.4192 9.94831 16.9489 10.4034C16.7969 10.5505 16.6357 10.8003 16.6265 11.0104C16.5713 12.3592 16.5713 13.7098 16.5246 15.0576C16.507 15.5513 16.6916 15.8321 17.0466 16.0519C17.3369 16.2323 17.5937 16.4773 17.8022 16.7729C18.0108 17.0684 18.167 17.4088 18.262 17.7744C18.3998 18.2643 18.4541 18.7832 18.5493 19.3041ZM13.5509 19.3903L13.6545 19.3738C13.6545 19.247 13.6495 19.1192 13.6545 18.9914C13.6971 17.9854 13.9443 17.0133 14.6569 16.4421C15.3368 15.8989 15.584 15.2802 15.5306 14.374C15.4646 13.2567 15.4621 12.1336 15.3978 11.0162C15.3861 10.809 15.2466 10.5718 15.1062 10.4237C14.7955 10.0964 14.5483 9.7324 14.4656 9.25507C14.3735 8.7848 14.3126 8.30705 14.2835 7.82599C14.2392 6.57894 13.9585 5.42677 13.3555 4.38788C13.2845 4.26492 13.1884 4.11194 13.0756 4.07805C12.5127 3.90571 11.943 3.76048 11.3725 3.62493C11.3272 3.62514 11.2826 3.63855 11.2429 3.66393C11.2032 3.6893 11.1696 3.72583 11.1453 3.77016C10.8479 4.79646 10.7853 5.8034 11.3959 6.72998C11.73 7.23732 12.0958 7.72143 12.3915 8.25782C12.993 9.34802 13.3262 10.538 13.0255 11.8334C12.9094 12.334 12.6555 12.8016 12.4283 13.2547C12.1677 13.7766 12.0766 14.3101 12.2303 14.8862C12.4709 15.7827 12.7115 16.6793 12.9696 17.5691C13.1483 18.182 13.3563 18.7832 13.5509 19.3903ZM20.1823 2.61896L20.214 2.50761C20.1479 2.42178 20.0736 2.34481 19.9927 2.27815C19.6394 2.05159 19.2952 1.79404 18.921 1.62751C17.7265 1.09209 16.4686 1.0979 15.2215 1.18697C14.5341 1.23635 13.8475 1.42709 13.1767 1.62557C12.6455 1.78779 12.1677 2.12874 11.8035 2.6054C14.6527 3.42064 17.4175 3.41579 20.1823 2.61896ZM14.4505 4.29687C14.5048 4.44113 14.5541 4.54376 14.5842 4.65317C14.783 5.3861 15.0202 6.10548 15.1622 6.85585C15.285 7.49971 15.2925 8.17164 15.3618 8.83003C15.3747 9.00568 15.4267 9.17443 15.5128 9.31973C15.5989 9.46503 15.7162 9.58188 15.853 9.65882C15.903 9.68477 15.9571 9.69874 16.0119 9.6999C16.0668 9.70107 16.1212 9.6894 16.1721 9.66559C16.6833 9.3577 16.7852 8.77581 16.8328 8.19391C16.9389 6.87908 17.0742 5.57975 17.6497 4.40047C17.6614 4.37723 17.6405 4.33269 17.6338 4.29687H14.4505ZM5.04432 6.21876C4.70519 6.31559 4.34852 6.36981 4.03111 6.52762C3.23759 6.91491 3.08556 7.84633 3.71036 8.53956C4.50305 9.4187 5.45863 9.62493 6.4852 9.22699C7.45915 8.85036 7.61201 7.74854 6.81932 6.98656C6.31062 6.49858 5.7159 6.2817 5.04432 6.21876ZM26.9933 6.1965C26.1789 6.29913 25.4647 6.54892 24.9476 7.2838C24.4991 7.91991 24.6235 8.63929 25.2258 9.06724C26.1446 9.72272 27.7576 9.38675 28.4174 8.40208C28.8543 7.74951 28.7399 6.9759 28.1034 6.60799C27.7601 6.4095 27.365 6.33108 26.9933 6.1965Z" fill="#183087"/>
</g>
<defs>
<clipPath id="clip0_189_613">
<rect width="32" height="24" fill="white"/>
</clipPath>
</defs>
</svg>
