<svg width="32" height="28" viewBox="0 0 32 28" fill="none" xmlns="http://www.w3.org/2000/svg">
<g clip-path="url(#clip0_189_808)">
<mask id="mask0_189_808" style="mask-type:luminance" maskUnits="userSpaceOnUse" x="0" y="-1" width="32" height="30">
<path d="M32 -0.0410156H0V28.0405H32V-0.0410156Z" fill="white"/>
</mask>
<g mask="url(#mask0_189_808)">
<path d="M2.46853 9.75067L1.49665 11.2812C1.45651 11.3323 1.42762 11.3913 1.41182 11.4542C1.39603 11.5171 1.39369 11.5826 1.40495 11.6464C1.41621 11.7103 1.44082 11.7711 1.4772 11.825C1.51359 11.8789 1.56093 11.9246 1.61621 11.9593C1.67148 11.9939 1.73346 12.0167 1.79816 12.0262C1.86286 12.0358 1.92885 12.0317 1.9919 12.0145C2.05494 11.9972 2.11365 11.9671 2.16424 11.926C2.21484 11.8849 2.2562 11.8338 2.28568 11.7759L3.25756 10.2463C3.31096 10.1431 3.32352 10.0239 3.29276 9.912C3.262 9.80011 3.19015 9.70365 3.09132 9.64156C2.99249 9.57948 2.87381 9.55625 2.75858 9.57643C2.64335 9.59662 2.5399 9.65877 2.46853 9.75067Z" fill="#183087"/>
<path d="M27.1662 4.84482H31.2466C31.3455 4.84493 31.4435 4.82573 31.5349 4.78831C31.6263 4.75088 31.7093 4.69597 31.7793 4.62671C31.8493 4.55745 31.9048 4.47519 31.9426 4.38465C31.9805 4.29412 32 4.19707 32 4.09905V1.69957C31.9995 1.5021 31.92 1.31288 31.779 1.17341C31.6379 1.03395 31.4468 0.955624 31.2475 0.955624H27.1662C26.7078 0.456057 26.0879 0.130705 25.4133 0.0356909C24.7388 -0.0593232 24.0519 0.0819586 23.4713 0.435165C22.8906 0.788372 22.4525 1.33136 22.2326 1.97045C22.0126 2.60955 22.0246 3.30468 22.2665 3.93595L21.3522 7.19808C18.8983 6.04637 16.6153 5.94851 14.5426 6.9054C14.8023 6.41155 15.3042 5.71291 16.2743 4.82126C16.758 4.37529 17.0475 3.76025 17.0817 3.10638C17.1158 2.4525 16.8918 1.81113 16.4571 1.31808L16.4471 1.3063L16.4151 1.27187C15.9885 0.818519 15.4066 0.539354 14.7832 0.489069C14.1598 0.438784 13.5399 0.621003 13.045 1.00003C11.8857 1.86177 10.3003 3.32792 9.30926 5.3586C8.70744 6.56844 8.39609 7.89983 8.39954 9.2487C7.95429 9.41543 7.4432 9.42993 6.87543 9.29491C6.75419 9.26583 6.62626 9.28568 6.51978 9.35009C6.4133 9.41449 6.337 9.51818 6.30766 9.63834C6.27832 9.75851 6.29834 9.8853 6.36333 9.99083C6.42831 10.0964 6.53293 10.172 6.65417 10.2011C6.96702 10.2785 7.28807 10.3186 7.61051 10.3207C7.89615 10.3216 8.18061 10.2844 8.45623 10.2101C8.56688 11.1352 8.80275 12.0414 9.15749 12.9041C8.17463 13.5511 7.36731 14.4844 6.75474 15.686C6.00229 17.163 5.88526 18.814 6.37714 20.4523C5.79427 19.9458 5.3568 19.2956 5.10903 18.5675C4.71314 17.4448 4.69486 16.1101 5.05509 14.7064C5.0856 14.5871 5.06712 14.4607 5.0037 14.3549C4.94029 14.249 4.83711 14.1724 4.7168 14.1419C4.6976 14.1374 2.76114 13.639 1.39154 12.4202C1.18418 12.238 1.03802 11.9973 0.972646 11.7303C0.907277 11.4634 0.925834 11.1831 1.02583 10.9269C1.3454 10.1456 1.88493 9.47179 2.58011 8.98592C2.80919 8.81878 3.08593 8.7281 3.37038 8.72695C3.65484 8.72581 3.93231 8.81428 4.16274 8.97957C4.37303 9.1309 4.59063 9.27407 4.80731 9.40546C4.90843 9.46956 5.03 9.49403 5.14833 9.47409C5.26666 9.45415 5.37325 9.39124 5.44731 9.29763C5.48616 9.24568 5.51364 9.18628 5.528 9.12321C5.54237 9.06013 5.5433 8.99479 5.53074 8.93134C5.51817 8.86789 5.49239 8.80774 5.45505 8.75472C5.4177 8.70171 5.3696 8.657 5.31383 8.62346C5.11177 8.50203 4.90971 8.36883 4.71314 8.22747C4.32234 7.94645 3.85154 7.7958 3.36871 7.79727C2.88589 7.79873 2.41603 7.95224 2.02697 8.23562C1.19305 8.82802 0.545443 9.64235 0.159085 10.5844C-0.0115214 11.0171 -0.0445386 11.4912 0.0644618 11.9431C0.173462 12.395 0.419268 12.803 0.768914 13.1125C1.90171 14.1174 3.33531 14.6747 4.04754 14.9103C3.7504 16.3348 3.81074 17.6967 4.22583 18.8729C4.45876 19.5458 4.82503 20.1658 5.30312 20.6964C5.78121 21.227 6.36147 21.6576 7.00983 21.9629C7.2193 22.352 7.45576 22.7262 7.71749 23.0829C8.91703 24.7194 10.6971 26.0985 12.7323 26.9621C14.9467 27.9052 17.3835 28.2138 19.7659 27.8528C22.2034 27.484 24.5394 26.7365 26.5225 25.6917C26.628 25.6377 26.7097 25.5469 26.7517 25.4368C26.7938 25.3267 26.7932 25.2051 26.7502 25.0954C26.7251 25.0356 26.6877 24.9816 26.6403 24.9369C26.5929 24.8923 26.5367 24.8579 26.4751 24.8361C26.4136 24.8142 26.3481 24.8054 26.2829 24.8101C26.2177 24.8148 26.1542 24.833 26.0965 24.8635C24.203 25.8602 21.9639 26.5797 19.6233 26.934C17.4139 27.268 15.1544 26.9817 13.1008 26.1076C11.2201 25.3093 9.57714 24.0398 8.47543 22.5347C6.91657 20.4034 6.59383 18.0583 7.59131 16.101C8.192 14.923 8.99474 14.0459 9.97669 13.4913C12.6043 12.0079 15.7659 13.2521 15.797 13.2648C15.9113 13.3077 16.038 13.3047 16.1501 13.2564C16.2622 13.2082 16.3509 13.1185 16.3972 13.0064C16.4436 12.8943 16.444 12.7687 16.3983 12.6563C16.3526 12.544 16.2645 12.4537 16.1527 12.4048C16.0137 12.3486 12.8887 11.1099 9.98034 12.4456C9.06606 10.1095 9.12549 7.86501 10.1495 5.76546C11.0592 3.90151 12.5321 2.54773 13.6082 1.74035C13.9186 1.50135 14.3078 1.38594 14.6996 1.41679C15.0914 1.44764 15.4574 1.62251 15.7257 1.90708L15.7312 1.91252L15.7467 1.92973L15.7577 1.94151C16.0282 2.25217 16.1665 2.65475 16.1435 3.06447C16.1205 3.47418 15.9379 3.85905 15.6343 4.13802C13.2315 6.35899 13.2965 7.65025 13.3486 7.9221C13.4994 9.31032 14.1623 9.93012 14.3643 10.0878C14.4622 10.1518 14.5807 10.1772 14.6964 10.1589C14.8122 10.1406 14.9169 10.0801 14.9899 9.98911C15.0628 9.89816 15.0988 9.78343 15.0906 9.66751C15.0825 9.5516 15.0308 9.44292 14.9458 9.36287C14.8946 9.323 14.4777 8.97232 14.3177 8.0843C16.3291 6.89181 18.6149 6.90177 21.1045 8.11329L19.4286 14.0948C19.3981 14.204 19.4089 14.3205 19.459 14.4223C19.5091 14.5242 19.5949 14.6044 19.7005 14.6479C19.806 14.6914 19.924 14.6952 20.0322 14.6586C20.1404 14.622 20.2313 14.5475 20.288 14.4491L23.2082 9.37465C26.3424 11.6201 29.0405 15.0834 30.4027 17.0026C30.9678 17.7982 31.1717 18.6681 31.008 19.5888C30.7438 21.0703 29.5451 22.6135 27.6251 23.9383C27.572 23.972 27.5263 24.016 27.4907 24.0676C27.4552 24.1192 27.4305 24.1775 27.4181 24.2388C27.4058 24.3001 27.406 24.3632 27.4189 24.4244C27.4317 24.4856 27.4569 24.5436 27.4929 24.595C27.5289 24.6463 27.575 24.6899 27.6284 24.7232C27.6818 24.7565 27.7414 24.7788 27.8037 24.7887C27.8659 24.7986 27.9296 24.796 27.9908 24.781C28.052 24.7659 28.1096 24.7388 28.16 24.7013C30.2821 23.2387 31.6206 21.4817 31.9287 19.7546C32.0312 19.1849 32.0166 18.6005 31.8857 18.0365C31.7549 17.4726 31.5104 16.9406 31.1671 16.4725C28.1499 12.2191 25.4784 9.84676 23.6699 8.56728L25.2791 5.7854C26.0043 5.71571 26.6773 5.38031 27.1662 4.84482ZM31.0619 2.16171V3.63601C31.0619 3.71027 31.0322 3.78149 30.9792 3.834C30.9262 3.88651 30.8544 3.91601 30.7794 3.91601H27.7385C27.9868 3.26055 27.9868 2.53807 27.7385 1.88261H30.7794C30.8165 1.8825 30.8533 1.88962 30.8876 1.90358C30.9219 1.91754 30.9531 1.93807 30.9795 1.96398C31.0058 1.9899 31.0267 2.0207 31.041 2.05463C31.0553 2.08855 31.0627 2.12494 31.0629 2.16171H31.0619ZM24.9993 0.92844C25.3926 0.92844 25.7771 1.04403 26.1041 1.26059C26.4311 1.47715 26.686 1.78496 26.8365 2.14509C26.987 2.50522 27.0264 2.9015 26.9497 3.28381C26.8729 3.66612 26.6836 4.0173 26.4054 4.29293C26.1273 4.56856 25.773 4.75627 25.3873 4.83232C25.0015 4.90836 24.6017 4.86933 24.2383 4.72016C23.875 4.57099 23.5644 4.31838 23.3459 3.99427C23.1274 3.67016 23.0107 3.28912 23.0107 2.89931C23.0112 2.37675 23.2209 1.87573 23.5937 1.50623C23.9665 1.13672 24.4721 0.92892 24.9993 0.92844ZM22.9486 4.96715C23.3096 5.31928 23.7566 5.5725 24.2459 5.70203L21.3303 10.7656L22.9486 4.96715Z" fill="#183087"/>
</g>
<path d="M24.9992 4.32354C25.2834 4.32336 25.5612 4.23967 25.7975 4.08304C26.0337 3.9264 26.2178 3.70387 26.3264 3.44357C26.435 3.18326 26.4634 2.89688 26.4078 2.62062C26.3523 2.34436 26.2153 2.09063 26.0143 1.89151C25.8132 1.69238 25.5571 1.5568 25.2784 1.50191C24.9996 1.44702 24.7106 1.47529 24.4481 1.58313C24.1855 1.69097 23.9611 1.87355 23.8032 2.10778C23.6453 2.34201 23.561 2.61738 23.561 2.89908C23.5615 3.27672 23.7131 3.63876 23.9825 3.9058C24.252 4.17283 24.6173 4.32306 24.9983 4.32354H24.9992ZM24.9992 2.40251C25.0982 2.40179 25.1952 2.43022 25.2779 2.48421C25.3606 2.5382 25.4253 2.6153 25.4638 2.70575C25.5022 2.79621 25.5127 2.89593 25.4939 2.99229C25.4751 3.08866 25.4278 3.17731 25.3581 3.24703C25.2884 3.31675 25.1994 3.36439 25.1023 3.38391C25.0053 3.40344 24.9046 3.39397 24.813 3.3567C24.7214 3.31943 24.643 3.25605 24.5877 3.17458C24.5325 3.09311 24.5029 2.99722 24.5027 2.89908C24.5035 2.76863 24.5559 2.6437 24.6488 2.55129C24.7417 2.45888 24.8676 2.40641 24.9992 2.40522V2.40251Z" fill="#183087"/>
<path d="M19.4449 15.1442C19.3922 15.0328 19.297 14.9467 19.1803 14.9048C19.0636 14.8628 18.9349 14.8684 18.8223 14.9204C18.6535 14.9989 18.488 15.0847 18.3259 15.1777L17.7188 14.789C17.6671 14.7535 17.6088 14.7286 17.5472 14.7159C17.4857 14.7031 17.4222 14.7028 17.3605 14.7149C17.2988 14.7269 17.2402 14.7512 17.1882 14.7861C17.1361 14.8211 17.0917 14.8661 17.0576 14.9184C17.0234 14.9707 17.0002 15.0293 16.9894 15.0907C16.9785 15.1521 16.9802 15.215 16.9944 15.2757C17.0086 15.3364 17.0349 15.3937 17.0719 15.4441C17.1088 15.4945 17.1556 15.5371 17.2095 15.5692L17.4838 15.7504C17.1739 15.9985 16.885 16.2713 16.6198 16.566L16.0155 16.3603C15.9565 16.3388 15.8938 16.3293 15.8311 16.3323C15.7684 16.3353 15.7069 16.3508 15.6503 16.3778C15.5938 16.4048 15.5432 16.4428 15.5017 16.4895C15.4603 16.5362 15.4287 16.5907 15.4088 16.6498C15.389 16.7088 15.3813 16.7712 15.3863 16.8333C15.3912 16.8953 15.4087 16.9557 15.4376 17.0109C15.4666 17.0662 15.5064 17.1151 15.5548 17.1548C15.6032 17.1944 15.6591 17.2241 15.7192 17.2419L16.0063 17.3326C15.6976 17.7741 15.4269 18.2406 15.1972 18.7271H14.5572C14.4365 18.7324 14.3225 18.7836 14.239 18.8702C14.1555 18.9567 14.1088 19.0718 14.1088 19.1915C14.1088 19.3113 14.1555 19.4264 14.239 19.5129C14.3225 19.5994 14.4365 19.6506 14.5572 19.6559H14.8059C14.6534 20.0696 14.5231 20.4909 14.4155 20.9182H13.8971C13.7764 20.9235 13.6624 20.9747 13.5789 21.0612C13.4953 21.1477 13.4487 21.2629 13.4487 21.3826C13.4487 21.5023 13.4953 21.6174 13.5789 21.704C13.6624 21.7905 13.7764 21.8417 13.8971 21.847H14.2161C14.1832 22.0491 14.1695 22.1714 14.1677 22.1868C14.1549 22.3094 14.1917 22.4319 14.2701 22.5276C14.3484 22.6232 14.4619 22.6842 14.5855 22.697H14.6349C14.7508 22.6969 14.8627 22.6543 14.9488 22.5773C15.0349 22.5003 15.0892 22.3944 15.1012 22.2801C15.1012 22.2711 15.1204 22.1107 15.1697 21.8443H15.6177C15.7384 21.839 15.8524 21.7877 15.9359 21.7012C16.0195 21.6147 16.0661 21.4996 16.0661 21.3799C16.0661 21.2601 16.0195 21.145 15.9359 21.0585C15.8524 20.972 15.7384 20.9208 15.6177 20.9155H15.3846C15.5042 20.4898 15.6486 20.0714 15.8171 19.6623H16.4827C16.5459 19.665 16.6091 19.6551 16.6684 19.633C16.7277 19.6109 16.7818 19.5771 16.8276 19.5337C16.8734 19.4903 16.9098 19.4382 16.9347 19.3805C16.9596 19.3228 16.9724 19.2606 16.9724 19.1979C16.9724 19.1351 16.9596 19.073 16.9347 19.0152C16.9098 18.9575 16.8734 18.9054 16.8276 18.862C16.7818 18.8186 16.7277 18.7848 16.6684 18.7627C16.6091 18.7407 16.5459 18.7307 16.4827 18.7335H16.2513C16.4526 18.3538 16.6834 17.9902 16.9416 17.6461L17.3174 17.7702C17.3651 17.7863 17.4151 17.7946 17.4655 17.7947C17.577 17.7949 17.6849 17.7556 17.7699 17.6841C17.8549 17.6125 17.9114 17.5133 17.9292 17.4042C17.947 17.2951 17.9251 17.1833 17.8672 17.0888C17.8094 16.9943 17.7195 16.9233 17.6136 16.8885H17.6072C17.8304 16.669 18.0707 16.4672 18.3259 16.285L18.6001 16.4663C18.695 16.5264 18.8086 16.5506 18.92 16.5346C19.0314 16.5186 19.1333 16.4634 19.2071 16.3791C19.2809 16.2948 19.3216 16.187 19.3218 16.0754C19.3219 15.9638 19.2816 15.8558 19.2081 15.7713H19.2173C19.3299 15.719 19.417 15.6245 19.4593 15.5086C19.5017 15.3927 19.4958 15.2649 19.4431 15.1533L19.4449 15.1442Z" fill="#183087"/>
<path d="M23.8291 16.3698C23.9364 16.3698 24.0405 16.3333 24.1239 16.2664C24.2074 16.1995 24.2652 16.1063 24.2876 16.0023C24.3101 15.8983 24.2959 15.7898 24.2474 15.6949C24.1989 15.6 24.119 15.5245 24.0211 15.4809L22.3397 14.7288C22.2834 14.7029 22.2224 14.6883 22.1604 14.6859C22.0983 14.6835 22.0364 14.6934 21.9782 14.7149C21.92 14.7364 21.8667 14.7691 21.8214 14.8112C21.7761 14.8533 21.7396 14.9039 21.7142 14.9601C21.6888 15.0163 21.6749 15.0769 21.6733 15.1384C21.6716 15.1999 21.6824 15.2612 21.7049 15.3186C21.7273 15.376 21.7611 15.4283 21.8041 15.4727C21.8472 15.5171 21.8987 15.5525 21.9557 15.577L23.6371 16.3245C23.6975 16.3515 23.7629 16.3654 23.8291 16.3653V16.3698Z" fill="#183087"/>
<path d="M23.9049 13.1572H22.5088C22.3844 13.1572 22.2651 13.2062 22.1772 13.2934C22.0892 13.3806 22.0398 13.4988 22.0398 13.6221C22.0398 13.7454 22.0892 13.8636 22.1772 13.9508C22.2651 14.038 22.3844 14.0869 22.5088 14.0869H23.904C24.0247 14.0817 24.1387 14.0304 24.2222 13.9439C24.3057 13.8574 24.3523 13.7423 24.3523 13.6225C24.3523 13.5028 24.3057 13.3877 24.2222 13.3012C24.1387 13.2147 24.0247 13.1634 23.904 13.1581L23.9049 13.1572Z" fill="#183087"/>
<path d="M20.9133 16.1008C20.8207 16.183 20.7649 16.2983 20.758 16.4213C20.7512 16.5443 20.7939 16.665 20.8767 16.7568L21.8075 17.788C21.8479 17.8358 21.8975 17.875 21.9535 17.9034C22.0095 17.9317 22.0707 17.9487 22.1334 17.9531C22.1962 17.9576 22.2592 17.9495 22.3187 17.9293C22.3782 17.9092 22.433 17.8773 22.4798 17.8358C22.5267 17.7942 22.5646 17.7437 22.5914 17.6873C22.6181 17.6309 22.6332 17.5698 22.6356 17.5075C22.6381 17.4452 22.6279 17.3831 22.6056 17.3248C22.5833 17.2665 22.5495 17.2133 22.506 17.1682L21.5771 16.137C21.4941 16.0453 21.3778 15.9899 21.2537 15.9831C21.1296 15.9763 21.0078 16.0186 20.9151 16.1008H20.9133Z" fill="#183087"/>
<path d="M15.7759 3.11158C15.7762 2.85647 15.7002 2.60699 15.5575 2.3947C15.4148 2.18241 15.2117 2.01686 14.974 1.91899C14.7363 1.82111 14.4747 1.79532 14.2222 1.84487C13.9697 1.89442 13.7377 2.01708 13.5555 2.19734C13.3734 2.3776 13.2493 2.60736 13.199 2.85754C13.1486 3.10771 13.1743 3.36707 13.2727 3.60279C13.3711 3.83852 13.5379 4.04001 13.7519 4.18177C13.9658 4.32354 14.2175 4.39921 14.4749 4.39921C14.8198 4.39873 15.1504 4.26273 15.3943 4.02101C15.6382 3.7793 15.7754 3.4516 15.7759 3.10976V3.11158ZM14.111 3.11158C14.111 3.03989 14.1324 2.96981 14.1726 2.9102C14.2128 2.8506 14.2699 2.80414 14.3367 2.77671C14.4036 2.74927 14.4771 2.74209 14.548 2.75608C14.619 2.77007 14.6841 2.80459 14.7353 2.85528C14.7864 2.90597 14.8213 2.97055 14.8354 3.04086C14.8495 3.11117 14.8422 3.18405 14.8146 3.25028C14.7869 3.31651 14.74 3.37312 14.6799 3.41295C14.6197 3.45278 14.549 3.47403 14.4767 3.47403C14.3797 3.47403 14.2867 3.43585 14.2181 3.36787C14.1495 3.2999 14.111 3.20771 14.111 3.11158Z" fill="#183087"/>
</g>
<defs>
<clipPath id="clip0_189_808">
<rect width="32" height="28" fill="white"/>
</clipPath>
</defs>
</svg>
