<svg width="32" height="25" viewBox="0 0 32 25" fill="none" xmlns="http://www.w3.org/2000/svg">
<g clip-path="url(#clip0_206_691)">
<path d="M12.2347 9.8906C13.3837 9.5046 14.2303 8.29015 14.2303 6.839V6.23086C14.225 6.11068 14.1735 5.99719 14.0866 5.91403C13.9997 5.83086 13.884 5.78445 13.7637 5.78445C13.6434 5.78445 13.5278 5.83086 13.4409 5.91403C13.354 5.99719 13.3025 6.11068 13.2972 6.23086V6.83809C13.2972 8.08258 12.4778 9.09584 11.4764 9.09584H10.8246C10.7847 8.98191 10.7363 8.87114 10.6798 8.76446C10.5874 8.62293 10.5374 8.458 10.5354 8.28901C10.5335 8.12002 10.5798 7.95398 10.6689 7.81038C13.5858 3.27757 8.82263 -1.54018 4.49922 0.586477C4.44222 0.612321 4.391 0.649357 4.34859 0.695384C4.30619 0.741412 4.27347 0.795492 4.25238 0.854413C4.23128 0.913333 4.22225 0.975892 4.22581 1.03837C4.22936 1.10085 4.24544 1.16198 4.27309 1.21813C4.30073 1.27427 4.33938 1.32429 4.38674 1.36521C4.43409 1.40612 4.48918 1.4371 4.54875 1.45631C4.60831 1.47552 4.67112 1.48256 4.73346 1.47701C4.7958 1.47147 4.85638 1.45345 4.91162 1.42403C8.37108 -0.272925 12.3058 3.55069 9.88414 7.30511C9.6988 7.59637 9.60035 7.93445 9.60035 8.27968C9.60035 8.62491 9.6988 8.96298 9.88414 9.25424C10.0327 9.50174 10.1111 9.78495 10.1111 10.0736C10.1111 10.3622 10.0327 10.6454 9.88414 10.8929C9.69106 11.1965 9.59225 11.5505 9.60019 11.9102C9.60813 12.2699 9.72246 12.6192 9.92875 12.914C10.523 13.8253 10.7331 14.9346 10.5132 16.0002C9.79674 19.4378 5.2958 20.2653 3.36306 17.3658C0.255005 12.7046 0.169429 7.57641 3.36306 2.78141C3.40059 2.73054 3.42741 2.67257 3.44188 2.61102C3.45635 2.54947 3.45817 2.48563 3.44724 2.42336C3.4363 2.36109 3.41283 2.30168 3.37826 2.24875C3.34368 2.19581 3.29872 2.15045 3.2461 2.11541C3.19347 2.08036 3.13428 2.05637 3.07211 2.04488C3.00993 2.0334 2.94607 2.03465 2.8844 2.04858C2.82273 2.0625 2.76452 2.0888 2.71332 2.12588C2.66211 2.16297 2.61897 2.21006 2.5865 2.26432C-0.717285 7.22682 -0.825621 12.7629 2.5865 17.8838C4.97444 21.4652 10.5423 20.4328 11.4263 16.1896C11.6894 14.9268 11.4746 13.5904 10.6707 12.3432C10.58 12.1988 10.5324 12.0316 10.5335 11.8611C10.5347 11.6906 10.5845 11.524 10.6771 11.3809C10.7974 11.1845 10.8894 10.9721 10.9502 10.75H11.5274C12.2913 10.7507 13.0238 11.0545 13.564 11.5947C14.1042 12.1349 14.408 12.8674 14.4087 13.6314V23.9151C14.4141 24.0352 14.4655 24.1487 14.5525 24.2319C14.6394 24.3151 14.755 24.3615 14.8753 24.3615C14.9956 24.3615 15.1113 24.3151 15.1982 24.2319C15.2851 24.1487 15.3366 24.0352 15.3419 23.9151V13.6332C15.3404 12.7453 15.0292 11.8857 14.4621 11.2025C13.8949 10.5194 13.1072 10.0554 12.2347 9.8906Z" fill="#183087"/>
<path d="M29.4136 2.26543C29.3805 2.21261 29.3371 2.16695 29.286 2.13117C29.2349 2.09539 29.1772 2.0702 29.1162 2.0571C29.0552 2.04399 28.9922 2.04324 28.9309 2.05487C28.8697 2.0665 28.8113 2.09029 28.7594 2.12483C28.7075 2.15937 28.663 2.20396 28.6286 2.25598C28.5942 2.30799 28.5705 2.36637 28.559 2.42768C28.5475 2.48898 28.5484 2.55196 28.5617 2.61291C28.5749 2.67385 28.6003 2.73153 28.6362 2.78253C31.7469 7.45553 31.8225 12.5837 28.6362 17.3669C28.2739 17.911 27.7826 18.3569 27.2062 18.6651C26.6298 18.9733 25.986 19.134 25.3324 19.133C22.2371 19.133 20.2688 15.7063 22.1123 12.8514C22.2989 12.5589 22.398 12.2192 22.398 11.8723C22.398 11.5253 22.2989 11.1856 22.1123 10.8931C21.9638 10.6457 21.8854 10.3624 21.8854 10.0738C21.8854 9.78516 21.9638 9.50194 22.1123 9.25445C22.2979 8.96309 22.3964 8.62485 22.3964 8.27943C22.3964 7.93402 22.2979 7.59577 22.1123 7.30441C19.7098 3.58276 23.5926 -0.293656 27.0849 1.42333C27.1401 1.45275 27.2007 1.47076 27.263 1.47631C27.3254 1.48185 27.3882 1.47482 27.4477 1.45561C27.5073 1.4364 27.5624 1.40542 27.6097 1.3645C27.6571 1.32359 27.6957 1.27357 27.7234 1.21743C27.751 1.16128 27.7671 1.10015 27.7707 1.03767C27.7742 0.97519 27.7652 0.912631 27.7441 0.85371C27.723 0.794789 27.6903 0.740709 27.6479 0.694682C27.6055 0.648654 27.5543 0.611618 27.4973 0.585775C23.1784 -1.53906 18.4125 3.27778 21.3312 7.81058C21.4203 7.95419 21.4666 8.12022 21.4647 8.28921C21.4628 8.4582 21.4127 8.62314 21.3203 8.76466C21.2638 8.87135 21.2155 8.98212 21.1756 9.09605H20.5274C19.5205 9.09605 18.7066 8.0837 18.7066 6.83829V6.23107C18.7013 6.11089 18.6498 5.9974 18.5629 5.91423C18.476 5.83107 18.3603 5.78465 18.24 5.78465C18.1197 5.78465 18.0041 5.83107 17.9172 5.91423C17.8302 5.9974 17.7788 6.11089 17.7735 6.23107V6.83829C17.7735 8.28944 18.621 9.5039 19.769 9.8899C18.896 10.0542 18.1077 10.5179 17.54 11.2011C16.9723 11.8843 16.6608 12.7442 16.6591 13.6325V23.9153C16.6564 23.9783 16.6664 24.0412 16.6886 24.1002C16.7108 24.1593 16.7447 24.2132 16.7883 24.2588C16.8319 24.3043 16.8842 24.3406 16.9422 24.3654C17.0002 24.3901 17.0627 24.4029 17.1257 24.4029C17.1888 24.4029 17.2512 24.3901 17.3092 24.3654C17.3672 24.3406 17.4196 24.3043 17.4632 24.2588C17.5068 24.2132 17.5407 24.1593 17.5629 24.1002C17.5851 24.0412 17.5951 23.9783 17.5923 23.9153V13.6334C17.593 12.8694 17.8968 12.137 18.437 11.5968C18.9772 11.0566 19.7097 10.7528 20.4737 10.752H21.0508C21.1116 10.9742 21.2036 11.1866 21.324 11.3829C21.4226 11.5359 21.4724 11.7152 21.4669 11.8971C21.4614 12.079 21.4007 12.255 21.293 12.4017C19.17 15.6308 21.3504 20.0671 25.3342 20.0671C26.1418 20.0678 26.937 19.8687 27.649 19.4875C28.3609 19.1062 28.9675 18.5547 29.4145 17.8822C32.7192 12.9279 32.8239 7.38908 29.4136 2.26543Z" fill="#183087"/>
</g>
<defs>
<clipPath id="clip0_206_691">
<rect width="32" height="24.4502" fill="white"/>
</clipPath>
</defs>
</svg>
