<svg width="29" height="32" viewBox="0 0 29 32" fill="none" xmlns="http://www.w3.org/2000/svg">
<g clip-path="url(#clip0_189_587)">
<path d="M27.0766 11.7076C27.0795 11.9007 27.0795 12.0941 27.0766 12.2878C27.0677 13.6465 26.6825 14.9745 25.966 16.1169C25.6936 16.5545 25.3813 16.9885 25.076 17.4061C24.4758 18.1755 23.9628 19.0126 23.5472 19.9013C22.8445 21.5461 22.5827 23.3539 22.789 25.1375C22.9053 26.2688 23.1222 27.3869 23.4368 28.4778C23.6096 29.0518 23.8257 29.6111 24.0829 30.1507C24.2011 30.3888 24.3349 30.6183 24.4834 30.8378L24.5207 30.8962L12.7419 30.9301C12.3956 29.6645 11.7687 28.4984 10.9104 27.523C11.0421 27.4755 11.1694 27.4317 11.2851 27.3887C11.6793 27.2471 11.9765 27.1384 12.1252 27.0927C14.3499 26.3736 15.4677 25.3366 15.4365 24.0054C15.4286 23.8651 15.3691 23.7332 15.2699 23.6363C15.1708 23.5394 15.0394 23.4849 14.9026 23.4837C14.8342 23.4855 14.7669 23.5011 14.7045 23.5296C14.642 23.5582 14.5857 23.5991 14.5386 23.65C14.4916 23.7009 14.4548 23.7608 14.4304 23.8264C14.4059 23.8919 14.3943 23.9618 14.3962 24.0319C14.4087 24.5801 13.9699 25.3823 11.8155 26.0785C11.6597 26.1288 11.3527 26.2384 10.9434 26.3864C10.5731 26.5198 10.1184 26.6825 9.62094 26.857C8.1573 27.401 6.66599 27.8631 5.15359 28.2412C4.9201 28.2861 4.67871 28.2368 4.47975 28.1036C4.2808 27.9703 4.13963 27.7633 4.08569 27.5258C3.97236 27.2275 3.92789 26.9063 3.95577 26.5874C3.97 26.4769 3.99492 26.3663 4.01628 26.2558C4.12261 25.8854 4.13941 25.494 4.06522 25.1155C3.99135 24.8736 3.86748 24.6509 3.70207 24.4626C3.53665 24.2743 3.3336 24.1249 3.10679 24.0246L2.99555 23.9588C3.05184 23.8424 3.11921 23.7319 3.19667 23.629C3.28171 23.5174 3.32011 23.3757 3.30343 23.235C3.28674 23.0944 3.21633 22.9663 3.10768 22.8789L3.09789 22.8716C2.97597 22.7802 2.67607 22.5481 2.46338 22.3718C2.49008 22.3216 2.51945 22.2649 2.54703 22.2174C2.62713 22.073 2.7179 21.9049 2.80689 21.7176C2.9728 21.3447 3.02163 20.928 2.9466 20.5253C2.82469 19.8711 2.21599 19.5523 1.77192 19.3193C1.61937 19.2449 1.4732 19.1575 1.33497 19.058C1.22767 18.981 1.12595 18.8961 1.03062 18.804C1.03062 18.7236 1.11339 18.5299 1.51296 18.0283C2.44238 16.8009 3.23965 15.4739 3.8908 14.0703C4.01637 13.8493 4.08612 13.5996 4.0937 13.3439C4.06744 13.0786 3.9859 12.8221 3.85462 12.592C3.72334 12.3618 3.54538 12.1633 3.33283 12.01C3.12459 11.8136 2.92436 11.6263 2.90211 11.4618C2.90424 11.3323 2.93273 11.2047 2.98576 11.0872C3.07475 10.8551 3.16819 10.6304 3.26964 10.4001C3.48081 9.95161 3.64919 9.48315 3.77244 9.00132L3.81427 8.81402C3.92534 8.26662 4.0704 7.72707 4.24855 7.19867C4.65592 6.03766 5.29005 4.97434 6.11202 4.07396C7.1194 2.98579 8.64204 2.23842 10.768 1.79986C12.3724 1.4394 14.0002 1.19939 15.6385 1.08172C18.5752 0.921832 21.1008 1.8364 23.8213 4.02645C25.1429 5.02707 26.1081 6.44552 26.5684 8.06391C26.588 8.13883 26.6076 8.21375 26.6254 8.28867C26.7106 8.3799 26.8228 8.43954 26.9446 8.45824C27.0663 8.47694 27.1907 8.45364 27.2982 8.392C27.4056 8.33035 27.4901 8.23384 27.5384 8.11759C27.5868 8.00134 27.5961 7.87192 27.5651 7.74961C27.037 5.92638 25.95 4.32679 24.4656 3.18862C21.536 0.828639 18.7924 -0.148977 15.5878 0.0182231C13.8978 0.138387 12.2185 0.384814 10.5634 0.755546C8.22022 1.23979 6.51693 2.08583 5.35827 3.34212C4.43983 4.34633 3.73064 5.53239 3.27409 6.82773C3.08046 7.39839 2.92291 7.9813 2.80244 8.57281L2.76061 8.75555C2.65021 9.17124 2.50121 9.57511 2.31566 9.96158C2.20887 10.2119 2.10119 10.455 2.01131 10.7117C1.89057 10.9935 1.84246 11.3025 1.87159 11.6089C1.97718 12.0855 2.24632 12.5071 2.6298 12.7967C2.8852 13.037 3.05161 13.2051 3.05606 13.3595C3.03635 13.439 3.00642 13.5155 2.96707 13.587C2.34557 14.9335 1.58381 16.207 0.695128 17.3851C0.321365 17.8528 -0.0693063 18.3983 0.0107858 18.9529C0.12447 19.3733 0.394971 19.7308 0.763651 19.9479C0.935799 20.069 1.11702 20.1759 1.30561 20.2677C1.52987 20.3855 1.90541 20.5801 1.92855 20.7245C1.96242 20.9042 1.94256 21.0902 1.87159 21.2581C1.79417 21.4243 1.71586 21.5705 1.64555 21.6957C1.45511 22.042 1.13563 22.6222 1.61619 23.037C1.72832 23.1393 1.92054 23.2937 2.09585 23.4317C1.96613 23.666 1.90785 23.935 1.92855 24.2037C1.94233 24.3069 1.97642 24.4061 2.02874 24.4953C2.08106 24.5845 2.15052 24.6619 2.2329 24.7227C2.35037 24.8061 2.47217 24.883 2.59776 24.9529C2.903 25.1256 3.02581 25.2169 3.06585 25.3777C3.09398 25.595 3.07483 25.8159 3.00979 26.0246C2.97953 26.1653 2.94927 26.3042 2.93237 26.4449C2.8806 26.9305 2.94159 27.4217 3.11035 27.8784C3.2411 28.3646 3.54818 28.7809 3.96855 29.0419C4.38891 29.3029 4.89064 29.3887 5.37072 29.2818C6.85408 28.9156 8.31714 28.4675 9.75354 27.9396C10.9211 28.6477 11.6588 30.7903 11.8511 31.5943C11.8787 31.7102 11.9435 31.8133 12.035 31.887C12.1264 31.9607 12.2394 32.0008 12.3556 32.0009L25.3946 31.9643C25.4755 31.964 25.5552 31.9443 25.6273 31.9068C25.6994 31.8693 25.7621 31.815 25.8102 31.7483C25.8583 31.6816 25.8906 31.6043 25.9045 31.5225C25.9184 31.4407 25.9136 31.3568 25.8903 31.2772C25.7599 30.9133 25.5801 30.57 25.3564 30.2576C25.2334 30.0765 25.1222 29.8873 25.0235 29.6911C24.7895 29.1994 24.5934 28.6895 24.4371 28.1662C24.1406 27.1358 23.9357 26.0798 23.8248 25.0114C23.6406 23.4165 23.8753 21.8001 24.5047 20.3298C24.889 19.5161 25.3619 18.7498 25.9143 18.0456C26.2258 17.6116 26.5515 17.164 26.8443 16.6916C27.6664 15.3846 28.1093 13.8645 28.1213 12.3088C28.1258 12.0685 28.1213 11.8273 28.1213 11.587C28.0811 11.4694 28.0032 11.3694 27.9002 11.3034C27.7973 11.2374 27.6755 11.2094 27.555 11.224C27.4345 11.2386 27.3224 11.2949 27.2372 11.3836C27.152 11.4723 27.0988 11.5882 27.0864 11.7121L27.0766 11.7076Z" fill="#183087"/>
<path d="M10.452 9.06813H10.9717C11.1096 9.06813 11.2418 9.01191 11.3392 8.91185C11.4367 8.81178 11.4915 8.67607 11.4915 8.53455C11.4915 8.39304 11.4367 8.25732 11.3392 8.15726C11.2418 8.05719 11.1096 8.00098 10.9717 8.00098H10.452C10.0388 8.00098 9.64242 8.16953 9.35019 8.46955C9.05797 8.76958 8.8938 9.1765 8.8938 9.60079V10.1344C8.8938 10.5587 9.05797 10.9656 9.35019 11.2656C9.64242 11.5656 10.0388 11.7342 10.452 11.7342H10.9717C11.1057 11.7285 11.2324 11.6698 11.3253 11.5705C11.4181 11.4711 11.47 11.3388 11.47 11.2011C11.47 11.0634 11.4181 10.931 11.3253 10.8317C11.2324 10.7323 11.1057 10.6736 10.9717 10.6679H10.452C10.3142 10.6679 10.182 10.6117 10.0845 10.5117C9.98708 10.4116 9.93233 10.2759 9.93233 10.1344V9.60079C9.93256 9.45944 9.98742 9.32396 10.0849 9.22409C10.1823 9.12422 10.3144 9.06813 10.452 9.06813Z" fill="#183087"/>
<path d="M14.0891 7.46777C13.9514 7.46777 13.8194 7.52386 13.722 7.62373C13.6245 7.7236 13.5697 7.85908 13.5694 8.00044V9.0685C13.5694 9.21002 13.5147 9.34573 13.4172 9.4458C13.3197 9.54587 13.1875 9.60208 13.0497 9.60208H12.53C12.4618 9.59968 12.3937 9.61111 12.3298 9.6357C12.2658 9.6603 12.2072 9.69759 12.1573 9.74544C12.0565 9.84208 11.9972 9.97587 11.9925 10.1174C11.9878 10.2589 12.038 10.3965 12.1321 10.5C12.2263 10.6035 12.3566 10.6644 12.4944 10.6692H13.0488C13.4621 10.6692 13.8584 10.5007 14.1507 10.2007C14.4429 9.90064 14.6071 9.49372 14.6071 9.06942V8.00135C14.6071 7.86015 14.5525 7.72471 14.4555 7.6247C14.3584 7.52469 14.2267 7.46826 14.0891 7.46777Z" fill="#183087"/>
<path d="M16.1671 7.46738V6.9338C16.1671 6.5095 16.003 6.10258 15.7107 5.80256C15.4185 5.50254 15.0222 5.33398 14.6089 5.33398H13.5695C13.1567 5.33471 12.761 5.50358 12.4694 5.80353C12.1777 6.10347 12.0139 6.50998 12.0139 6.9338V7.46738C12.0139 7.60889 12.0687 7.74461 12.1661 7.84467C12.2636 7.94474 12.3958 8.00096 12.5336 8.00096C12.6715 8.00096 12.8036 7.94474 12.9011 7.84467C12.9986 7.74461 13.0533 7.60889 13.0533 7.46738V6.9338C13.0533 6.79229 13.1081 6.65657 13.2056 6.55651C13.303 6.45644 13.4352 6.40022 13.573 6.40022H14.6125C14.7497 6.40119 14.881 6.45783 14.9776 6.55779C15.0743 6.65775 15.1286 6.79292 15.1286 6.9338V7.46738C15.1286 7.60889 15.1834 7.74461 15.2808 7.84467C15.3783 7.94474 15.5105 8.00096 15.6483 8.00096C15.7862 8.00096 15.9183 7.94474 16.0158 7.84467C16.1133 7.74461 16.168 7.60889 16.168 7.46738H16.1671Z" fill="#183087"/>
<path d="M17.7254 11.2008H17.2057C17.068 11.2008 16.936 11.1447 16.8385 11.0448C16.7411 10.945 16.6862 10.8095 16.686 10.6681V10.1345C16.6804 9.99698 16.6233 9.86693 16.5265 9.7716C16.4298 9.67627 16.3008 9.62305 16.1667 9.62305C16.0326 9.62305 15.9037 9.67627 15.8069 9.7716C15.7101 9.86693 15.653 9.99698 15.6475 10.1345V10.6681C15.6475 11.0924 15.8116 11.4993 16.1039 11.7994C16.3961 12.0994 16.7924 12.2679 17.2057 12.2679H17.7254C17.8632 12.2679 17.9954 12.2117 18.0929 12.1117C18.1904 12.0116 18.2451 11.8759 18.2451 11.7344C18.2451 11.5929 18.1904 11.4571 18.0929 11.3571C17.9954 11.257 17.8632 11.2008 17.7254 11.2008Z" fill="#183087"/>
<path d="M20.323 9.60044C20.323 9.45893 20.2682 9.32321 20.1708 9.22314C20.0733 9.12308 19.9411 9.06686 19.8033 9.06686H19.2836C19.1457 9.06686 19.0136 9.01065 18.9161 8.91058C18.8186 8.81052 18.7639 8.6748 18.7639 8.53329C18.7639 8.39177 18.8186 8.25605 18.9161 8.15599C19.0136 8.05592 19.1457 7.99971 19.2836 7.99971H19.8033C19.8715 8.00211 19.9396 7.99068 20.0035 7.96609C20.0675 7.94149 20.1261 7.9042 20.176 7.85635C20.2259 7.8085 20.2662 7.75102 20.2944 7.6872C20.3227 7.62339 20.3385 7.55447 20.3408 7.4844C20.3431 7.41433 20.332 7.34448 20.3081 7.27882C20.2841 7.21317 20.2478 7.153 20.2012 7.10176C20.1546 7.05051 20.0986 7.0092 20.0364 6.98016C19.9743 6.95113 19.9071 6.93495 19.8389 6.93255H19.2845C19.0755 6.9253 18.8673 6.96129 18.6722 7.03838C18.4771 7.11546 18.2991 7.23207 18.1488 7.38126C17.9985 7.53045 17.8789 7.70917 17.7973 7.90677C17.7157 8.10437 17.6736 8.31682 17.6736 8.53146C17.6736 8.7461 17.7157 8.95855 17.7973 9.15615C17.8789 9.35375 17.9985 9.53247 18.1488 9.68165C18.2991 9.83084 18.4771 9.94745 18.6722 10.0245C18.8673 10.1016 19.0755 10.1376 19.2845 10.1304H19.8042C19.9419 10.1304 20.0739 10.0743 20.1714 9.9744C20.2688 9.87454 20.3237 9.73905 20.3239 9.5977L20.323 9.60044Z" fill="#183087"/>
<path d="M21.8814 9.60059C21.7437 9.60059 21.6116 9.65668 21.5142 9.75654C21.4167 9.85641 21.3619 9.99189 21.3617 10.1332V11.2004C21.3617 11.3419 21.3069 11.4776 21.2094 11.5777C21.112 11.6778 20.9798 11.734 20.8419 11.734H20.3222C20.254 11.7316 20.1859 11.743 20.122 11.7676C20.058 11.7922 19.9994 11.8295 19.9495 11.8773C19.8996 11.9252 19.8594 11.9827 19.8311 12.0465C19.8028 12.1103 19.7871 12.1792 19.7847 12.2493C19.7824 12.3194 19.7935 12.3892 19.8175 12.4549C19.8414 12.5205 19.8778 12.5807 19.9244 12.6319C19.971 12.6832 20.0269 12.7245 20.0891 12.7535C20.1513 12.7826 20.2184 12.7987 20.2866 12.8011H20.8419C21.0466 12.8011 21.2492 12.7598 21.4383 12.6794C21.6273 12.599 21.7991 12.4811 21.9438 12.3326C22.0885 12.184 22.2033 12.0076 22.2816 11.8135C22.3599 11.6194 22.4002 11.4114 22.4002 11.2013V10.1342C22.4002 9.99281 22.3455 9.85723 22.2483 9.75719C22.151 9.65715 22.019 9.60083 21.8814 9.60059Z" fill="#183087"/>
<path d="M26.0157 11.2107C26.016 11.2077 26.016 11.2046 26.0157 11.2016C26.0157 11.1925 26.0157 11.1861 26.0157 11.1778C25.9674 10.2245 25.8182 9.2794 25.5707 8.35921C25.1692 6.95944 24.331 5.73384 23.1849 4.87086C20.8346 2.97867 18.7042 2.12988 16.2747 2.12988C16.0834 2.12988 15.8903 2.13536 15.6927 2.1445C15.5147 2.15455 15.3367 2.17557 15.1588 2.19018C15.1463 2.19018 15.1365 2.18288 15.125 2.18288C15.0978 2.18589 15.071 2.1914 15.0449 2.19932C13.6759 2.33359 12.3154 2.54712 10.97 2.83888C10.3799 2.95844 9.79926 3.12274 9.23285 3.33043L9.19725 3.34322C8.32112 3.64042 7.52335 4.14061 6.86568 4.80508C6.22857 5.50956 5.72166 6.3272 5.36974 7.21805C5.35387 7.24715 5.34076 7.27775 5.33058 7.30942C5.29588 7.40078 5.25583 7.47936 5.22379 7.5689C5.0645 8.01293 4.81354 9.12212 4.77884 9.25642C4.66226 9.85304 4.37215 11.8987 5.55039 13.1852C6.29881 13.9974 7.44234 14.2998 8.94451 14.0805L9.32273 14.0257C9.44748 14.0064 9.56154 13.9423 9.64467 13.8449C9.7278 13.7474 9.77464 13.6229 9.77688 13.4934C9.77912 13.3639 9.73661 13.2377 9.6569 13.1373C9.57719 13.0369 9.46542 12.9687 9.34141 12.9449L8.79323 13.0253C8.47985 13.0726 8.16282 13.0894 7.84636 13.0755V12.8014C7.84636 12.6599 7.79161 12.5242 7.69414 12.4241C7.59668 12.3241 7.46449 12.2678 7.32665 12.2678C7.18882 12.2678 7.05663 12.3241 6.95916 12.4241C6.8617 12.5242 6.80695 12.6599 6.80695 12.8014V12.827C6.61699 12.7345 6.44485 12.6076 6.29881 12.4524C6.00149 12.0994 5.81097 11.665 5.75062 11.2025H6.28457C6.69784 11.2025 7.09418 11.034 7.38641 10.7339C7.67863 10.4339 7.8428 10.027 7.8428 9.6027C7.8428 9.46119 7.78805 9.32547 7.69058 9.22541C7.59312 9.12534 7.46093 9.06912 7.32309 9.06912C7.18526 9.06912 7.05307 9.12534 6.95561 9.22541C6.85814 9.32547 6.80339 9.46119 6.80339 9.6027C6.80339 9.74422 6.74863 9.87993 6.65117 9.98C6.5537 10.0801 6.42151 10.1363 6.28368 10.1363H5.71413C5.72835 9.91817 5.75599 9.70119 5.7969 9.48667C5.86542 9.18333 6.05586 8.36652 6.17778 8.0038H7.85526C7.9931 8.0038 8.12529 7.94758 8.22275 7.84752C8.32022 7.74745 8.37497 7.61173 8.37497 7.47022C8.37497 7.32871 8.32022 7.19299 8.22275 7.09292C8.12529 6.99286 7.9931 6.93664 7.85526 6.93664H6.65121C6.91385 6.43085 7.23931 5.96219 7.61944 5.5424C7.98709 5.16441 8.4182 4.85768 8.89201 4.63696V5.33409C8.89201 5.75838 9.05618 6.1653 9.34841 6.46533C9.64063 6.76535 10.037 6.9339 10.4502 6.9339C10.5202 6.93688 10.5901 6.92529 10.6556 6.89984C10.7212 6.87439 10.781 6.8356 10.8316 6.7858C10.8821 6.73601 10.9223 6.67623 10.9498 6.61006C10.9773 6.5439 10.9915 6.47271 10.9915 6.40078C10.9915 6.32885 10.9773 6.25767 10.9498 6.1915C10.9223 6.12534 10.8821 6.06556 10.8316 6.01576C10.781 5.96596 10.7212 5.92717 10.6556 5.90172C10.5901 5.87627 10.5202 5.86469 10.4502 5.86766C10.3127 5.86718 10.181 5.81075 10.0839 5.71074C9.98682 5.61072 9.93231 5.47528 9.93232 5.33409V4.21942C10.3417 4.08834 10.7576 3.97977 11.1782 3.89416C11.6231 3.80279 12.0734 3.71143 12.5291 3.63103V3.73427C12.5262 3.80614 12.5375 3.87786 12.5623 3.94514C12.587 4.01241 12.6248 4.07385 12.6733 4.12575C12.7218 4.17765 12.7801 4.21895 12.8445 4.24716C12.9089 4.27538 12.9783 4.28992 13.0483 4.28992C13.1184 4.28992 13.1877 4.27538 13.2522 4.24716C13.3166 4.21895 13.3749 4.17765 13.4234 4.12575C13.4719 4.07385 13.5096 4.01241 13.5344 3.94514C13.5592 3.87786 13.5705 3.80614 13.5676 3.73427V3.45377C13.9138 3.39987 14.26 3.35145 14.607 3.31216V3.73427C14.6023 3.87578 14.6525 4.01342 14.7467 4.11692C14.8408 4.22041 14.9711 4.28127 15.1089 4.28612C15.2468 4.29096 15.3808 4.2394 15.4816 4.14276C15.5824 4.04612 15.6417 3.91233 15.6464 3.77081C15.6464 3.75863 15.6464 3.74645 15.6464 3.73427V3.22353C15.6785 3.22353 15.7123 3.21714 15.7443 3.2144C16.0656 3.20069 16.3771 3.20069 16.685 3.2144V5.33409C16.685 5.4756 16.7397 5.61132 16.8372 5.71138C16.9347 5.81145 17.0668 5.86766 17.2047 5.86766H18.2432C18.3115 5.87006 18.3795 5.85864 18.4434 5.83404C18.5074 5.80944 18.566 5.77215 18.6159 5.7243C18.6658 5.67645 18.7061 5.61898 18.7343 5.55516C18.7626 5.49134 18.7784 5.42243 18.7807 5.35236C18.783 5.28229 18.7719 5.21243 18.748 5.14678C18.724 5.08112 18.6877 5.02095 18.6411 4.96971C18.5945 4.91847 18.5385 4.87715 18.4763 4.84812C18.4142 4.81909 18.347 4.80291 18.2788 4.80051H17.7244V3.33043C18.6332 3.48891 19.5119 3.79355 20.3283 4.23313C20.3283 4.24592 20.3211 4.25597 20.3211 4.26785V5.86766C20.3267 6.00524 20.3838 6.13528 20.4806 6.23061C20.5774 6.32594 20.7063 6.37916 20.8404 6.37916C20.9745 6.37916 21.1034 6.32594 21.2002 6.23061C21.297 6.13528 21.3541 6.00524 21.3597 5.86766V4.84893C21.7005 5.07552 22.0458 5.32312 22.3991 5.60179V6.9339C22.3991 7.07526 22.3445 7.21084 22.2472 7.31088C22.1499 7.41091 22.018 7.46724 21.8803 7.46748C21.7463 7.47318 21.6196 7.53184 21.5268 7.63119C21.4339 7.73055 21.3821 7.86291 21.3821 8.0006C21.3821 8.13829 21.4339 8.27065 21.5268 8.37001C21.6196 8.46937 21.7463 8.52802 21.8803 8.53372C22.2935 8.53372 22.6899 8.36517 22.9821 8.06514C23.2743 7.76512 23.4385 7.3582 23.4385 6.9339V6.56844C23.9665 7.1634 24.3538 7.87529 24.5705 8.64884C24.7468 9.30983 24.8659 9.98552 24.9264 10.668H23.9591C23.8251 10.6737 23.6984 10.7324 23.6056 10.8317C23.5127 10.9311 23.4609 11.0635 23.4609 11.2011C23.4609 11.3388 23.5127 11.4712 23.6056 11.5706C23.6984 11.6699 23.8251 11.7286 23.9591 11.7343H24.9878C24.9878 11.9088 24.9994 12.0824 24.9967 12.2578C24.9928 12.4394 24.9788 12.6206 24.9549 12.8005H23.9591C23.8213 12.8005 23.6891 12.8567 23.5916 12.9568C23.4942 13.0569 23.4394 13.1926 23.4394 13.3341C23.4394 13.4756 23.4942 13.6113 23.5916 13.7114C23.6891 13.8114 23.8213 13.8677 23.9591 13.8677H24.7191C24.5918 14.2555 24.4204 14.6266 24.2083 14.9732C23.8448 15.5332 23.3302 15.9723 22.7275 16.2368C21.7741 16.552 20.7461 16.5362 19.8023 16.192V15.4684C19.8023 15.3269 19.8571 15.1912 19.9545 15.0911C20.052 14.991 20.1842 14.9348 20.322 14.9348H21.8803C22.0143 14.9291 22.1409 14.8705 22.2338 14.7711C22.3266 14.6717 22.3785 14.5394 22.3785 14.4017C22.3785 14.264 22.3266 14.1316 22.2338 14.0323C22.1409 13.9329 22.0143 13.8743 21.8803 13.8686H20.3229C19.9097 13.8686 19.5133 14.0371 19.2211 14.3372C18.9289 14.6372 18.7647 15.0441 18.7647 15.4684V15.6338C18.067 15.1248 17.4159 14.5517 16.8193 13.9216C16.2162 13.2936 15.4481 12.8593 14.6088 12.6717V12.2669C14.6111 12.1969 14.6 12.127 14.5761 12.0613C14.5521 11.9957 14.5158 11.9355 14.4692 11.8843C14.375 11.7808 14.2447 11.7199 14.1069 11.7151C14.0386 11.7127 13.9706 11.7241 13.9067 11.7487C13.8427 11.7733 13.7841 11.8106 13.7342 11.8584C13.6334 11.9551 13.5741 12.0889 13.5694 12.2304C13.5694 12.2426 13.5694 12.2547 13.5694 12.2669V12.541C12.9969 12.541 12.425 12.5645 11.8536 12.6114C11.5306 12.6735 11.3268 12.9768 11.3669 13.2455C11.388 13.351 11.438 13.4482 11.511 13.5257C11.5839 13.6032 11.6769 13.6578 11.7789 13.6831C13.7687 13.462 14.9986 13.5826 16.0923 14.6836C16.369 14.9577 16.652 15.2464 16.9475 15.5214C16.6209 16.5767 16.1973 18.8279 17.9344 20.1619C19.8032 21.599 19.8032 21.9892 19.8032 22.9348C19.8028 23.026 19.8252 23.1157 19.8681 23.1954C19.9111 23.2752 19.9733 23.3423 20.0487 23.3904C20.1241 23.4385 20.2102 23.466 20.2989 23.4702C20.3875 23.4744 20.4758 23.4552 20.5552 23.4145C20.6913 23.3423 21.8821 22.6616 21.8821 20.2678C21.8821 18.9586 22.8325 17.8265 23.7696 16.8928L23.7856 16.8782C24.2944 16.5194 24.7346 16.0676 25.084 15.5451C25.4628 14.9347 25.7339 14.2604 25.8849 13.5534C25.9159 13.4847 25.932 13.4098 25.932 13.3341C25.9972 12.9836 26.0335 12.6282 26.0406 12.2715C26.0424 11.9152 26.0344 11.5634 26.0157 11.2107ZM20.8409 20.2688C20.8495 20.7121 20.7879 21.154 20.6584 21.5771C20.4146 20.9522 19.8575 20.308 18.5556 19.3076C17.5233 18.5136 17.5962 17.1943 17.8187 16.2678C18.7922 17.0698 19.9995 17.5131 21.2475 17.5269C21.4501 17.5268 21.6524 17.5146 21.8536 17.4903C21.2297 18.2777 20.8746 19.2534 20.8426 20.2678L20.8409 20.2688Z" fill="#183087"/>
</g>
<defs>
<clipPath id="clip0_189_587">
<rect width="28.1212" height="32" fill="white"/>
</clipPath>
</defs>
</svg>
