<svg width="32" height="32" viewBox="0 0 32 32" fill="none" xmlns="http://www.w3.org/2000/svg">
<g clip-path="url(#clip0_189_792)">
<path d="M26.8013 25.7541H24.7524C24.6866 25.7544 24.6216 25.7688 24.5614 25.7965C24.5013 25.8243 24.4474 25.8647 24.4031 25.9152L22.934 27.6115C22.8617 27.6984 22.8249 27.8112 22.8316 27.9259C22.8383 28.0406 22.8879 28.148 22.9699 28.2251C23.0519 28.3023 23.1597 28.3431 23.2703 28.3389C23.3809 28.3346 23.4855 28.2856 23.5617 28.2024L24.8783 26.6782C24.8917 26.663 24.908 26.6508 24.9261 26.6426C24.9443 26.6343 24.964 26.6302 24.9838 26.6303H26.8013C27.576 26.6274 28.3418 26.4587 29.051 26.1349C29.7601 25.8111 30.3974 25.339 30.923 24.7481C30.9621 24.7043 30.9918 24.6523 31.0102 24.5957C31.0285 24.5391 31.0351 24.479 31.0294 24.4196C31.0239 24.3581 31.0061 24.2985 30.977 24.2446C30.948 24.1907 30.9085 24.1437 30.8609 24.1066C30.7771 24.0416 30.673 24.0113 30.5688 24.0215C30.4646 24.0317 30.3677 24.0817 30.2971 24.1619C29.8508 24.662 29.3101 25.0614 28.7087 25.3354C28.1073 25.6093 27.458 25.7518 26.8013 25.7541Z" fill="#183087"/>
<path d="M22.8738 19.1125C23.8281 20.2198 24.9839 21.1203 26.2745 21.7624C27.5652 22.4044 28.9654 22.7754 30.3946 22.8539C30.4527 22.8572 30.5109 22.8482 30.5655 22.8273C30.6201 22.8064 30.6699 22.7741 30.712 22.7324C30.7535 22.6918 30.7865 22.6429 30.8091 22.5886C30.8316 22.5343 30.8433 22.4758 30.8432 22.4167C30.842 22.3046 30.7997 22.1972 30.725 22.1163C30.6502 22.0355 30.5486 21.9872 30.4407 21.9814C29.1235 21.9084 27.8331 21.5659 26.6438 20.9736C25.4544 20.3813 24.3895 19.5508 23.5103 18.5299L22.4748 17.3251C22.4302 17.2734 22.3755 17.2321 22.3144 17.2038C22.2533 17.1756 22.1871 17.1611 22.1202 17.1613H15.9762C15.6824 17.1601 15.3918 17.0989 15.1209 16.9811C14.8499 16.8633 14.604 16.6912 14.3972 16.4747C14.1964 16.2656 14.0381 16.017 13.9315 15.7433C13.8249 15.4697 13.7722 15.1766 13.7766 14.8815C13.7904 14.2938 14.0238 13.7347 14.4275 13.3225C14.8312 12.9102 15.3736 12.6772 15.9398 12.6726H25.2489C25.306 12.6753 25.3631 12.666 25.4166 12.6451C25.4701 12.6243 25.5191 12.5925 25.5604 12.5515C25.6017 12.5105 25.6346 12.4612 25.6571 12.4066C25.6796 12.3521 25.6912 12.2934 25.6912 12.234C25.6912 12.1747 25.6796 12.1159 25.6571 12.0614C25.6346 12.0068 25.6017 11.9575 25.5604 11.9165C25.5191 11.8756 25.4701 11.8437 25.4166 11.8229C25.3631 11.8021 25.306 11.7927 25.2489 11.7954H21.7558C21.7278 11.7949 21.7007 11.7858 21.6777 11.7692C21.6548 11.7527 21.6371 11.7294 21.6269 11.7024C21.6168 11.6753 21.6146 11.6458 21.6206 11.6174C21.6267 11.5891 21.6407 11.5633 21.6609 11.5433L25.2853 7.88012C25.3107 7.85432 25.3446 7.83951 25.3801 7.8387H30.4212C30.5299 7.83353 30.6325 7.78507 30.7077 7.70339C30.7828 7.62171 30.8248 7.51309 30.8248 7.40014C30.8248 7.28718 30.7828 7.17857 30.7077 7.09689C30.6325 7.01521 30.5299 6.96674 30.4212 6.96157H26.538C26.5101 6.96107 26.4829 6.95195 26.4599 6.93537C26.437 6.9188 26.4193 6.89552 26.4092 6.86849C26.399 6.84146 26.3968 6.8119 26.4028 6.78357C26.4089 6.75524 26.4229 6.72942 26.4431 6.70939L28.5044 4.62379C29.4974 3.62057 29.5249 1.83502 28.5638 0.804186C28.2036 0.431984 27.7483 0.174708 27.2516 0.0628125C26.7549 -0.0490833 26.2378 -0.0109144 25.7614 0.172801C25.0344 0.468245 24.5015 1.06466 23.9394 1.6942C23.794 1.85619 23.6442 2.0237 23.4962 2.18661C23.4229 2.26369 23.3799 2.36631 23.3754 2.4745C23.371 2.58269 23.4055 2.68872 23.4722 2.77197L23.4837 2.7867C23.5208 2.83365 23.5669 2.872 23.6192 2.89927C23.6714 2.92654 23.7285 2.94212 23.7869 2.94501C23.8463 2.94786 23.9057 2.93779 23.9611 2.91544C24.0165 2.89309 24.0668 2.85896 24.1088 2.81523C24.2737 2.64312 24.4324 2.45444 24.5831 2.27312C24.7072 2.12586 24.834 1.97768 24.9626 1.8295C25.5184 1.22112 26.0539 0.90911 26.6001 0.865852C26.8845 0.84787 27.1688 0.902964 27.4278 1.02626C27.6869 1.14955 27.9126 1.33724 28.0851 1.57271C28.3402 1.93037 28.4635 2.37106 28.4326 2.81495C28.4017 3.25883 28.2186 3.67654 27.9166 3.99241L20.2406 11.7513C20.2152 11.7771 20.1813 11.7919 20.1458 11.7927H15.9389C15.8757 11.7927 15.8125 11.7945 15.7492 11.7982C15.7206 11.8005 15.692 11.7935 15.6673 11.7782C15.6427 11.7628 15.6233 11.7399 15.6118 11.7126C15.5996 11.6855 15.5958 11.6551 15.6009 11.6256C15.6059 11.5961 15.6197 11.5689 15.6402 11.5479L22.536 4.39001C22.5808 4.35075 22.6173 4.30223 22.6431 4.24755C22.6688 4.19286 22.6834 4.13321 22.6858 4.07238C22.6882 4.01154 22.6784 3.95086 22.6569 3.89418C22.6355 3.83749 22.603 3.78606 22.5614 3.74313C22.5198 3.70021 22.4701 3.66674 22.4153 3.64484C22.3606 3.62295 22.3021 3.61311 22.2435 3.61595C22.1849 3.61879 22.1275 3.63425 22.075 3.66135C22.0225 3.68845 21.976 3.72659 21.9384 3.77335L18.9037 6.92016C18.8773 6.94756 18.8417 6.9631 18.8044 6.96341H14.9628C13.4851 6.96684 12.0688 7.57697 11.0229 8.66061L10.3588 9.34998C10.2797 9.43213 10.2353 9.54353 10.2353 9.65969C10.2353 9.77584 10.2797 9.88724 10.3588 9.9694C10.4378 10.0507 10.5446 10.0963 10.6558 10.0963C10.7671 10.0963 10.8738 10.0507 10.9528 9.9694L11.6062 9.29107C12.0505 8.82724 12.579 8.45949 13.1611 8.20908C13.7432 7.95868 14.3673 7.8306 14.9974 7.83226H17.6811C17.709 7.83223 17.7364 7.84083 17.7596 7.85697C17.7828 7.87311 17.8009 7.89605 17.8115 7.92288C17.8222 7.94971 17.8249 7.97922 17.8194 8.00766C17.8138 8.0361 17.8002 8.06219 17.7804 8.0826L8.42252 17.7991C8.25318 17.9775 8.0516 18.1194 7.82932 18.2167C7.60704 18.314 7.36845 18.3647 7.12722 18.3661C6.85638 18.3633 6.58972 18.2963 6.34758 18.1703C6.10544 18.0443 5.8942 17.8626 5.72997 17.639C5.54424 17.3872 5.4256 17.0892 5.38598 16.7747C5.34931 16.4937 5.37568 16.2077 5.46303 15.939C5.55038 15.6703 5.69635 15.4262 5.88956 15.2257L9.29934 11.6887C9.37324 11.6053 9.41324 11.4955 9.41098 11.3823C9.40872 11.269 9.36437 11.161 9.2872 11.0809C9.21004 11.0008 9.10604 10.9548 8.99694 10.9524C8.88784 10.9501 8.78208 10.9916 8.70179 11.0683L5.29555 14.6063C4.95452 14.9613 4.71481 15.4074 4.60296 15.8952C4.49111 16.3829 4.5115 16.8933 4.66185 17.3697C4.81221 17.8462 5.08666 18.2701 5.45483 18.5946C5.82299 18.9191 6.2705 19.1315 6.74777 19.2082C6.77361 19.2121 6.79791 19.2234 6.81795 19.2408C6.83799 19.2582 6.85298 19.281 6.86125 19.3067C6.86954 19.3324 6.8707 19.3601 6.86459 19.3864C6.85847 19.4128 6.84533 19.4368 6.82667 19.4558L0.137425 26.4047C0.093607 26.4499 0.0588898 26.5037 0.0352969 26.563C0.0117039 26.6222 -0.0002929 26.6858 5.43028e-06 26.7499V31.5138C-0.000106893 31.5776 0.0119817 31.6408 0.0355707 31.6998C0.0591597 31.7587 0.09378 31.8122 0.137425 31.8571C0.181773 31.9027 0.234361 31.9388 0.292175 31.9633C0.349988 31.9878 0.411889 32.0002 0.474326 31.9998C1.67008 31.9997 2.85395 31.7534 3.95741 31.2752C5.06087 30.797 6.06202 30.0963 6.90292 29.2138L9.50148 26.5161C9.54516 26.471 9.57979 26.4174 9.60337 26.3583C9.62696 26.2992 9.63904 26.2358 9.6389 26.1719V23.7549C9.63894 23.7354 9.64271 23.7161 9.65002 23.698C9.65733 23.68 9.66801 23.6637 9.68146 23.65L10.1407 23.1898C10.1593 23.1714 10.1824 23.1585 10.2075 23.1527C10.2327 23.1469 10.2588 23.1483 10.2832 23.1569C10.3076 23.1654 10.3293 23.1807 10.3459 23.2011C10.3625 23.2215 10.3734 23.2463 10.3774 23.2727C10.4727 23.9121 10.7859 24.4948 11.26 24.9149C11.7341 25.3349 12.3376 25.5644 12.9609 25.5617H13.3297C13.3498 25.5616 13.3697 25.566 13.388 25.5746C13.4063 25.5832 13.4226 25.5958 13.4358 25.6115C13.449 25.6272 13.4588 25.6457 13.4645 25.6657C13.4702 25.6857 13.4717 25.7067 13.4689 25.7273C13.4184 26.1402 13.46 26.5596 13.5905 26.9532C13.721 27.3467 13.937 27.7038 14.2217 27.9969C14.5064 28.2899 14.8522 28.5111 15.2323 28.6433C15.6125 28.7754 16.0169 28.8151 16.4142 28.7591C16.4356 28.7559 16.4575 28.7579 16.4781 28.765C16.4987 28.7721 16.5175 28.784 16.5329 28.7999C16.5482 28.8158 16.5599 28.8352 16.5668 28.8565C16.5737 28.8779 16.5758 28.9006 16.5728 28.9229C16.5583 29.038 16.5509 29.1539 16.5507 29.2699V29.2856C16.5507 30.7582 17.6828 31.9814 19.0748 32.0062H19.12C19.4813 32.0044 19.8382 31.9236 20.1674 31.7689C20.4966 31.6143 20.7907 31.3894 21.0306 31.1088L22.2532 29.7025C22.3256 29.6156 22.3623 29.5027 22.3556 29.3881C22.3489 29.2734 22.2993 29.166 22.2173 29.0888C22.1353 29.0116 22.0275 28.9708 21.9169 28.9751C21.8063 28.9793 21.7017 29.0283 21.6255 29.1116L20.4029 30.5216C20.2444 30.7027 20.0519 30.8482 19.8372 30.9492C19.6225 31.0502 19.3902 31.1045 19.1546 31.1088C18.9282 31.1129 18.7032 31.0697 18.4932 30.9818C18.2832 30.8939 18.0923 30.7631 17.932 30.5971C17.764 30.4247 17.6305 30.2194 17.5392 29.9932C17.4479 29.7671 17.4006 29.5244 17.4 29.2791C17.3985 29.036 17.4435 28.795 17.5326 28.5701C17.6216 28.3453 17.7529 28.1411 17.9187 27.9694L22.0856 23.6436C22.1276 23.6035 22.1613 23.555 22.1847 23.5011C22.2082 23.4471 22.2208 23.3888 22.222 23.3296C22.2232 23.2705 22.2129 23.2117 22.1916 23.1567C22.1703 23.1018 22.1386 23.052 22.0983 23.0101C22.0579 22.9683 22.0099 22.9353 21.957 22.9132C21.9041 22.8911 21.8475 22.8804 21.7905 22.8816C21.7335 22.8828 21.6773 22.896 21.6253 22.9204C21.5733 22.9447 21.5267 22.9797 21.488 23.0232L17.3211 27.361C17.1154 27.5745 16.8622 27.7322 16.5839 27.8202C16.3056 27.9082 16.0107 27.9237 15.7253 27.8654C15.4861 27.8175 15.2596 27.7167 15.0612 27.57C14.8483 27.4164 14.6704 27.2162 14.54 26.9835C14.4097 26.7508 14.3301 26.4913 14.3068 26.2232C14.2836 25.9551 14.3172 25.6849 14.4055 25.4318C14.4937 25.1787 14.6343 24.9488 14.8174 24.7582L18.9843 20.4324C19.0582 20.349 19.0982 20.2392 19.096 20.1259C19.0937 20.0127 19.0494 19.9047 18.9722 19.8246C18.895 19.7445 18.791 19.6985 18.6819 19.6961C18.5728 19.6938 18.4671 19.7353 18.3868 19.812L14.1977 24.1599C14.0405 24.324 13.8534 24.4538 13.6472 24.5418C13.4411 24.6298 13.2201 24.6743 12.9973 24.6726C12.5382 24.6786 12.0942 24.5025 11.7561 24.1802C11.4497 23.8857 11.2539 23.488 11.2034 23.0577C11.1529 22.6275 11.2511 22.1926 11.4803 21.8304C11.4864 21.821 11.4935 21.8123 11.5016 21.8046L15.2492 18.0219C15.2653 18.0055 15.2851 17.9935 15.3067 17.9867C15.3283 17.98 15.3511 17.9788 15.3733 17.9832C15.5609 18.0206 15.7515 18.0394 15.9425 18.0393H21.8959C21.9158 18.0393 21.9355 18.0436 21.9537 18.052C21.9718 18.0604 21.9881 18.0727 22.0014 18.0881L22.8738 19.1125ZM14.3041 17.7485L8.9323 23.1788C8.88781 23.2244 8.85246 23.2787 8.82826 23.3386C8.80407 23.3984 8.79152 23.4627 8.79133 23.5276V25.9492C8.79104 25.9879 8.77607 26.0249 8.74967 26.0522L6.3027 28.5925C4.88794 30.0743 3.00083 30.9691 0.995635 31.1088H0.985883C0.948568 31.1086 0.912847 31.0931 0.886461 31.0657C0.860075 31.0383 0.845149 31.0012 0.844916 30.9625V26.9726C0.844968 26.9534 0.848676 26.9344 0.855828 26.9168C0.86298 26.8991 0.873433 26.883 0.886586 26.8695L12.6958 14.6072C12.7161 14.5859 12.7421 14.5714 12.7705 14.5659C12.7989 14.5604 12.8282 14.5641 12.8545 14.5764C12.8808 14.5888 12.9028 14.6092 12.9175 14.635C12.9323 14.6607 12.9391 14.6905 12.937 14.7204C12.905 15.2691 13.0128 15.8168 13.2495 16.3085C13.4863 16.8001 13.8436 17.2184 14.2855 17.5212C14.3031 17.5331 14.318 17.5489 14.3289 17.5676C14.3399 17.5863 14.3466 17.6073 14.3487 17.6291C14.3507 17.6508 14.348 17.6728 14.3407 17.6933C14.3335 17.7138 14.3219 17.7324 14.3067 17.7476L14.3041 17.7485Z" fill="#183087"/>
<path d="M23.4792 5.08045L23.0164 5.5609C22.9987 5.57935 22.9888 5.60434 22.9888 5.63039C22.9888 5.65643 22.9987 5.68142 23.0164 5.69988L23.7815 6.49509C23.7993 6.51347 23.8234 6.52379 23.8485 6.52379C23.8736 6.52379 23.8976 6.51347 23.9154 6.49509L24.3809 6.01465C24.3986 5.99619 24.4085 5.9712 24.4085 5.94516C24.4085 5.91911 24.3986 5.89413 24.3809 5.87567L23.6166 5.08045C23.5988 5.06208 23.5748 5.05176 23.5497 5.05176C23.5246 5.05176 23.5005 5.06208 23.4828 5.08045H23.4792Z" fill="#183087"/>
<path d="M21.4331 7.24125C21.433 7.25422 21.4354 7.26707 21.4401 7.27907C21.4448 7.29108 21.4518 7.302 21.4606 7.3112L22.2266 8.10642C22.2444 8.1248 22.2684 8.13511 22.2935 8.13511C22.3186 8.13511 22.3427 8.1248 22.3605 8.10642L22.8233 7.62598C22.841 7.60752 22.8509 7.58253 22.8509 7.55649C22.8509 7.53044 22.841 7.50545 22.8233 7.487L22.0617 6.69178C22.0439 6.6734 22.0198 6.66309 21.9948 6.66309C21.9697 6.66309 21.9456 6.6734 21.9278 6.69178L21.465 7.17222C21.4555 7.18094 21.4478 7.19153 21.4423 7.20339C21.4369 7.21524 21.4337 7.22812 21.4331 7.24125Z" fill="#183087"/>
<path d="M25.0304 3.46895L24.5671 3.94989C24.53 3.98835 24.53 4.05071 24.5671 4.08917L25.3338 4.88511C25.3708 4.92357 25.4309 4.92357 25.4679 4.88511L25.9312 4.40416C25.9683 4.3657 25.9683 4.30335 25.9312 4.26489L25.1645 3.46894C25.1275 3.43049 25.0674 3.43049 25.0304 3.46895Z" fill="#183087"/>
<path d="M19.9153 8.7835C19.8976 8.80195 19.8877 8.82694 19.8877 8.85299C19.8877 8.87903 19.8976 8.90402 19.9153 8.92248L20.6743 9.71677C20.692 9.73515 20.7161 9.74547 20.7412 9.74547C20.7663 9.74547 20.7903 9.73515 20.8081 9.71677L21.2709 9.23633C21.2886 9.21787 21.2986 9.19288 21.2986 9.16684C21.2986 9.14079 21.2886 9.1158 21.2709 9.09735L20.5049 8.30213C20.4871 8.28376 20.4631 8.27344 20.438 8.27344C20.4129 8.27344 20.3888 8.28376 20.371 8.30213L19.9153 8.7835Z" fill="#183087"/>
<path d="M19.7255 10.7077L18.9595 9.91249C18.9417 9.89411 18.9177 9.88379 18.8926 9.88379C18.8675 9.88379 18.8434 9.89411 18.8256 9.91249L18.3628 10.3929C18.3451 10.4114 18.3352 10.4364 18.3352 10.4624C18.3352 10.4885 18.3451 10.5134 18.3628 10.5319L19.1289 11.3271C19.1466 11.3455 19.1707 11.3558 19.1958 11.3558C19.2209 11.3558 19.2449 11.3455 19.2627 11.3271L19.7264 10.8467C19.744 10.8281 19.7538 10.803 19.7536 10.777C19.7534 10.751 19.7433 10.726 19.7255 10.7077Z" fill="#183087"/>
<path d="M11.6372 17.5141L12.4032 18.3093C12.421 18.3277 12.4451 18.338 12.4701 18.338C12.4952 18.338 12.5193 18.3277 12.5371 18.3093L13.0008 17.828C13.0185 17.8095 13.0284 17.7845 13.0284 17.7585C13.0284 17.7324 13.0185 17.7074 13.0008 17.689L12.2348 16.8938C12.217 16.8757 12.1931 16.8655 12.1683 16.8652C12.1433 16.8653 12.1195 16.8756 12.1018 16.8938L11.639 17.3742C11.6213 17.3927 11.6113 17.4176 11.6113 17.4437C11.6113 17.4697 11.6213 17.4947 11.639 17.5132L11.6372 17.5141Z" fill="#183087"/>
<path d="M10.5503 18.5057L10.0875 18.9862C10.0698 19.0046 10.0598 19.0296 10.0598 19.0557C10.0598 19.0817 10.0698 19.1067 10.0875 19.1251L10.8535 19.9204C10.8712 19.9387 10.8953 19.9491 10.9204 19.9491C10.9455 19.9491 10.9696 19.9387 10.9873 19.9204L11.4501 19.4399C11.4678 19.4215 11.4778 19.3965 11.4778 19.3704C11.4778 19.3444 11.4678 19.3194 11.4501 19.3009L10.6841 18.5048C10.6662 18.4865 10.6421 18.4764 10.617 18.4766C10.5919 18.4767 10.5679 18.4872 10.5503 18.5057Z" fill="#183087"/>
<path d="M6.99599 24.6057L4.4781 26.8929C3.83177 27.4817 3.09444 27.9531 2.29711 28.2873C2.24348 28.3076 2.19436 28.339 2.15273 28.3796C2.1111 28.4202 2.07782 28.4691 2.05489 28.5234C2.03195 28.5777 2.01985 28.6362 2.01931 28.6955C2.01876 28.7548 2.02978 28.8135 2.05171 28.8683C2.07364 28.923 2.10602 28.9726 2.1469 29.0139C2.18777 29.0553 2.2363 29.0877 2.28955 29.1091C2.3428 29.1305 2.39968 29.1405 2.45675 29.1384C2.51381 29.1364 2.56989 29.1224 2.6216 29.0972C3.50343 28.7264 4.31893 28.2043 5.03399 27.5528L7.55187 25.2657C7.59361 25.2277 7.62774 25.1816 7.65231 25.1299C7.67689 25.0783 7.69142 25.0221 7.69508 24.9647C7.69875 24.9072 7.69147 24.8495 7.67367 24.795C7.65586 24.7404 7.62788 24.69 7.59133 24.6467C7.55477 24.6034 7.51035 24.5679 7.4606 24.5424C7.41085 24.5169 7.35675 24.5018 7.30138 24.498C7.24602 24.4942 7.19048 24.5018 7.13792 24.5203C7.08537 24.5387 7.03684 24.5678 6.9951 24.6057H6.99599Z" fill="#183087"/>
</g>
<defs>
<clipPath id="clip0_189_792">
<rect width="31.0303" height="32" fill="white"/>
</clipPath>
</defs>
</svg>
