<svg width="27" height="32" viewBox="0 0 27 32" fill="none" xmlns="http://www.w3.org/2000/svg">
<g clip-path="url(#clip0_189_880)">
<path d="M10.4823 2.09035C10.2036 2.57631 9.93946 3.06094 9.65074 3.53127C9.11721 4.40319 8.57581 5.27022 8.02654 6.13238C7.56819 6.85584 7.09819 7.57164 6.63418 8.29111C6.17017 9.01057 5.69818 9.72405 5.24781 10.4512C4.90754 11.0003 4.57924 11.5585 4.27489 12.1282C3.79591 13.0263 3.31893 13.9244 2.88319 14.8428C2.45255 15.7573 2.1022 16.7075 1.83609 17.6827C1.51079 18.8629 1.30656 20.0573 1.28594 21.2814C1.26664 22.1129 1.36076 22.9433 1.56567 23.7494C1.71529 24.3254 1.91991 24.8857 2.1767 25.4225C2.40891 25.922 2.68919 26.3977 3.01358 26.8428C3.39244 27.3517 3.77429 27.8587 4.27755 28.2575C4.45018 28.3945 4.62115 28.5339 4.79478 28.6696C5.05888 28.8752 5.31034 29.102 5.59307 29.2776C6.47984 29.8338 7.42848 30.2562 8.45363 30.4817C9.80912 30.787 11.2162 30.7813 12.5691 30.4649C13.9221 30.1485 15.1858 29.5297 16.2653 28.655C17.1537 27.9391 17.8918 27.094 18.4493 26.1044C18.7383 25.5912 18.9589 25.0373 19.1811 24.4902C19.3427 24.0937 19.6467 23.958 19.9893 24.0578C20.3459 24.1606 20.5215 24.5148 20.3995 24.8784C20.178 25.5523 19.8819 26.1994 19.5167 26.8076C17.8624 29.5382 15.467 31.2061 12.3304 31.8112C11.5025 31.9722 10.6629 32.0441 9.81672 31.9712C8.22977 31.8322 6.719 31.4284 5.33861 30.6191C2.46375 28.9327 0.715154 26.449 0.144373 23.158C-0.118066 21.6473 0.00467158 20.1428 0.293056 18.648C0.640647 16.8458 1.29325 15.1495 2.09221 13.5046C3.04085 11.5528 4.19107 9.71839 5.36057 7.89495C6.46122 6.17895 7.56752 4.46661 8.6379 2.73231C9.09958 1.98457 9.47977 1.18661 9.89256 0.408938C10.0186 0.171778 10.1989 0.00579891 10.4703 0.000144316C10.7497 -0.00551028 10.9377 0.155479 11.069 0.399292C11.542 1.28307 11.9881 2.18415 12.51 3.03832C13.4137 4.51717 14.367 5.96541 15.3 7.42895C15.6815 8.02767 16.0674 8.6214 16.4466 9.22046C16.6388 9.52481 16.5646 9.89468 16.2826 10.0896C15.9746 10.3028 15.626 10.2582 15.4131 9.94491C15.0502 9.41072 14.7083 8.86222 14.3564 8.32004C13.7393 7.37007 13.117 6.42409 12.5056 5.46913C12.1267 4.87773 11.7572 4.28034 11.3973 3.67696C11.0953 3.17104 10.8133 2.65281 10.5222 2.14057C10.5104 2.12273 10.497 2.10592 10.4823 2.09035Z" fill="#183087"/>
<path d="M16.7026 14.7262C16.5473 14.7964 16.4192 14.8473 16.2971 14.9102C15.9093 15.1097 15.5268 15.319 15.1363 15.5129C14.8213 15.6692 14.4587 15.5355 14.2881 15.2169C14.2123 15.0698 14.1967 14.8991 14.2445 14.7408C14.2923 14.5824 14.3998 14.4489 14.5442 14.3683C14.8955 14.1708 15.2547 13.9865 15.6159 13.8082C15.7573 13.7383 15.7456 13.6781 15.6592 13.572C15.5141 13.3944 15.3335 13.2394 15.2933 12.9926C15.2755 12.8697 15.2924 12.7444 15.3421 12.6306C15.3918 12.5169 15.4724 12.4193 15.5747 12.349C15.7939 12.2069 16.1099 12.1966 16.2891 12.3596C16.4618 12.5166 16.6081 12.7032 16.7618 12.8802C17.0302 13.1895 17.294 13.5012 17.5711 13.8228C17.6213 13.7896 17.6632 13.7676 17.7011 13.7393C18.1888 13.3774 18.7276 13.1306 19.327 13.0259C19.4541 13.0039 19.491 12.9517 19.5226 12.82C19.6044 12.482 19.4986 12.2485 19.2442 12.0263C18.9611 11.7795 18.712 11.4941 18.4489 11.2237C18.1715 10.9367 18.1631 10.5452 18.4262 10.2904C18.6814 10.0432 19.0692 10.0639 19.3476 10.3403C19.468 10.4597 19.5881 10.5798 19.7268 10.7185C19.7434 10.6047 19.7564 10.5149 19.7697 10.4251C19.8213 10.0732 20.1126 9.838 20.4579 9.86894C20.7965 9.89954 21.0443 10.1899 21.0127 10.5531C20.9585 11.1712 20.8877 11.7875 20.8238 12.4049C20.8065 12.5712 20.7835 12.7352 20.7772 12.9008C20.7756 12.943 20.8198 13.0156 20.8567 13.0259C21.8074 13.2989 21.9544 13.3721 22.7647 13.9998C22.8694 13.8614 22.9755 13.7234 23.08 13.584C23.4349 13.1097 23.7865 12.6327 24.1444 12.161C24.3972 11.8284 24.7747 11.7682 25.0731 12.004C25.3571 12.2286 25.3834 12.6121 25.1376 12.9354C24.9876 13.1333 24.8382 13.3325 24.6792 13.5451L25.4456 14.1395C25.564 14.231 25.6831 14.3211 25.8012 14.4129C26.0942 14.6414 26.1494 15.0259 25.9306 15.311C25.7197 15.5864 25.3355 15.6356 25.0418 15.4158C24.7002 15.1603 24.3646 14.8969 24.026 14.6374C23.9957 14.6141 23.9634 14.5938 23.9179 14.5622C23.8088 14.7073 23.6993 14.8446 23.6009 14.9897C23.5912 15.0105 23.5862 15.0332 23.5862 15.0562C23.5862 15.0792 23.5912 15.1019 23.6009 15.1227C23.8835 15.6844 24.0272 16.3058 24.02 16.9345C24.02 17.0207 24.0492 17.0573 24.1311 17.0882C25.3199 17.5379 25.9369 18.4932 25.8607 19.7595C25.8514 19.9142 25.8421 20.0692 25.8274 20.2252C25.7942 20.5821 25.4932 20.8448 25.1519 20.8176C24.7973 20.789 24.5492 20.4849 24.5698 20.1154C24.5854 19.8396 24.6243 19.5586 24.5884 19.2882C24.5252 18.8138 24.2342 18.4939 23.7785 18.2936C23.368 19.3294 22.6569 20.0695 21.644 20.5421C21.8506 20.8378 22.0492 21.1163 22.2428 21.399C22.4756 21.7389 22.4131 22.1364 22.1037 22.334C21.8044 22.5239 21.4431 22.4507 21.2263 22.1464C20.9502 21.7582 20.6848 21.3624 20.4074 20.9752C20.3691 20.9213 20.2886 20.8631 20.2291 20.8645C19.7472 20.8812 19.2661 20.8126 18.8081 20.6619C18.7965 20.6828 18.7812 20.6971 18.7822 20.7098C18.8314 21.2602 18.8814 21.8105 18.9322 22.3609C18.9654 22.7291 18.706 23.0594 18.3481 23.103C17.9988 23.1449 17.6812 22.8861 17.6446 22.5086C17.597 22.018 17.5661 21.5257 17.5275 21.0344C17.4999 20.6872 17.4746 20.3399 17.4397 19.9937C17.4282 19.9257 17.3987 19.862 17.3542 19.8094C17.1134 19.5024 16.8553 19.2073 16.6284 18.8903C16.5466 18.7762 16.4824 18.761 16.373 18.8085C15.7506 19.0776 15.131 19.3524 14.5056 19.6138C14.02 19.8167 13.6235 19.6118 13.541 19.1315C13.5193 19.0024 13.5404 18.8697 13.6011 18.7536C13.6617 18.6376 13.7586 18.5445 13.877 18.4885C14.3007 18.289 14.7331 18.109 15.1629 17.9231C15.4513 17.7987 15.744 17.6842 16.0277 17.5525C16.0726 17.5319 16.1145 17.4404 16.1099 17.3862C16.0573 16.8114 16.0949 16.2447 16.2818 15.6982C16.3933 15.3858 16.5449 15.0901 16.7026 14.7262ZM20.0794 14.2223C18.6009 14.2163 17.3888 15.4071 17.3821 16.8723C17.3752 18.3841 18.5506 19.5805 20.0571 19.5942C21.5349 19.6078 22.748 18.4087 22.755 16.9272C22.7587 16.5734 22.6922 16.2224 22.5594 15.8945C22.4266 15.5666 22.2302 15.2682 21.9814 15.0167C21.7326 14.7652 21.4364 14.5655 21.1099 14.4291C20.7834 14.2928 20.4332 14.2225 20.0794 14.2223Z" fill="#183087"/>
<path d="M11.1237 22.0946V22.5753C11.1237 23.1351 11.1253 23.6945 11.1237 24.2543C11.1237 24.6059 10.8709 24.8863 10.5452 24.9043C10.172 24.9252 9.88897 24.6917 9.85171 24.3235C9.83774 24.1862 9.8424 24.0471 9.8414 23.9087C9.83708 23.338 9.83242 22.7675 9.83109 22.1971C9.83109 22.1109 9.81612 22.0683 9.71268 22.0687C9.12626 22.0723 8.53951 22.0687 7.9531 22.0653C7.79477 22.0653 7.62979 22.0813 7.47911 22.0447C7.16013 21.9669 6.97419 21.6605 7.01843 21.3349C7.05901 21.0355 7.33741 20.7907 7.65607 20.7884C8.3263 20.7834 8.99687 20.7804 9.66711 20.7884C9.80016 20.7884 9.83741 20.7551 9.83674 20.6221C9.83309 19.9685 9.84074 19.3146 9.8414 18.6596C9.8414 18.3603 9.94851 18.1327 10.2389 18.0157C10.6713 17.8404 11.1107 18.1288 11.124 18.5984C11.1263 18.6872 11.124 18.7757 11.124 18.8645C11.124 19.4509 11.1267 20.0377 11.124 20.6244C11.124 20.7478 11.1699 20.7857 11.2903 20.7851C11.9499 20.7814 12.6092 20.7851 13.2687 20.7851C13.606 20.7851 13.8392 20.958 13.934 21.2734C14.0132 21.5345 13.9037 21.8155 13.6386 21.9849C13.5579 22.0321 13.466 22.0569 13.3725 22.0567C12.8017 22.0644 12.231 22.0607 11.6605 22.0653C11.4912 22.0687 11.3209 22.084 11.1237 22.0946Z" fill="#183087"/>
</g>
<defs>
<clipPath id="clip0_189_880">
<rect width="26.0653" height="32" fill="white"/>
</clipPath>
</defs>
</svg>
