<svg width="32" height="28" viewBox="0 0 32 28" fill="none" xmlns="http://www.w3.org/2000/svg">
<g clip-path="url(#clip0_189_983)">
<path d="M32.0002 21.0948C31.9929 22.2852 31.8705 23.4721 31.6345 24.639C31.5488 25.0753 31.3541 25.4829 31.0686 25.8239C30.783 26.1648 30.4159 26.428 30.0014 26.589C29.2485 26.9172 28.4386 27.0945 27.6175 27.1106C25.0658 27.2148 22.53 26.6643 20.2512 25.5116C19.3725 25.083 18.6137 24.4431 18.0428 23.6494C17.4719 22.8556 17.1068 21.9327 16.9801 20.9632C16.7561 19.6214 16.7118 18.2557 16.8484 16.9022C16.9801 15.4982 17.1604 14.0991 17.3359 12.6999C17.34 12.6012 17.3645 12.5043 17.4078 12.4155C17.4511 12.3266 17.5123 12.2477 17.5876 12.1837C17.6629 12.1196 17.7506 12.0718 17.8453 12.0433C17.9399 12.0148 18.0394 12.0062 18.1375 12.018C18.2357 12.0298 18.3303 12.0618 18.4155 12.1119C18.5007 12.1621 18.5745 12.2293 18.6325 12.3093C18.6904 12.3894 18.7312 12.4806 18.7522 12.5772C18.7732 12.6738 18.774 12.7736 18.7546 12.8705C18.6132 14.0552 18.4523 15.2398 18.3353 16.4293C18.1516 17.8306 18.1729 19.2512 18.3987 20.6463C18.5054 21.2011 18.6687 21.7434 18.8862 22.2648C19.3031 23.1646 20.0349 23.8808 20.9435 24.2782C22.4906 25.0596 24.1741 25.5347 25.9014 25.6774C26.7618 25.784 27.6335 25.7561 28.4852 25.5945C28.8518 25.5129 29.2094 25.3954 29.5529 25.2435C29.7314 25.1626 29.8867 25.038 30.0043 24.8812C30.1219 24.7244 30.198 24.5405 30.2256 24.3465C30.8652 21.3252 30.6198 18.1836 29.5188 15.2983C28.5536 12.7679 27.1418 10.4314 25.3506 8.40009C24.622 7.56094 23.8369 6.77259 23.0008 6.04056C22.7536 5.81756 22.4582 5.65486 22.1376 5.5652C21.8171 5.47554 21.4801 5.46137 21.1531 5.5238C20.896 5.55914 20.6521 5.65905 20.4441 5.81421C20.2361 5.96937 20.0708 6.17471 19.9636 6.41106C19.715 6.93757 19.5297 7.49333 19.3298 8.03934C19.3031 8.13137 19.2582 8.21714 19.1979 8.29164C19.1377 8.36615 19.0631 8.4279 18.9787 8.47328C18.8943 8.51867 18.8017 8.54678 18.7063 8.55598C18.6109 8.56517 18.5146 8.55527 18.4231 8.52685C18.2627 8.48026 18.1248 8.37688 18.0351 8.23603C17.9454 8.09518 17.91 7.92649 17.9356 7.76146C18.1045 6.82333 18.4919 5.93817 19.0666 5.17767C19.4159 4.75483 19.8693 4.43037 20.3823 4.2363C20.8953 4.04223 21.4499 3.98527 21.9916 4.07103C22.7189 4.14706 23.4025 4.45468 23.9417 4.94854C26.9956 7.59092 29.3599 10.9374 30.8301 14.6987C31.6009 16.7432 31.9972 18.9098 32.0002 21.0948Z" fill="#183087"/>
<path d="M15.22 18.0374C15.2603 19.2213 15.1406 20.4053 14.8642 21.5572C14.6762 22.3556 14.3173 23.1037 13.8123 23.7501C13.3074 24.3965 12.6683 24.9257 11.9391 25.3013C10.3217 26.1562 8.55952 26.7034 6.74228 26.9149C5.53792 27.0946 4.31197 27.0716 3.11522 26.8467C2.47906 26.7321 1.8753 26.481 1.34557 26.1105C0.849987 25.7612 0.502361 25.2398 0.370557 24.648C-0.414469 20.9484 0.00404092 17.0947 1.56495 13.6498C3.05516 10.2353 5.29842 7.20207 8.1268 4.77719C8.65531 4.31844 9.30826 4.02715 10.0027 3.94034C10.6971 3.85354 11.4017 3.97514 12.0269 4.28968C12.7596 4.70327 13.32 5.36566 13.6064 6.15684C13.7868 6.60047 13.9233 7.0636 14.0598 7.52673C14.0872 7.61667 14.0963 7.71119 14.0865 7.80471C14.0767 7.89822 14.0483 7.98882 14.0028 8.07112C13.9573 8.15342 13.8958 8.22575 13.8218 8.28381C13.7479 8.34187 13.663 8.38449 13.5723 8.40912C13.4798 8.43634 13.3827 8.4446 13.2869 8.43341C13.1911 8.42223 13.0986 8.39183 13.0148 8.34404C12.9311 8.29624 12.8578 8.23204 12.7995 8.15526C12.7411 8.07849 12.6989 7.99073 12.6753 7.89724C12.5631 7.55111 12.451 7.20498 12.334 6.86372C12.2838 6.72933 12.2235 6.59896 12.1536 6.47372C12.0282 6.19815 11.8394 5.95614 11.6027 5.76742C11.3659 5.5787 11.0879 5.44861 10.7914 5.38777C10.4948 5.32693 10.188 5.33707 9.89608 5.41735C9.60415 5.49762 9.33534 5.64577 9.11157 5.84971C8.58992 6.28767 8.09196 6.75308 7.6198 7.24398C5.67658 9.2105 4.09558 11.5044 2.94947 14.0203C1.91714 16.2598 1.39751 18.7014 1.42845 21.1672C1.45348 22.1879 1.56931 23.2043 1.77458 24.2044C1.80893 24.4006 1.89028 24.5855 2.01168 24.7434C2.13309 24.9014 2.29093 25.0275 2.47171 25.1111C2.90322 25.3225 3.36859 25.4562 3.84649 25.506C5.56471 25.6944 7.30335 25.5132 8.94582 24.9746C9.68195 24.7382 10.4004 24.4498 11.0957 24.1117C11.7314 23.817 12.2856 23.3717 12.7104 22.8144C13.1351 22.2572 13.4176 21.6048 13.5333 20.9137C13.7731 19.7535 13.8437 18.5646 13.7429 17.3841C13.621 15.9216 13.4358 14.4591 13.2798 12.9966C13.2798 12.8796 13.2456 12.7626 13.2408 12.6456C13.2333 12.4654 13.2941 12.289 13.4109 12.1516C13.5278 12.0143 13.6921 11.926 13.8712 11.9045C14.0503 11.8829 14.2309 11.9297 14.377 12.0354C14.5231 12.1412 14.6239 12.2981 14.6594 12.4749C14.9492 14.3173 15.1364 16.1743 15.22 18.0374Z" fill="#183087"/>
<path d="M15.9415 8.81422C15.7416 9.0336 15.5856 9.2091 15.4199 9.37485C14.3441 10.4539 13.2667 11.5329 12.1877 12.6119C12.0771 12.7421 11.9244 12.8295 11.7561 12.8589C11.5878 12.8883 11.4145 12.8578 11.2663 12.7728C11.1285 12.696 11.0213 12.5741 10.9627 12.4277C10.9042 12.2812 10.8977 12.119 10.9445 11.9684C10.9956 11.8221 11.0809 11.6901 11.1932 11.5833C12.4737 10.2832 13.7607 8.99622 15.0542 7.7222C15.1122 7.66845 15.1575 7.60255 15.187 7.52923C15.2165 7.45591 15.2294 7.37697 15.2249 7.29807C15.2249 5.12703 15.2249 2.956 15.2249 0.784966C15.2213 0.690856 15.2364 0.596974 15.2691 0.50868C15.3019 0.420387 15.3517 0.33941 15.4158 0.270375C15.4798 0.201339 15.5569 0.145596 15.6425 0.106329C15.7281 0.0670612 15.8206 0.0450382 15.9147 0.0415171C16.0088 0.037996 16.1027 0.0530457 16.191 0.0858069C16.2793 0.118568 16.3602 0.168399 16.4293 0.232455C16.4983 0.296511 16.554 0.373538 16.5933 0.459137C16.6326 0.544735 16.6546 0.63723 16.6581 0.73134C16.6581 1.21885 16.6581 1.74536 16.6581 2.25236C16.6581 3.94889 16.6581 5.66492 16.6581 7.34194C16.6546 7.4084 16.6659 7.47481 16.6911 7.53636C16.7164 7.59792 16.7551 7.65307 16.8044 7.69782L20.9628 11.8611C21.0868 11.9697 21.1699 12.1174 21.1982 12.2797C21.2266 12.442 21.1986 12.6091 21.1188 12.7533C21.0467 12.8901 20.9303 12.9984 20.7885 13.0604C20.6468 13.1224 20.4883 13.1345 20.3388 13.0945C20.1849 13.05 20.0454 12.966 19.9342 12.8508C18.652 11.5833 17.3845 10.3109 16.1121 9.0336C16.0503 8.96441 15.9933 8.89111 15.9415 8.81422Z" fill="#183087"/>
<path d="M20.2463 16.5754V14.328C20.2382 14.2291 20.2507 14.1296 20.2831 14.0358C20.3155 13.942 20.367 13.8559 20.4343 13.783C20.5017 13.7102 20.5835 13.6521 20.6745 13.6125C20.7655 13.5729 20.8637 13.5526 20.9629 13.5529C21.0606 13.5508 21.1576 13.5688 21.248 13.6058C21.3384 13.6428 21.4202 13.698 21.4883 13.7679C21.5564 13.8379 21.6094 13.9211 21.644 14.0124C21.6786 14.1038 21.694 14.2012 21.6893 14.2988C21.6893 15.8133 21.6893 17.3262 21.6893 18.8375C21.6893 18.9316 21.6708 19.0248 21.6348 19.1117C21.5987 19.1987 21.546 19.2777 21.4794 19.3442C21.4129 19.4108 21.3339 19.4636 21.2469 19.4996C21.16 19.5356 21.0668 19.5541 20.9727 19.5541C20.8786 19.5541 20.7854 19.5356 20.6984 19.4996C20.6115 19.4636 20.5325 19.4108 20.4659 19.3442C20.3994 19.2777 20.3466 19.1987 20.3106 19.1117C20.2746 19.0248 20.256 18.9316 20.256 18.8375L20.2463 16.5754Z" fill="#183087"/>
<path d="M22.7861 12.8701C22.6139 12.8736 22.4461 12.8149 22.3136 12.7048C22.1811 12.5947 22.0927 12.4405 22.0646 12.2705C22.0325 12.1018 22.0647 11.9271 22.155 11.7809C22.2452 11.6348 22.3869 11.5277 22.5521 11.4808C23.3354 11.2662 24.1219 11.0631 24.9117 10.8714C25.0819 10.8366 25.2589 10.8675 25.4073 10.9579C25.5556 11.0484 25.6642 11.1916 25.7112 11.3589C25.7709 11.527 25.7619 11.7119 25.6862 11.8735C25.6104 12.035 25.474 12.1602 25.3065 12.2218C24.4973 12.4558 23.6783 12.6508 22.869 12.8604L22.7861 12.8701Z" fill="#183087"/>
</g>
<defs>
<clipPath id="clip0_189_983">
<rect width="32" height="27.1395" fill="white"/>
</clipPath>
</defs>
</svg>
