<svg width="32" height="26" viewBox="0 0 32 26" fill="none" xmlns="http://www.w3.org/2000/svg">
<g clip-path="url(#clip0_206_602)">
<path d="M25.779 21.4499C25.4521 22.0809 25.257 22.499 25.0188 22.8943C24.0736 24.4832 22.3859 25.2485 20.4803 24.9697C18.7318 24.7163 17.1632 23.4721 16.9326 21.8326C16.8277 20.8761 16.9448 19.9084 17.2747 19.0046C17.729 17.7783 17.729 16.4298 17.2747 15.2035C16.2813 12.416 17.0644 10.4521 19.4413 9.46386C21.8182 8.47558 24.0938 9.44866 25.3938 11.9979C25.485 12.1804 25.6092 12.3476 25.8347 12.7074H31.8835V14.2659C29.651 14.2659 27.5072 14.3825 25.3938 14.1899C24.8084 14.1341 24.1724 13.2371 23.7948 12.5909C23.0042 11.2402 21.9652 10.6245 20.5918 10.9463C18.9117 11.3391 18.154 12.5174 18.7596 14.1519C19.5031 16.0093 19.5139 18.0796 18.7901 19.9447C18.2098 21.4803 18.6786 22.4788 20.014 23.0616C21.3494 23.6444 22.9636 23.2846 23.5085 21.9719C24.2687 20.1018 25.6016 19.6457 27.4337 19.7749C28.8528 19.8737 30.2845 19.7952 31.848 19.7952C31.8987 20.3628 31.9367 20.7733 32.0001 21.4499H25.779Z" fill="#183087"/>
<path d="M6.21349 21.4807H0.157111V19.8361C2.3364 19.8361 4.3687 19.6942 6.36047 19.9147C7.0396 19.9907 7.78461 20.8776 8.21033 21.572C9.0491 22.9429 10.1691 23.5992 11.535 23.2191C13.1771 22.7554 13.8613 21.6531 13.2632 20.0566C12.5055 18.1588 12.5055 16.0425 13.2632 14.1447C13.808 12.718 13.3063 11.712 12.0215 11.1291C10.6886 10.521 9.04403 10.8757 8.51948 12.1782C7.73646 14.1371 6.33006 14.5146 4.4802 14.4006C3.09915 14.317 1.71048 14.3854 0.190054 14.3854L0 12.7737H6.17548C6.49731 12.1757 6.71777 11.7323 6.96864 11.304C7.42969 10.5139 8.12378 9.88577 8.95579 9.50561C9.7878 9.12544 10.717 9.01187 11.6161 9.18046C13.3215 9.45414 14.9104 10.7668 15.1156 12.3987C15.1938 13.3552 15.0605 14.3173 14.7254 15.2166C14.2873 16.4048 14.2873 17.7103 14.7254 18.8986C15.739 21.7671 14.9509 23.7335 12.503 24.7117C10.1109 25.6645 7.88343 24.6762 6.59867 22.0915C6.54039 21.98 6.46437 21.8786 6.21349 21.4807Z" fill="#183087"/>
<path d="M15.2727 0.605299C15.303 0.434807 15.3924 0.28043 15.5252 0.169222C15.6579 0.0580144 15.8255 -0.00292969 15.9987 -0.00292969C16.1719 -0.00292969 16.3395 0.0580144 16.4723 0.169222C16.605 0.28043 16.6944 0.434807 16.7247 0.605299V8.12129C16.7063 8.30103 16.6219 8.46755 16.4878 8.58862C16.3536 8.70969 16.1794 8.77671 15.9987 8.77671C15.818 8.77671 15.6438 8.70969 15.5097 8.58862C15.3756 8.46755 15.2911 8.30103 15.2727 8.12129V0.605299Z" fill="#183087"/>
<path d="M19.6212 2.08816C19.7185 1.96663 19.8526 1.87994 20.0034 1.84111C20.1542 1.80227 20.3135 1.81338 20.4574 1.87277C20.6158 1.92288 20.7523 2.02553 20.8445 2.16375C20.9366 2.30198 20.9789 2.46751 20.9642 2.63298L18.6785 8.47651C18.5772 8.60401 18.4377 8.69563 18.2804 8.73787C18.1232 8.78011 17.9565 8.77075 17.805 8.71116C17.6535 8.65157 17.5251 8.5449 17.4387 8.40685C17.3524 8.26881 17.3126 8.10669 17.3253 7.94436L19.6212 2.08816Z" fill="#183087"/>
<path d="M11.5553 3.60546C11.5108 3.42914 11.534 3.24255 11.6202 3.08246C11.7065 2.92238 11.8496 2.80042 12.0214 2.74063C12.1931 2.68084 12.381 2.68756 12.548 2.75946C12.7151 2.83136 12.8491 2.96322 12.9237 3.12906L14.6798 8.19716C14.6963 8.36425 14.656 8.53201 14.5655 8.67341C14.4749 8.81482 14.3395 8.92164 14.1808 8.97666C14.0222 9.03168 13.8497 9.0317 13.691 8.97671C13.5324 8.92173 13.3969 8.81494 13.3064 8.67356C12.7235 6.98081 12.1398 5.29145 11.5553 3.60546Z" fill="#183087"/>
</g>
<defs>
<clipPath id="clip0_206_602">
<rect width="32" height="25.0668" fill="white"/>
</clipPath>
</defs>
</svg>
