<svg width="28" height="32" viewBox="0 0 28 32" fill="none" xmlns="http://www.w3.org/2000/svg">
<g clip-path="url(#clip0_206_614)">
<path d="M6.00937 32.0004C4.30333 31.5942 3.41431 30.3256 2.7225 28.87C2.09017 27.5318 1.74036 26.1176 1.60106 24.6401C1.55695 24.1017 1.40836 23.5769 1.16359 23.0953C-0.423498 20.1442 -0.279502 17.1609 0.922553 14.148C1.1229 13.6471 1.42419 13.1877 1.63158 12.69C1.83035 12.2142 2.06435 11.7219 2.11209 11.2203C2.21617 10.12 2.78511 9.3421 3.61857 8.70507C3.9316 8.4656 4.27203 8.259 4.62967 8.01718C4.52011 7.89901 4.41524 7.77536 4.3002 7.66188C3.05197 6.41757 2.92676 5.04726 3.61935 3.40774C4.32916 1.72674 5.73234 0.829896 7.41881 0.324345C8.33209 0.0504394 9.2712 -0.077905 10.2306 0.0543523C11.1338 0.181914 11.7786 0.674944 12.137 1.48727C12.4 2.08438 12.5722 2.72063 12.7834 3.33965C13.0182 4.01816 13.3156 4.2545 13.9159 4.25998C14.3893 4.26467 14.7243 4.05885 14.8949 3.62686C15.0443 3.25122 15.1469 2.8568 15.2862 2.47568C15.4255 2.09456 15.5515 1.68292 15.7463 1.31901C16.1807 0.503558 16.9038 0.0559175 17.8178 0.0230488C19.9175 -0.0552099 21.8169 0.499645 23.2959 2.05778C24.3454 3.16122 24.7743 4.50336 24.4855 6.02393C24.3759 6.6007 24.0284 7.06634 23.6434 7.49832C23.4916 7.66815 23.3304 7.83249 23.1786 7.99761C23.6168 8.31926 24.0558 8.61195 24.4612 8.94533C25.1655 9.52444 25.5639 10.2569 25.6797 11.1859C25.7595 11.7412 25.9415 12.2769 26.2166 12.7659C27.1885 14.5338 27.7457 16.4034 27.7943 18.4209C27.8387 19.9903 27.4629 21.5431 26.7057 22.9184C26.3754 23.5249 26.2291 24.1706 26.1649 24.8545C25.9896 26.7265 25.4371 28.4811 24.408 30.0666C23.7819 31.0307 22.9469 31.7366 21.7926 32.0004H20.9771C20.0208 31.7898 19.0637 31.577 18.105 31.3743C18.0304 31.3705 17.9567 31.3923 17.8961 31.4361C17.605 31.62 17.3193 31.8125 17.0352 32.0019H10.7745C10.5891 31.9135 10.3386 31.8744 10.2267 31.7288C9.891 31.2757 9.51536 31.3774 9.1045 31.5598C9.01802 31.5948 8.92763 31.6192 8.83529 31.6325C8.16227 31.7557 7.49159 31.8783 6.82326 32.0004H6.00937ZM5.39974 8.76533C4.8981 9.1308 4.38237 9.47592 3.89873 9.86722C3.69866 10.0274 3.534 10.2274 3.41519 10.4545C3.29638 10.6816 3.226 10.9309 3.20849 11.1867C3.14041 11.9692 2.84928 12.6681 2.50416 13.3669C2.10314 14.1526 1.76302 14.9678 1.4868 15.8055C1.06744 17.1426 0.966934 18.5593 1.19333 19.9422C1.34985 20.9103 1.74583 21.7852 2.15278 22.6664C2.38626 23.1636 2.54602 23.6922 2.62703 24.2355C2.76007 25.1958 2.88059 26.1529 3.19519 27.0747C3.56379 28.1524 3.98717 29.2034 4.76662 30.0642C5.24557 30.5933 5.81216 30.9673 6.56657 30.9251C7.52532 30.8705 8.47149 30.6802 9.37684 30.3601C9.57562 30.2896 9.64684 30.1988 9.64449 29.9828C9.63275 28.7847 9.63901 27.5873 9.63901 26.3892V26.1544C9.58267 26.1544 9.56075 26.1466 9.5451 26.1544C9.47467 26.199 9.40658 26.2476 9.3385 26.2953C8.80624 26.6708 8.16522 26.8608 7.51429 26.8361C7.20125 26.8306 6.98526 26.624 6.96648 26.343C6.95004 26.0856 7.13786 25.8578 7.42585 25.8015C7.54922 25.7815 7.67357 25.7682 7.79837 25.7616C8.23758 25.7304 8.65042 25.5404 8.95973 25.2271C8.70382 25.0056 8.44791 24.8068 8.22018 24.5799C7.93923 24.3013 7.9854 23.9068 8.30392 23.7315C8.54574 23.5977 8.75625 23.6627 8.96599 23.8247C9.33537 24.1111 9.69301 24.4249 10.0984 24.6519C12.7349 26.1278 16.6557 25.879 18.8352 23.8489C19.1122 23.5907 19.4331 23.5985 19.6405 23.8262C19.8643 24.0712 19.8299 24.374 19.5317 24.6472C19.3181 24.8436 19.0903 25.0267 18.843 25.238C18.9948 25.3429 19.1248 25.4845 19.2828 25.5331C19.6569 25.6473 20.0443 25.7162 20.4262 25.8062C20.5494 25.8309 20.6598 25.8985 20.7379 25.9969C20.816 26.0953 20.8566 26.2182 20.8527 26.3438C20.848 26.4708 20.7952 26.5913 20.7049 26.6808C20.6147 26.7703 20.4938 26.8222 20.3667 26.8259C20.1085 26.8329 19.833 26.84 19.5935 26.7617C19.1185 26.6052 18.663 26.3915 18.1935 26.199C18.199 26.1818 18.1841 26.2092 18.1841 26.2366C18.1841 27.5169 18.1778 28.798 18.1903 30.0791C18.2011 30.1333 18.2249 30.1841 18.2597 30.227C18.2944 30.27 18.3391 30.3038 18.3899 30.3256C19.113 30.5189 19.8377 30.7099 20.5694 30.8664C21.6103 31.0886 22.4883 30.8014 23.152 29.9476C24.3384 28.42 24.8948 26.6498 25.1084 24.7606C25.1984 23.9663 25.351 23.2041 25.7345 22.4911C26.4316 21.2266 26.7754 19.7976 26.7299 18.3544C26.6868 16.629 26.2159 14.9414 25.3596 13.4429C24.9464 12.7174 24.6655 11.9559 24.5919 11.1233C24.5759 10.8986 24.5152 10.6793 24.4134 10.4784C24.3115 10.2775 24.1705 10.099 23.9987 9.9533C23.4947 9.52679 22.9446 9.1535 22.4148 8.75829C20.6187 10.4291 19.4292 12.3582 18.8407 14.706C18.9301 14.6707 19.0216 14.6409 19.1146 14.6167C19.5121 14.544 19.9081 14.4461 20.3096 14.4156C20.378 14.4112 20.4466 14.4206 20.5112 14.4432C20.5759 14.4659 20.6353 14.5014 20.6859 14.5476C20.7366 14.5938 20.7774 14.6497 20.8059 14.712C20.8344 14.7743 20.8501 14.8417 20.8519 14.9102C20.8684 15.1802 20.668 15.4056 20.3597 15.458C20.236 15.4784 20.11 15.4799 19.9864 15.4956C19.6098 15.5301 19.2538 15.6827 18.969 15.9315C19.1952 16.1326 19.4386 16.293 19.6006 16.5129C19.7078 16.6569 19.7727 16.9097 19.7211 17.0709C19.6733 17.2173 19.4558 17.3683 19.2914 17.4004C19.1506 17.427 18.9628 17.3104 18.8219 17.2165C18.4243 16.9512 18.073 16.5975 17.648 16.3971C14.5959 14.9619 11.6831 15.091 8.97381 17.2392C8.67643 17.474 8.37122 17.474 8.16853 17.2392C7.96584 17.0044 7.98227 16.6992 8.26479 16.4347C8.44948 16.2594 8.64513 16.0966 8.8439 15.9213C8.528 15.6604 8.13702 15.5071 7.72793 15.4838C7.61333 15.4789 7.49927 15.4653 7.38672 15.4432C7.26331 15.4194 7.15238 15.3525 7.07379 15.2544C6.99521 15.1563 6.95412 15.0335 6.95787 14.9079C6.96066 14.8367 6.97807 14.7669 7.00902 14.7028C7.03996 14.6386 7.08378 14.5815 7.13773 14.5351C7.19169 14.4886 7.25463 14.4537 7.32265 14.4327C7.39066 14.4116 7.46229 14.4047 7.53307 14.4125C8.00262 14.4555 8.46748 14.5557 8.9519 14.634C8.37357 12.3652 7.19969 10.4236 5.39974 8.76533ZM18.8141 11.6609C18.8775 11.5576 18.9299 11.4817 18.9745 11.4003C19.5506 10.3361 20.2797 9.36213 21.1384 8.50943C21.7574 7.89118 22.3717 7.26668 22.9751 6.63122C23.319 6.28768 23.5131 5.82211 23.5151 5.33603C23.5151 4.47519 23.2803 3.68243 22.7184 3.02192C21.4342 1.51153 19.7336 1.00833 17.8186 1.09911C17.0869 1.13354 16.6948 1.62422 16.4773 2.27299C16.3207 2.73628 16.1854 3.20505 16.0288 3.66834C15.8629 4.15824 15.6305 4.61214 15.1993 4.92048C14.0606 5.74376 12.5072 5.34386 11.9398 4.05963C11.6933 3.50087 11.5321 2.90454 11.3388 2.32307C11.0406 1.42936 10.5695 1.04511 9.63119 1.07485C9.00672 1.08813 8.3859 1.17374 7.78115 1.32997C6.40614 1.71187 5.24322 2.42168 4.62732 3.77634C4.12099 4.88996 4.07951 5.9715 5.0554 6.90669C5.40208 7.23694 5.72999 7.58754 6.07276 7.92405C7.01187 8.83342 7.8868 9.79444 8.55591 10.9245C8.69834 11.164 8.83295 11.4081 8.9832 11.6703C10.4584 10.5817 12.1222 10.1443 13.9041 10.1458C15.6861 10.1474 17.3491 10.5762 18.8141 11.6609ZM10.2306 15.1434C12.6794 14.148 15.1328 14.155 17.5682 15.1434C17.8288 14.3358 18.0823 13.5587 18.3249 12.7777C18.3267 12.7394 18.3193 12.7012 18.3036 12.6663C18.2878 12.6313 18.264 12.6006 18.2342 12.5765C18.0117 12.4054 17.7785 12.2485 17.5361 12.107C15.9373 11.2195 14.2226 11.0513 12.4493 11.3385C11.4238 11.4895 10.4539 11.9004 9.63197 12.5319C9.55371 12.5914 9.47545 12.7424 9.50049 12.8207C9.7251 13.5829 9.97474 14.3421 10.2306 15.1434ZM10.7002 29.0516C10.7002 29.4929 10.7002 29.9805 10.7002 30.4673C10.7002 30.8586 10.7785 30.9368 11.1838 30.9368C12.1229 30.9368 13.062 30.9368 14.0012 30.9368C14.8881 30.9368 15.775 30.9368 16.662 30.9368C16.8631 30.9368 17.0775 30.9118 17.0869 30.6731C17.1096 30.1159 17.0939 29.5571 17.0939 29.0547C16.0077 29.147 14.9504 29.3083 13.8939 29.3075C12.8374 29.3067 11.7825 29.1447 10.6994 29.0516H10.7002ZM10.7127 27.8346C12.2356 28.3934 15.5577 28.3934 17.0814 27.8346V26.1208C14.9473 26.8431 12.8343 26.8431 10.7119 26.12L10.7127 27.8346Z" fill="#183087"/>
</g>
<defs>
<clipPath id="clip0_206_614">
<rect width="27.7959" height="32" fill="white"/>
</clipPath>
</defs>
</svg>
