<svg width="29" height="32" viewBox="0 0 29 32" fill="none" xmlns="http://www.w3.org/2000/svg">
<g clip-path="url(#clip0_189_967)">
<path d="M24.3987 25.008C24.3431 24.5341 24.3247 24.0566 24.3439 23.5799C24.3561 23.5068 24.353 23.4321 24.3348 23.3603C24.3166 23.2885 24.2837 23.2213 24.2381 23.1629C24.1926 23.1045 24.1354 23.0562 24.0702 23.021C24.005 22.9859 23.9333 22.9646 23.8595 22.9587C23.7856 22.9527 23.7114 22.9621 23.6414 22.9863C23.5714 23.0105 23.5072 23.049 23.4529 23.0994C23.3986 23.1497 23.3553 23.2107 23.3258 23.2787C23.2963 23.3466 23.2812 23.4199 23.2815 23.4939C23.2568 24.0432 23.2766 24.5936 23.3409 25.1397C23.5008 26.8798 23.9514 28.5808 24.6739 30.1719C24.7131 30.2532 24.731 30.3431 24.7259 30.4332C24.7208 30.5233 24.6929 30.6107 24.6449 30.6871C24.5968 30.7635 24.5301 30.8264 24.4511 30.87C24.3721 30.9136 24.2833 30.9363 24.193 30.9362H13.4401C13.328 30.9356 13.2189 30.9 13.128 30.8344C13.037 30.7689 12.9688 30.6766 12.9327 30.5705C12.5856 29.4387 11.9874 28.3998 11.1827 27.5314L11.5814 27.3915C11.9754 27.2526 12.2744 27.1483 12.4216 27.1017C14.7073 26.384 15.8438 25.3417 15.8127 24.0133C15.8134 23.8759 15.7596 23.7439 15.6631 23.6462C15.5666 23.5485 15.4353 23.4931 15.2979 23.4921H15.2687C15.1988 23.4935 15.1299 23.5087 15.0659 23.5368C15.0019 23.5649 14.944 23.6053 14.8956 23.6557C14.8472 23.7061 14.8092 23.7656 14.7838 23.8307C14.7584 23.8958 14.7461 23.9653 14.7475 24.0352C14.7603 24.5838 14.3105 25.3865 12.1016 26.0814C11.9462 26.1298 11.6371 26.2386 11.2266 26.3822C10.8445 26.5166 10.3727 26.683 9.8552 26.8622C8.35741 27.4053 6.83138 27.8671 5.28377 28.2455C5.04372 28.2922 4.79492 28.2435 4.59012 28.1099C4.38532 27.9763 4.24059 27.7681 4.18663 27.5296C4.02195 27.1124 4.00485 26.6514 4.13817 26.2231C4.2482 25.8646 4.26239 25.4834 4.17931 25.1177C4.1043 24.8757 3.97801 24.6526 3.80903 24.4638C3.64006 24.2749 3.43237 24.1247 3.20011 24.0233L3.08583 23.9611C3.14185 23.8434 3.20954 23.7316 3.28788 23.6274C3.37487 23.5161 3.4141 23.3748 3.39695 23.2346C3.37981 23.0943 3.3077 22.9666 3.19645 22.8796L3.1864 22.8713C3.06114 22.7799 2.75485 22.5477 2.53634 22.3712C2.56285 22.3209 2.59394 22.2642 2.62228 22.2167C2.70457 22.0722 2.79783 21.904 2.88925 21.7138C3.05876 21.342 3.1089 20.9268 3.0328 20.5253C2.90937 19.8715 2.28674 19.5534 1.8296 19.3193C1.68994 19.2531 1.5552 19.1771 1.4264 19.0917C1.30164 19.0048 1.18394 18.9082 1.0744 18.8027C1.08354 18.4946 2.25657 17.2293 2.88651 16.5499C3.44752 15.9071 3.80322 15.111 3.90777 14.2642C3.9299 14.2013 3.9568 14.1402 3.98822 14.0814C4.12137 13.8561 4.19646 13.6013 4.20674 13.3399C4.17917 13.0739 4.09457 12.817 3.95873 12.5866C3.82288 12.3563 3.63898 12.1579 3.41954 12.005C3.20651 11.8076 3.00171 11.621 2.97885 11.4565C3.0438 11.1019 3.16413 10.7597 3.33543 10.4425C3.55868 9.97938 3.73716 9.49596 3.86845 8.99886L3.91143 8.81144C4.02557 8.26355 4.17397 7.72336 4.35577 7.19406C4.77313 6.03396 5.42236 4.97099 6.26388 4.06995C7.51005 2.75246 9.24994 2.20938 10.9469 1.82081C17.9046 0.213493 20.9373 1.30332 24.3969 4.02332C25.7506 5.0253 26.7382 6.44363 27.2083 8.06081C27.5809 9.43669 27.7545 10.8588 27.724 12.2839C27.7085 13.0089 27.6527 13.5959 27.4113 14.3566C27.1206 15.2709 26.6287 16.0178 25.6586 17.4807C25.3258 17.979 25.0515 18.3776 24.855 18.6519L24.1373 19.8487C24.1373 19.8834 24.1601 20.2464 24.3951 20.3717C24.6493 20.5079 25.1082 20.3424 25.3249 19.8652C25.6083 19.4446 26.017 18.8338 26.4989 18.0896C27.9818 15.8039 28.2552 15.2078 28.4472 14.5906C28.676 13.8489 28.7907 13.0766 28.7873 12.3004C28.8203 10.7722 28.6343 9.24729 28.2351 7.77189C27.6975 5.9388 26.5806 4.32916 25.0515 3.18401C20.8458 -0.117479 17.228 -0.725479 10.7073 0.779435C8.93542 1.18721 6.93131 1.81075 5.48765 3.33944C4.54803 4.34588 3.82349 5.53334 3.35828 6.82926C3.16036 7.39987 2.99912 7.98254 2.87554 8.57372L2.83348 8.75658C2.7153 9.18691 2.55736 9.60532 2.36171 10.0064C2.07678 10.4915 1.92448 11.043 1.92011 11.6055C2.02758 12.0821 2.30315 12.504 2.69634 12.7941C2.95691 13.0336 3.1288 13.2018 3.12971 13.3563C3.10684 13.443 3.07207 13.5261 3.0264 13.6032C2.94109 13.7545 2.87942 13.9179 2.84354 14.0878C2.77328 14.725 2.51555 15.327 2.10297 15.8176C0.424339 17.6242 -0.0538319 18.2469 0.00468238 18.8914C0.0497474 19.1124 0.142573 19.3208 0.276658 19.5021C0.410744 19.6834 0.582846 19.8332 0.780911 19.941C0.956888 20.0639 1.14283 20.1719 1.3368 20.2638C1.56628 20.3808 1.95028 20.5765 1.9768 20.7209C2.01118 20.9017 1.99048 21.0887 1.91737 21.2576C1.83874 21.4249 1.75737 21.5703 1.68605 21.6946C1.47851 22.0604 1.16491 22.6181 1.6568 23.0331C1.772 23.1346 1.96948 23.291 2.14868 23.4281C2.01519 23.6625 1.9556 23.9318 1.97771 24.2007C1.99153 24.303 2.02596 24.4015 2.07892 24.4901C2.13188 24.5787 2.20227 24.6557 2.28583 24.7163C2.4064 24.8001 2.53154 24.877 2.66068 24.9467C2.97337 25.1296 3.09405 25.2082 3.13703 25.3737C3.17537 25.5732 3.1599 25.7792 3.09223 25.9707C2.91543 26.5974 2.94557 27.2643 3.17817 27.8725C3.30978 28.3604 3.62403 28.7791 4.05583 29.0417C4.48763 29.3043 5.0039 29.3908 5.49771 29.2832C7.01609 28.9171 8.51345 28.4687 9.9832 27.9401C10.7192 28.3771 11.4205 29.445 11.9206 30.9125C12.0286 31.2297 12.2332 31.5052 12.5057 31.7004C12.7782 31.8955 13.105 32.0004 13.4401 32.0005H24.1921C24.4644 32.0003 24.7322 31.9306 24.9701 31.798C25.208 31.6654 25.4081 31.4743 25.5515 31.2428C25.6948 31.0113 25.7767 30.747 25.7894 30.4749C25.8021 30.2029 25.7451 29.9321 25.6239 29.6882C24.9584 28.207 24.5444 26.6253 24.3987 25.008Z" fill="#183087"/>
<path d="M21.3697 8.95476C21.7412 9.34947 22.2442 9.59487 22.7839 9.6448C23.3237 9.69473 23.8631 9.54576 24.3008 9.22591C24.7384 8.90605 25.0442 8.43733 25.1605 7.90788C25.2768 7.37843 25.1957 6.82472 24.9325 6.35086C24.6692 5.877 24.2419 5.51563 23.731 5.33469C23.22 5.15375 22.6605 5.16571 22.1577 5.36832C21.6549 5.57093 21.2434 5.95023 21.0007 6.4349C20.7579 6.91958 20.7005 7.47625 20.8394 8.00024C20.1822 8.57046 19.6454 9.2661 19.2604 10.0464C18.9189 9.79253 18.5477 9.5813 18.1551 9.41739C17.7034 8.55796 17.7893 7.38219 17.9923 6.40024C18.0289 6.40024 18.0627 6.41122 18.0993 6.41122C18.6179 6.41517 19.1205 6.23146 19.5144 5.89395C19.9082 5.55644 20.1668 5.0879 20.2423 4.57476C20.3178 4.06161 20.2052 3.53846 19.9253 3.10179C19.6454 2.66513 19.217 2.34441 18.7192 2.19877C18.2214 2.05314 17.6877 2.09242 17.2166 2.30938C16.7455 2.52633 16.3687 2.90632 16.1557 3.37926C15.9428 3.8522 15.908 4.3862 16.0579 4.88276C16.2077 5.37932 16.532 5.80495 16.9711 6.08116C16.7411 7.01505 16.7046 7.98615 16.8641 8.93464C16.41 8.78897 15.9126 8.65426 15.372 8.53053C14.8819 8.4199 14.4147 8.32664 13.9759 8.2471C13.528 7.85587 13.1907 7.35397 12.9976 6.79156C13.4833 6.60654 13.885 6.25087 14.1275 5.7911C14.37 5.33133 14.4366 4.79896 14.3149 4.29361C14.1933 3.78826 13.8916 3.34455 13.4665 3.04552C13.0413 2.74648 12.5217 2.61261 12.005 2.66895C11.4883 2.72528 11.0098 2.96797 10.6591 3.3516C10.3083 3.73523 10.1094 4.23351 10.0995 4.75321C10.0896 5.27291 10.2694 5.77841 10.6052 6.17513C10.9411 6.57184 11.41 6.83259 11.9242 6.90859C12.0326 7.28354 12.1861 7.64396 12.3813 7.98196C11.3263 7.82744 10.3315 7.71499 9.5306 7.6391C9.44454 7.12514 9.17392 6.66023 8.76952 6.33157C8.36511 6.00291 7.85469 5.83309 7.33399 5.85394C6.81329 5.8748 6.31809 6.0849 5.94126 6.44485C5.56443 6.80479 5.33186 7.28986 5.28718 7.80905C5.2425 8.32825 5.38877 8.84591 5.69856 9.26495C6.00835 9.68399 6.46038 9.97561 6.96986 10.0851C7.47934 10.1946 8.01127 10.1145 8.46589 9.85977C8.9205 9.60504 9.26656 9.1932 9.43917 8.7015C10.5747 8.80756 12.1052 8.98859 13.633 9.26379L13.718 9.28024C13.1796 9.70831 12.7025 10.2082 12.3 10.766C12.1064 10.7048 11.905 10.6721 11.702 10.669C11.2077 10.6664 10.7276 10.835 10.3435 11.1462C9.95932 11.4574 9.69474 11.892 9.59467 12.3761C9.4946 12.8603 9.56522 13.3641 9.79452 13.8021C10.0238 14.2401 10.3977 14.5852 10.8526 14.7788C11.3075 14.9724 11.8154 15.0025 12.29 14.8641C12.7646 14.7257 13.1766 14.4272 13.4561 14.0195C13.7356 13.6117 13.8654 13.1197 13.8233 12.6271C13.7812 12.1345 13.5699 11.6717 13.2252 11.3173C13.6683 10.6957 14.2359 10.1733 14.892 9.7831C15.0187 9.71439 15.1504 9.6554 15.286 9.60664C16.0396 9.77458 16.7791 10.0008 17.4977 10.2832C17.5139 10.2924 17.5307 10.3007 17.548 10.3079H17.5571H17.5653C18.0159 10.4717 18.4311 10.72 18.7887 11.0393C18.8545 11.105 18.9114 11.1791 18.9578 11.2597C19.2028 11.6729 19.1489 12.2855 18.7868 13.1906C18.5893 13.6908 18.3297 14.2092 18.0554 14.7596C17.1146 16.6338 16.0495 18.765 17.7683 20.1447C19.7743 21.7484 19.8447 27.2889 19.7057 29.2876C19.6956 29.4287 19.742 29.568 19.8345 29.6749C19.9271 29.7819 20.0583 29.8478 20.1994 29.8581H20.2378C20.3728 29.8582 20.5029 29.8071 20.6018 29.7152C20.7007 29.6232 20.7611 29.4972 20.7708 29.3625C20.7937 29.0462 21.292 21.5911 18.4403 19.3109C17.4675 18.5301 18.0362 17.1916 19.0145 15.2368C19.2522 14.7632 19.489 14.2768 19.6892 13.8032C19.9521 13.739 20.2272 13.7445 20.4873 13.8192C20.7474 13.894 20.9835 14.0353 21.1722 14.2293C20.8644 14.6577 20.7235 15.1836 20.7758 15.7085C20.8281 16.2334 21.0701 16.7212 21.4564 17.0804C21.8427 17.4396 22.3467 17.6455 22.874 17.6596C23.4013 17.6737 23.9157 17.495 24.3206 17.157C24.7255 16.8189 24.9933 16.3448 25.0736 15.8235C25.1539 15.3021 25.0413 14.7694 24.7568 14.3252C24.4724 13.8809 24.0357 13.5557 23.5286 13.4105C23.0215 13.2652 22.4788 13.3099 22.0024 13.5362C21.4827 13.0291 20.798 12.7257 20.0732 12.6814C20.2299 12.1207 20.2053 11.5248 20.0028 10.979C20.3097 10.2106 20.7773 9.51671 21.3743 8.94379L21.3697 8.95476ZM22.8984 6.40573C23.1094 6.40573 23.3157 6.46831 23.4911 6.58555C23.6666 6.70279 23.8034 6.86942 23.8841 7.06439C23.9649 7.25935 23.986 7.47388 23.9448 7.68086C23.9037 7.88783 23.802 8.07794 23.6528 8.22716C23.5036 8.37638 23.3135 8.478 23.1065 8.51917C22.8996 8.56034 22.685 8.53921 22.4901 8.45845C22.2951 8.3777 22.1285 8.24094 22.0112 8.06548C21.894 7.89002 21.8314 7.68373 21.8314 7.4727C21.8314 7.18972 21.9438 6.91833 22.1439 6.71824C22.344 6.51814 22.6154 6.40573 22.8984 6.40573ZM18.1029 3.20664C18.314 3.20664 18.5203 3.26922 18.6957 3.38646C18.8712 3.5037 19.0079 3.67034 19.0887 3.8653C19.1694 4.06027 19.1906 4.2748 19.1494 4.48177C19.1082 4.68874 19.0066 4.87886 18.8574 5.02808C18.7082 5.1773 18.5181 5.27892 18.3111 5.32008C18.1041 5.36125 17.8896 5.34012 17.6946 5.25937C17.4997 5.17861 17.333 5.04185 17.2158 4.86639C17.0985 4.69093 17.036 4.48464 17.036 4.27361C17.0358 4.13362 17.0633 3.99497 17.1168 3.86558C17.1702 3.7362 17.2487 3.61861 17.3476 3.51953C17.4465 3.42045 17.5639 3.34183 17.6932 3.28814C17.8225 3.23446 17.9611 3.20676 18.1011 3.20664H18.1029ZM11.1708 4.80664C11.1708 4.59562 11.2334 4.38933 11.3506 4.21387C11.4679 4.0384 11.6345 3.90165 11.8295 3.82089C12.0244 3.74013 12.239 3.719 12.446 3.76017C12.6529 3.80134 12.843 3.90296 12.9923 4.05218C13.1415 4.2014 13.2431 4.39152 13.2843 4.59849C13.3254 4.80546 13.3043 5.01999 13.2235 5.21496C13.1428 5.40992 13.006 5.57656 12.8306 5.6938C12.6551 5.81104 12.4488 5.87361 12.2378 5.87361C11.9548 5.87361 11.6834 5.7612 11.4833 5.56111C11.2832 5.36101 11.1708 5.08962 11.1708 4.80664ZM7.43505 9.0727C7.22407 9.07252 7.01787 9.00979 6.84253 8.89244C6.66718 8.77509 6.53057 8.60839 6.44995 8.41341C6.36934 8.21843 6.34834 8.00393 6.38961 7.79701C6.43088 7.5901 6.53257 7.40007 6.68183 7.25094C6.83108 7.10182 7.0212 7.00029 7.22815 6.95919C7.4351 6.9181 7.64958 6.93928 7.84449 7.02006C8.0394 7.10085 8.20599 7.2376 8.32319 7.41305C8.44039 7.58849 8.50294 7.79474 8.50294 8.00573C8.50294 8.14592 8.47531 8.28474 8.42163 8.41425C8.36796 8.54376 8.28928 8.66143 8.19011 8.76052C8.09093 8.8596 7.9732 8.93818 7.84365 8.99174C7.71409 9.04531 7.57525 9.07282 7.43505 9.0727ZM11.7029 13.8718C11.492 13.8723 11.2856 13.8103 11.1099 13.6936C10.9342 13.5769 10.797 13.4107 10.7157 13.2161C10.6344 13.0214 10.6126 12.807 10.6531 12.6C10.6936 12.393 10.7945 12.2026 10.9432 12.0529C11.0918 11.9033 11.2815 11.801 11.4882 11.7591C11.695 11.7172 11.9095 11.7375 12.1047 11.8175C12.2999 11.8975 12.467 12.0335 12.5849 12.2084C12.7029 12.3834 12.7663 12.5893 12.7672 12.8002C12.7678 12.9405 12.7407 13.0795 12.6875 13.2093C12.6343 13.3391 12.5561 13.4572 12.4572 13.5567C12.3584 13.6562 12.2409 13.7353 12.1115 13.7893C11.982 13.8434 11.8432 13.8714 11.7029 13.8718ZM23.9663 15.4718C23.9663 15.6828 23.9037 15.8891 23.7864 16.0646C23.6692 16.24 23.5026 16.3768 23.3076 16.4575C23.1126 16.5383 22.8981 16.5594 22.6911 16.5183C22.4842 16.4771 22.294 16.3755 22.1448 16.2262C21.9956 16.077 21.894 15.8869 21.8528 15.6799C21.8116 15.473 21.8328 15.2584 21.9135 15.0635C21.9943 14.8685 22.131 14.7019 22.3065 14.5846C22.482 14.4674 22.6883 14.4048 22.8993 14.4048C23.182 14.4048 23.4532 14.5171 23.6531 14.7171C23.853 14.917 23.9653 15.1881 23.9653 15.4709L23.9663 15.4718Z" fill="#183087"/>
</g>
<defs>
<clipPath id="clip0_189_967">
<rect width="28.7945" height="32" fill="white"/>
</clipPath>
</defs>
</svg>
