<svg width="32" height="32" viewBox="0 0 32 32" fill="none" xmlns="http://www.w3.org/2000/svg">
<g clip-path="url(#clip0_206_736)">
<path d="M7.14277 14.1538V14.5286C7.14277 19.5357 7.14277 24.5431 7.14277 29.5507C7.14277 30.2785 7.41729 30.5488 8.15191 30.5488H18.3265C18.4332 30.5438 18.5401 30.5461 18.6464 30.5559C18.9312 30.5969 19.0765 30.7782 19.0944 31.0556C19.1025 31.185 19.0605 31.3125 18.9771 31.4117C18.8936 31.5109 18.7752 31.574 18.6464 31.5879C18.5614 31.5959 18.4758 31.598 18.3905 31.5943C14.935 31.5943 11.4794 31.5943 8.02393 31.5943C6.85097 31.5943 6.08372 30.8224 6.08308 29.6481C6.08308 27.9825 6.07796 26.3168 6.08692 24.6512C6.08692 24.4212 6.03893 24.3027 5.80408 24.2072C5.14742 23.9401 4.58581 23.4821 4.19171 22.8923C3.79762 22.3025 3.58915 21.6079 3.59319 20.8984C3.58935 18.1859 3.58935 15.4739 3.59319 12.7623C3.59319 12.4157 3.54136 12.0935 3.25788 11.8232C3.25788 11.9756 3.25788 12.1287 3.25788 12.2812C3.2534 12.6771 3.0659 12.9186 2.74595 12.9315C2.42599 12.9443 2.22442 12.7136 2.18923 12.3209C2.18475 12.2684 2.18091 12.2159 2.17387 12.1345C1.50004 12.2037 0.905566 12.0391 0.450589 11.5176C0.290693 11.337 0.168695 11.1262 0.0918534 10.8975C0.0150113 10.6688 -0.0151063 10.4269 0.00329186 10.1863C0.0672829 9.1229 0.914524 8.43807 2.16555 8.46946C2.17771 8.37208 2.18667 8.27022 2.2033 8.17028C2.25386 7.86406 2.45927 7.6802 2.74403 7.68789C3.02879 7.69557 3.25084 7.91147 3.25596 8.23242C3.26492 8.86216 3.2662 9.49255 3.25596 10.1223C3.25212 10.3145 3.31099 10.4208 3.47865 10.5272C4.2587 11.0224 4.65416 11.7444 4.65608 12.6707C4.6612 15.3827 4.6612 18.0947 4.65608 20.8067C4.65608 21.7715 5.04707 22.5147 5.84631 23.049C5.92337 23.0914 6.00286 23.1293 6.08436 23.1623V2.0215C6.08436 0.740234 6.8273 -0.000976562 8.1116 -0.000976562H23.9174C25.1716 0.000304701 25.9165 0.750485 25.9165 2.01445V23.1752C26.6204 22.8183 27.051 22.2949 27.2475 21.5877C27.3136 21.3184 27.3437 21.0416 27.3371 20.7645C27.3435 18.1276 27.3435 15.4904 27.3371 12.8527C27.3332 11.8341 27.7012 11.0307 28.5811 10.4791C28.626 10.4416 28.6626 10.3951 28.6885 10.3426C28.7144 10.2901 28.729 10.2327 28.7314 10.1742C28.7461 9.58736 28.7378 8.9999 28.7385 8.41308C28.7385 7.93773 28.9215 7.69109 29.2696 7.68917C29.6068 7.68917 29.7815 7.91147 29.8052 8.37785C29.8103 8.40959 29.8171 8.44103 29.8257 8.47202C30.5225 8.41308 31.1452 8.59054 31.6021 9.16582C31.7526 9.35391 31.8641 9.57018 31.93 9.80197C31.9959 10.0338 32.015 10.2764 31.986 10.5156C31.8862 11.5406 31.0505 12.1723 29.8206 12.1416C29.8122 12.2441 29.809 12.3485 29.7943 12.451C29.7808 12.5799 29.7213 12.6995 29.6266 12.788C29.5319 12.8764 29.4086 12.9276 29.2792 12.9321C29.1442 12.9338 29.0137 12.8839 28.9142 12.7926C28.8147 12.7013 28.7537 12.5755 28.7436 12.4407C28.7257 12.2396 28.7404 12.0365 28.7065 11.8244C28.4819 12.0615 28.4025 12.3491 28.4032 12.6688C28.4032 14.0675 28.4032 15.4662 28.4032 16.8649C28.4032 18.1782 28.4032 19.4915 28.4032 20.8048C28.4032 22.3878 27.586 23.6281 26.1321 24.2309C25.9453 24.3091 25.9101 24.4116 25.9101 24.5897C25.9152 26.2767 25.9163 27.9637 25.9133 29.6507C25.9133 30.8249 25.1454 31.5937 23.9724 31.5956C23.3854 31.5956 22.7988 31.5956 22.2127 31.5956C21.782 31.5956 21.5548 31.4156 21.5497 31.0793C21.5446 30.7429 21.7737 30.5514 22.1986 30.5508C22.7745 30.5508 23.3504 30.5508 23.9263 30.5508C24.5503 30.5469 24.8612 30.2503 24.8619 29.6321C24.8657 24.5497 24.8657 19.4674 24.8619 14.385C24.8588 14.3151 24.8519 14.2454 24.8414 14.1762C18.9414 16.241 13.0587 16.5991 7.14277 14.1538ZM16.0228 1.05094H14.3917C12.2923 1.05094 10.1924 1.05094 8.09176 1.05094C7.47809 1.05094 7.14597 1.33346 7.14533 1.88376C7.14107 5.50162 7.13936 9.11948 7.14021 12.7373C7.14021 12.9154 7.19844 13.009 7.36226 13.0686C8.24214 13.3889 9.10666 13.756 9.99997 14.0295C12.3644 14.7515 14.7942 14.8899 17.2457 14.7297C19.7733 14.5644 22.2235 14.0654 24.5727 13.0929C24.7928 13.0019 24.8753 12.8956 24.8747 12.6528C24.867 9.13059 24.8653 5.60882 24.8696 2.08748C24.8696 1.31872 24.5963 1.05094 23.8272 1.05094H16.0228ZM30.1399 11.089C30.4496 11.0839 30.694 10.9545 30.8438 10.6771C30.9204 10.5474 30.9554 10.3973 30.9439 10.247C30.9325 10.0968 30.8752 9.95374 30.7798 9.83721C30.6979 9.71716 30.581 9.62539 30.445 9.57447C30.309 9.52355 30.1607 9.51597 30.0202 9.55276C29.9689 9.57375 29.9234 9.60685 29.8876 9.64924C29.8519 9.69163 29.8269 9.74205 29.8148 9.79621C29.7892 10.1165 29.8212 10.4368 29.7994 10.7572C29.7815 11.0224 29.9159 11.0896 30.1399 11.089ZM2.19243 10.3081C2.19243 10.1486 2.18155 9.98775 2.19243 9.83016C2.2097 9.62003 2.10796 9.5502 1.91598 9.53419C1.71753 9.52631 1.52357 9.59463 1.37377 9.72519C1.22397 9.85574 1.12966 10.0387 1.11012 10.2365C1.09059 10.4344 1.1473 10.6323 1.26867 10.7897C1.39004 10.947 1.56689 11.0521 1.76305 11.0832C2.10668 11.1146 2.19115 11.0371 2.19307 10.688C2.19371 10.563 2.19307 10.4356 2.19243 10.3081Z" fill="#183087"/>
<path d="M13.028 27.1111C13.0239 26.7206 13.0984 26.3332 13.2469 25.9722C13.3954 25.6111 13.615 25.2836 13.8925 25.0091C14.3769 24.5139 14.869 24.0258 15.3643 23.5389C15.7751 23.1327 16.2218 23.125 16.6288 23.5242C17.1305 24.0168 17.6347 24.5088 18.1178 25.0194C18.9625 25.9124 19.2114 26.9682 18.7987 28.1226C18.3956 29.2508 17.5547 29.9017 16.3638 30.0727C14.6143 30.3238 13.0229 28.9061 13.028 27.1111ZM16.017 24.4467C15.5166 24.9303 14.9976 25.3775 14.542 25.8823C13.8484 26.6511 13.9411 27.8266 14.7052 28.5339C15.0631 28.8612 15.5315 29.0408 16.0163 29.0366C16.5011 29.0325 16.9663 28.8449 17.3186 28.5115C18.0711 27.7953 18.1396 26.6216 17.4395 25.8567C16.9865 25.3621 16.4873 24.9105 16.017 24.4467Z" fill="#183087"/>
<path d="M16.0177 16.256C16.8361 16.2645 17.6176 16.5981 18.1902 17.1834C18.7629 17.7687 19.0799 18.5578 19.0714 19.3771C19.0629 20.1964 18.7297 20.9788 18.145 21.5521C17.5603 22.1254 16.7721 22.4427 15.9537 22.4342C14.2497 22.4137 12.9065 21.0248 12.9193 19.2951C12.9287 18.4811 13.2602 17.7041 13.841 17.1344C14.4219 16.5647 15.2046 16.2488 16.0177 16.256ZM16.0043 17.3085C15.6018 17.308 15.2081 17.427 14.8732 17.6505C14.5382 17.874 14.277 18.1919 14.1226 18.5641C13.9681 18.9362 13.9274 19.3458 14.0055 19.7411C14.0836 20.1365 14.2771 20.4997 14.5615 20.7849C14.8458 21.0701 15.2083 21.2645 15.603 21.3435C15.9977 21.4224 16.407 21.3824 16.779 21.2285C17.151 21.0746 17.469 20.8137 17.6929 20.4788C17.9168 20.1439 18.0364 19.75 18.0366 19.347C18.0323 18.8084 17.8169 18.293 17.4368 17.9117C17.0567 17.5305 16.5423 17.3139 16.0043 17.3085Z" fill="#183087"/>
<path d="M21.786 17.3535C22.1797 17.354 22.5644 17.4714 22.8916 17.6907C23.2187 17.9101 23.4735 18.2216 23.6239 18.5859C23.7742 18.9502 23.8133 19.3509 23.7363 19.7374C23.6592 20.124 23.4694 20.479 23.1908 20.7576C22.9123 21.0361 22.5575 21.2258 22.1713 21.3026C21.7852 21.3794 21.3849 21.3399 21.0212 21.189C20.6574 21.0381 20.3465 20.7827 20.1277 20.455C19.909 20.1273 19.7921 19.742 19.792 19.3478C19.7918 19.0857 19.8433 18.8261 19.9435 18.584C20.0436 18.3418 20.1905 18.1218 20.3758 17.9366C20.561 17.7513 20.7809 17.6045 21.0228 17.5044C21.2648 17.4044 21.5241 17.3531 21.786 17.3535ZM21.802 18.4054C21.5533 18.4022 21.3136 18.498 21.1355 18.6717C20.9574 18.8454 20.8555 19.0829 20.8523 19.3318C20.8491 19.5807 20.9448 19.8207 21.1183 19.999C21.2918 20.1773 21.529 20.2793 21.7776 20.2825C22.0263 20.2857 22.266 20.1899 22.4441 20.0162C22.6222 19.8425 22.724 19.605 22.7273 19.3561C22.7305 19.1072 22.6348 18.8672 22.4613 18.6889C22.2878 18.5106 22.0506 18.4087 21.802 18.4054Z" fill="#183087"/>
<path d="M10.1927 21.3406C9.79925 21.3353 9.41619 21.2134 9.09188 20.9903C8.76757 20.7672 8.51655 20.4529 8.37051 20.0871C8.22446 19.7213 8.18994 19.3204 8.27131 18.9349C8.35267 18.5495 8.54627 18.1969 8.82766 17.9215C9.10905 17.6461 9.46563 17.4604 9.85237 17.3877C10.2391 17.3151 10.6387 17.3587 11.0007 17.5132C11.3626 17.6677 11.6708 17.9261 11.8862 18.2558C12.1016 18.5855 12.2146 18.9716 12.211 19.3656C12.2081 19.6279 12.1535 19.8872 12.0505 20.1284C11.9475 20.3697 11.798 20.5883 11.6106 20.7717C11.4231 20.9551 11.2015 21.0998 10.9582 21.1974C10.7149 21.295 10.4548 21.3437 10.1927 21.3406ZM11.1423 19.3329C11.1395 19.1482 11.0821 18.9684 10.9772 18.8164C10.8723 18.6643 10.7248 18.5469 10.5532 18.4788C10.3817 18.4107 10.1938 18.3951 10.0134 18.4339C9.83296 18.4727 9.66809 18.5643 9.53963 18.6969C9.41117 18.8295 9.32488 18.9973 9.29169 19.1791C9.25849 19.3608 9.27988 19.5483 9.35314 19.7179C9.42641 19.8875 9.54826 20.0315 9.70328 20.1317C9.85831 20.232 10.0395 20.2839 10.2241 20.281C10.3468 20.2799 10.468 20.2543 10.5808 20.2059C10.6936 20.1575 10.7956 20.0872 10.881 19.999C10.9664 19.9108 11.0335 19.8065 11.0784 19.6922C11.1232 19.5778 11.145 19.4557 11.1423 19.3329Z" fill="#183087"/>
<path d="M16.0056 2.41991C18.2346 2.41991 20.4632 2.41991 22.6913 2.41991C23.5751 2.41991 23.9072 2.75303 23.9072 3.63711V10.6841C23.9072 11.5624 23.5693 11.8974 22.6837 11.8974H9.27882C8.45014 11.8974 8.10522 11.5566 8.10522 10.7385C8.10522 8.33657 8.10522 5.93463 8.10522 3.53268C8.10522 2.77738 8.46101 2.42055 9.22315 2.41991C11.4846 2.41862 13.7454 2.41862 16.0056 2.41991ZM22.8257 10.8186V3.49489H9.17068V10.8186H22.8257Z" fill="#183087"/>
<path d="M17.0114 27.7027C17.0129 27.8079 16.9833 27.9111 16.9262 27.9994C16.8691 28.0877 16.7871 28.157 16.6906 28.1986C16.5942 28.2403 16.4876 28.2524 16.3843 28.2333C16.2809 28.2143 16.1856 28.165 16.1103 28.0918C16.0349 28.0185 15.983 27.9245 15.961 27.8217C15.939 27.7188 15.948 27.6118 15.9868 27.514C16.0255 27.4163 16.0924 27.3323 16.1789 27.2726C16.2654 27.2129 16.3676 27.1802 16.4726 27.1787C16.6125 27.1799 16.7465 27.2351 16.8469 27.3327C16.9472 27.4302 17.0062 27.5628 17.0114 27.7027Z" fill="#183087"/>
<path d="M15.9877 19.8688C15.9181 19.8688 15.8491 19.8549 15.7849 19.8278C15.7207 19.8007 15.6625 19.7611 15.6139 19.7112C15.5652 19.6613 15.527 19.6021 15.5015 19.5372C15.476 19.4723 15.4638 19.4029 15.4655 19.3332C15.4672 19.2635 15.4828 19.1948 15.5115 19.1312C15.5401 19.0676 15.5811 19.0104 15.6322 18.9629C15.6832 18.9155 15.7433 18.8787 15.8087 18.8548C15.8742 18.831 15.9438 18.8204 16.0133 18.8239C16.0825 18.8231 16.151 18.8367 16.2148 18.8636C16.2785 18.8905 16.336 18.9303 16.3837 18.9804C16.4314 19.0305 16.4683 19.0899 16.4921 19.1549C16.5159 19.2199 16.5261 19.2891 16.5221 19.3582C16.5219 19.4272 16.5077 19.4956 16.4805 19.559C16.4533 19.6225 16.4135 19.6798 16.3636 19.7275C16.3137 19.7752 16.2547 19.8123 16.1901 19.8365C16.1255 19.8608 16.0567 19.8718 15.9877 19.8688Z" fill="#183087"/>
<path d="M17.0166 7.16251C17.0166 7.42901 17.0224 7.69552 17.0166 7.96138C17.007 8.30027 16.7933 8.52385 16.4919 8.52449C16.4222 8.52645 16.3528 8.51412 16.288 8.48826C16.2232 8.46241 16.1644 8.42358 16.1152 8.37414C16.0659 8.32471 16.0273 8.26573 16.0016 8.20081C15.9759 8.13589 15.9638 8.0664 15.9659 7.99661C15.9531 7.43222 15.9525 6.86718 15.9659 6.30342C15.9659 6.23369 15.9798 6.16466 16.007 6.10046C16.0342 6.03626 16.0741 5.97821 16.1242 5.92977C16.1743 5.88133 16.2337 5.84351 16.2987 5.81855C16.3638 5.79359 16.4332 5.78202 16.5028 5.78451C16.7882 5.79476 16.9974 6.0177 17.0147 6.33161C17.0147 6.35339 17.0147 6.37453 17.0147 6.39568L17.0166 7.16251Z" fill="#183087"/>
<path d="M21.3911 7.17129C21.3911 7.44804 21.4013 7.72543 21.3911 8.00411C21.3757 8.32442 21.1601 8.52943 20.8638 8.52558C20.5675 8.52174 20.3519 8.31033 20.348 7.99002C20.3378 7.4348 20.3378 6.88087 20.348 6.32822C20.3538 6.01431 20.5784 5.79201 20.8599 5.78624C21.1581 5.78048 21.3719 6.0047 21.3936 6.34231C21.3936 6.36409 21.3936 6.38523 21.3936 6.40637V7.17513L21.3911 7.17129Z" fill="#183087"/>
<path d="M19.2032 7.15555C19.2032 7.43295 19.2109 7.7097 19.2032 7.98837C19.1917 8.30869 18.9812 8.5201 18.6913 8.52586C18.3873 8.53227 18.1672 8.31317 18.1621 7.97428C18.154 7.43102 18.154 6.88777 18.1621 6.34451C18.1672 6.00882 18.3944 5.78012 18.69 5.78524C18.9856 5.79037 19.1981 6.02035 19.2071 6.36181C19.2147 6.62767 19.2071 6.89417 19.2071 7.16004L19.2032 7.15555Z" fill="#183087"/>
</g>
<defs>
<clipPath id="clip0_206_736">
<rect width="32" height="31.596" fill="white"/>
</clipPath>
</defs>
</svg>
