<svg width="28" height="32" viewBox="0 0 28 32" fill="none" xmlns="http://www.w3.org/2000/svg">
<g clip-path="url(#clip0_206_673)">
<path d="M4.92913 22.0624H2.85152C2.38185 22.0624 2.38185 21.3574 2.85152 21.3574H4.92913C5.3988 21.3574 5.3988 22.0624 4.92913 22.0624Z" fill="#183087"/>
<mask id="mask0_206_673" style="mask-type:luminance" maskUnits="userSpaceOnUse" x="0" y="0" width="28" height="32">
<path d="M27.6622 0.0302734H0.0454102V31.9676H27.6622V0.0302734Z" fill="white"/>
</mask>
<g mask="url(#mask0_206_673)">
<path d="M5.269 14.3442C5.269 14.4641 5.23346 14.5812 5.16688 14.6809C5.1003 14.7805 5.00566 14.8582 4.89494 14.904C4.78422 14.9499 4.66239 14.9619 4.54485 14.9385C4.42731 14.9151 4.31934 14.8574 4.2346 14.7727C4.14986 14.6879 4.09215 14.58 4.06877 14.4624C4.04539 14.3449 4.05739 14.2231 4.10325 14.1123C4.14911 14.0016 4.22678 13.907 4.32642 13.8404C4.42607 13.7738 4.54322 13.7383 4.66306 13.7383C4.82377 13.7383 4.97789 13.8021 5.09152 13.9158C5.20516 14.0294 5.269 14.1835 5.269 14.3442Z" fill="#183087" stroke="#183087" stroke-width="3" stroke-miterlimit="10"/>
<path d="M22.9029 25.2817C22.8384 24.2552 23.1409 22.6808 23.8313 21.7851C24.3073 21.1667 24.7367 20.5632 25.1195 19.9746C25.1595 19.8955 25.1682 19.8043 25.1438 19.7191C25.1195 19.6339 25.0638 19.561 24.988 19.5151C24.9123 19.4692 24.8219 19.4536 24.7351 19.4714C24.6484 19.4892 24.5715 19.5391 24.5199 19.6112C24.1505 20.175 23.735 20.757 23.2735 21.3572C22.4705 22.4001 22.1243 24.1443 22.1998 25.328C22.3224 27.2512 22.9356 29.585 23.2899 30.805C23.3023 30.8488 23.3045 30.8948 23.2963 30.9395C23.288 30.9843 23.2695 31.0265 23.2423 31.0629C23.215 31.0993 23.1797 31.1289 23.1391 31.1494C23.0985 31.1699 23.0537 31.1808 23.0083 31.1811H12.4648C12.3953 31.1814 12.3278 31.1571 12.2743 31.1126C12.2208 31.0681 12.1847 31.0062 12.1723 30.9377C11.878 29.2534 11.392 27.1222 10.747 26.5226C10.231 26.043 9.46334 25.9076 8.6303 25.9076C8.0532 25.9188 7.47707 25.96 6.90425 26.0312C6.51907 26.0711 6.15297 26.1102 5.83864 26.122C3.63385 26.2383 3.53392 25.1182 3.36131 23.2613C3.31416 22.5132 3.19583 21.7713 3.00793 21.0456C2.89366 20.6358 2.69963 20.2525 2.43696 19.9178C2.17428 19.5831 1.84813 19.3036 1.4772 19.0952C0.992996 18.7745 0.796772 18.6237 0.817666 18.1468C0.826751 17.9587 1.14107 17.6162 1.44359 17.281C2.15944 16.4889 3.24049 15.2924 3.24412 13.3856C3.24412 12.9314 3.20143 12.3572 3.15873 11.7985C3.12512 11.3643 3.09332 10.9528 3.08242 10.6176C3.04361 9.41049 3.26209 8.20897 3.72336 7.09283C4.18464 5.97669 4.87814 4.97148 5.75779 4.14398C8.09886 1.85107 11.5664 0.64465 15.2765 0.838149C21.6638 1.1661 25.8472 4.76173 26.7447 10.7021C27.0699 12.8496 26.8546 14.801 26.008 16.8422C25.9008 17.0984 26.0316 17.3546 26.2096 17.4055C26.2821 17.4189 26.3569 17.4107 26.4247 17.3819C26.4925 17.3532 26.5504 17.3051 26.5912 17.2438C27.5305 15.029 27.7885 12.8987 27.4415 10.5967C26.4876 4.29569 22.0662 0.48113 15.3101 0.135012C11.4111 -0.066663 7.74729 1.20879 5.26905 3.64161C4.326 4.54115 3.58205 5.62845 3.08524 6.83332C2.58843 8.03818 2.34979 9.33384 2.38474 10.6366C2.39564 10.9937 2.42834 11.4106 2.46286 11.8512C2.50556 12.3963 2.54826 12.9595 2.54735 13.382C2.54735 15.0172 1.60801 16.0528 0.927588 16.8077C0.489718 17.2919 0.1436 17.6744 0.120889 18.1086C0.0691072 19.0089 0.608724 19.3659 1.0902 19.682C1.3926 19.8436 1.65891 20.065 1.87289 20.3329C2.08687 20.6008 2.24402 20.9094 2.33477 21.24C2.51047 21.9223 2.62029 22.6198 2.66272 23.3231C2.82624 25.1173 2.99884 26.9732 5.86953 26.8242C6.20475 26.8115 6.57994 26.7715 6.97693 26.7334C8.15791 26.608 9.63413 26.4518 10.2646 27.0414C10.6407 27.3893 11.1022 28.9291 11.4765 31.063C11.5171 31.295 11.6384 31.5051 11.8189 31.6564C11.9994 31.8076 12.2275 31.8903 12.463 31.8897H23.001C23.1561 31.8902 23.3092 31.8545 23.4482 31.7855C23.5872 31.7165 23.7081 31.6161 23.8016 31.4923C23.895 31.3684 23.9583 31.2245 23.9865 31.072C24.0147 30.9194 24.007 30.7624 23.964 30.6134C23.6197 29.4142 23.021 27.1349 22.9029 25.2817Z" fill="#183087"/>
</g>
<path d="M20.4508 16.549C19.2798 16.549 18.1515 16.0848 16.9896 15.6033C15.7087 15.0801 14.3851 14.535 12.8571 14.535C9.802 14.535 7.51362 13.8128 6.23998 12.4456C5.85444 12.041 5.55869 11.5596 5.37208 11.0328C5.18547 10.506 5.11222 9.94572 5.15711 9.38867C5.45509 5.17802 8.44841 2.68343 13.5875 2.37092C15.4261 2.25232 17.2677 2.55313 18.973 3.25062C20.6784 3.94812 22.2029 5.02406 23.4314 6.39715C24.9213 8.13683 26.204 12.8862 23.7457 15.1182C22.5757 16.1793 21.4955 16.549 20.4508 16.549ZM13.6266 3.0141C8.84813 3.30753 6.06919 5.58773 5.79939 9.43318C5.76186 9.90119 5.82336 10.3719 5.97989 10.8145C6.13641 11.2572 6.38445 11.6619 6.70783 12.0023C7.85792 13.2341 9.97824 13.8855 12.8535 13.8855C14.5077 13.8855 15.9549 14.4814 17.2304 15.0074C19.4106 15.9049 21.1303 16.6154 23.3079 14.6386C25.37 12.7699 24.2844 8.38574 22.9372 6.81867C21.7751 5.52039 20.333 4.50326 18.72 3.84415C17.107 3.18505 15.3653 2.90121 13.6266 3.0141Z" fill="#183087"/>
<path d="M19.876 13.6586C18.7532 13.6586 17.5649 13.2434 16.3994 12.841C15.282 12.4503 14.2191 12.0833 13.2716 12.0833C10.6662 12.0833 8.9165 11.5646 8.0771 10.539C7.83443 10.237 7.66393 9.88365 7.5786 9.5058C7.49327 9.12795 7.49536 8.7356 7.58472 8.35868C8.12979 5.61699 11.3775 5.08828 14.1428 4.93747C17.5249 4.75124 19.9005 6.16933 21.592 7.42571C22.0574 7.80808 22.4343 8.28673 22.697 8.82871C22.9597 9.37068 23.1018 9.96313 23.1137 10.5653C23.1419 11.0006 23.0687 11.4365 22.8997 11.8387C22.7307 12.2409 22.4706 12.5983 22.1398 12.8827C21.5 13.405 20.6944 13.6811 19.8687 13.6613L19.876 13.6586ZM14.1882 5.71147C10.4981 5.91405 8.69302 6.77435 8.35145 8.50585C8.28373 8.7699 8.27818 9.04606 8.33524 9.31261C8.3923 9.57916 8.51042 9.82885 8.68031 10.042C9.15088 10.6171 10.331 11.3039 13.2725 11.3039C14.3626 11.3039 15.5264 11.7099 16.6565 12.1042C18.5297 12.7574 20.3011 13.376 21.6529 12.2759C21.89 12.0649 22.0752 11.802 22.1938 11.5076C22.3125 11.2132 22.3615 10.8954 22.337 10.5789C22.3267 10.0954 22.2136 9.6195 22.0053 9.18298C21.797 8.74645 21.4982 8.35925 21.1287 8.04709C19.5426 6.86611 17.3187 5.53796 14.1819 5.71147H14.1882Z" fill="#183087"/>
<path d="M18.9774 11.3682C18.3079 11.3682 17.4567 11.1438 16.4746 10.8839C15.5456 10.6115 14.5963 10.4137 13.6357 10.2926C13.3914 10.2689 13.1588 10.2517 12.939 10.2344C11.5508 10.1254 10.3517 10.0318 10.3535 8.7382C10.3605 8.57859 10.3993 8.422 10.4678 8.27767C10.5363 8.13334 10.6331 8.0042 10.7523 7.89789C11.3882 7.26834 12.7118 6.86499 14.1227 6.88134C17.1814 6.90678 19.7723 8.86811 19.7968 8.88809C19.9843 9.05076 20.1347 9.25184 20.2376 9.47771C20.3406 9.70357 20.3938 9.94893 20.3937 10.1972C20.3968 10.374 20.3579 10.549 20.28 10.7078C20.2021 10.8665 20.0876 11.0045 19.9458 11.1102C19.6598 11.2973 19.3213 11.3877 18.9801 11.3682H18.9774ZM14.0563 7.58538C12.6819 7.58538 11.6571 7.99055 11.2456 8.39663C11.1431 8.48318 11.0762 8.60447 11.0576 8.73729C11.0576 9.31597 11.4482 9.40954 12.9926 9.53127C13.216 9.54853 13.4531 9.5667 13.702 9.59032C14.7007 9.71517 15.6877 9.91992 16.6536 10.2026C17.8564 10.5197 19.0955 10.8485 19.5288 10.5378C19.5829 10.4976 19.6257 10.4441 19.6532 10.3825C19.6808 10.321 19.692 10.2534 19.686 10.1863C19.6848 10.0475 19.656 9.91033 19.6011 9.78287C19.5461 9.65541 19.4663 9.54022 19.3662 9.44406C19.3417 9.42589 16.9397 7.6081 14.1145 7.58538H14.0563Z" fill="#183087"/>
</g>
<defs>
<clipPath id="clip0_206_673">
<rect width="27.7031" height="32" fill="white"/>
</clipPath>
</defs>
</svg>
