<svg width="32" height="28" viewBox="0 0 32 28" fill="none" xmlns="http://www.w3.org/2000/svg">
<g clip-path="url(#clip0_206_837)">
<path d="M25.9512 26.9423C28.0399 23.8653 28.3316 14.6273 26.9404 11.1428V11.1383C26.7175 10.5442 26.4555 9.96558 26.1563 9.40608C25.9941 9.27388 25.7862 9.22374 25.644 9.28938C25.5916 9.31641 25.5454 9.35403 25.5084 9.39986C25.4714 9.44569 25.4443 9.49873 25.4288 9.55559C25.4025 9.64691 25.3955 9.74269 25.4083 9.83686C25.421 9.93102 25.4531 10.0215 25.5027 10.1026C25.5984 10.2941 25.7224 10.5466 25.8527 10.8575C25.9539 11.0872 26.0351 11.2942 26.098 11.4719C27.4774 14.9245 26.9504 23.8763 25.2146 26.4354C25.0568 26.6742 24.7341 27.0735 24.3485 27.0735C22.9326 27.0735 21.7839 24.6694 21.2251 23.2363C20.3836 21.0792 19.9296 18.8183 19.9296 17.7862C19.9258 17.2505 20.0989 16.7285 20.4219 16.3011C20.6615 15.9655 20.8201 15.5788 20.885 15.1715L20.9133 14.9956L21.7392 15.8216V15.8544C21.9352 18.1354 22.9337 20.2729 24.5572 21.887C24.6532 21.9382 24.7634 21.9562 24.8707 21.938C24.9779 21.9199 25.0761 21.8666 25.1498 21.7867C25.2092 21.712 25.245 21.6213 25.2527 21.5261C25.2603 21.431 25.2394 21.3357 25.1927 21.2525C24.5224 20.5753 23.9628 19.7969 23.5343 18.9459C23.1063 18.0916 22.8185 17.1739 22.6819 16.2282L22.6664 16.1197H22.7758C23.3515 16.1459 23.8965 16.3869 24.3032 16.7951C24.71 17.2034 24.9489 17.7493 24.973 18.3251C24.9938 18.4408 25.0565 18.5449 25.1492 18.6174C25.2418 18.6898 25.3579 18.7257 25.4753 18.718C25.5743 18.7045 25.6664 18.6595 25.7379 18.5898C25.8095 18.52 25.8567 18.4291 25.8728 18.3305C25.8163 17.2593 25.3531 16.5783 24.973 16.1954C24.3576 15.5727 23.496 15.2363 22.4102 15.1925H22.3747L22.3492 15.167L16.1753 8.96756C16.1104 8.90267 16.059 8.82565 16.0239 8.74089C15.9889 8.65613 15.9709 8.56529 15.9709 8.47356C15.971 8.28831 16.0447 8.11068 16.1757 7.97975C16.2406 7.91492 16.3176 7.86351 16.4024 7.82845C16.4871 7.79338 16.578 7.77536 16.6697 7.7754C16.855 7.77549 17.0326 7.84916 17.1635 7.98021L21.3335 12.1493C21.6268 12.5329 22.0013 12.8468 22.4302 13.0686C22.8591 13.2903 23.3317 13.4145 23.8142 13.4321C24.5055 13.4162 25.1722 13.1723 25.7105 12.7383C25.7846 12.6614 25.8297 12.5612 25.8382 12.4549C25.8466 12.3485 25.818 12.2424 25.757 12.1548C25.693 12.0653 25.5988 12.0019 25.4917 11.9764C25.3846 11.951 25.2719 11.9651 25.1745 12.0162C24.8071 12.3397 24.3358 12.5205 23.8464 12.5257C23.3569 12.5309 22.8819 12.3601 22.5078 12.0445L19.9815 9.51822L19.9879 9.47263C20.255 7.62101 21.0819 6.33098 21.6599 6.33098C22.5716 6.33098 23.5052 6.99012 24.446 8.29109C24.5223 8.33267 24.608 8.35362 24.6949 8.35186C24.7817 8.3501 24.8666 8.3257 24.9411 8.28106C24.9862 8.24535 25.0239 8.201 25.0517 8.1506C25.0796 8.1002 25.0971 8.04475 25.1033 7.9875C25.1146 7.89858 25.1079 7.8083 25.0836 7.72201C25.0593 7.63573 25.018 7.55519 24.962 7.48517C23.8862 6.12403 22.7758 5.43297 21.6499 5.43297C20.4055 5.43297 19.5804 7.05577 19.223 8.57463L19.1856 8.73417L17.9339 7.48152C17.8841 7.4351 17.845 7.37851 17.819 7.31559C17.7925 7.25074 17.7786 7.18144 17.778 7.11138V7.07035C17.7844 6.9646 17.7844 4.40642 17.778 0.545452C17.7643 0.388444 17.692 0.242332 17.5756 0.136107C17.4806 0.0665506 17.3669 0.0271629 17.2492 0.0230583C16.8927 -0.00246875 15.8142 -0.0124972 14.2069 0.0230583C14.056 0.0198949 13.9094 0.0732191 13.7958 0.172574C13.6959 0.274675 13.64 0.411769 13.6399 0.554568C13.6399 2.04881 13.6399 3.38078 13.6399 4.44471C13.6399 6.0128 13.6399 7.04938 13.6399 7.11502C13.6443 7.18309 13.6325 7.25123 13.6052 7.31377C13.5851 7.35954 13.556 7.40078 13.5195 7.43502L12.2432 8.71138L12.1958 8.5728C11.8712 7.63559 11.1227 5.43297 9.74881 5.43297C6.50961 5.43297 4.48568 11.0617 4.46745 11.1228C3.59679 13.2926 3.3552 17.9148 3.90312 21.8806C3.92977 21.9857 3.99151 22.0785 4.07811 22.1437C4.16471 22.209 4.27098 22.2426 4.37934 22.2392C4.48769 22.2358 4.59164 22.1955 4.67398 22.125C4.75632 22.0545 4.81211 21.958 4.83212 21.8514C4.35257 18.4782 4.36443 13.8213 5.31349 11.4409C5.81856 10.0224 7.60181 6.33554 9.75246 6.33554C10.3268 6.33554 11.1574 7.62283 11.4318 9.4699L11.4382 9.51548L8.93104 12.0226C8.55779 12.347 8.07992 12.5257 7.5854 12.5257C7.09087 12.5257 6.613 12.347 6.23975 12.0226C6.15437 11.9807 6.05819 11.9659 5.96415 11.9802C5.87011 11.9946 5.78272 12.0373 5.71371 12.1028C5.63415 12.1896 5.58925 12.3025 5.58757 12.4202C5.58589 12.5379 5.62754 12.652 5.7046 12.741C6.29993 13.226 6.93537 13.4585 7.59816 13.4321C8.0802 13.4117 8.55197 13.2863 8.98047 13.0646C9.40897 12.8429 9.78384 12.5302 10.0788 12.1484L10.0861 12.1402L14.2443 7.98203C14.3784 7.86941 14.5499 7.81128 14.7249 7.81916C14.8998 7.82704 15.0654 7.90037 15.1888 8.0246C15.3123 8.14883 15.3845 8.3149 15.3913 8.48989C15.398 8.66488 15.3388 8.83602 15.2253 8.96938L9.01765 15.1816H8.98209C6.24705 15.2873 5.5177 17.2784 5.5177 18.3178C5.52794 18.419 5.56998 18.5143 5.63779 18.5902C5.7056 18.666 5.79569 18.7184 5.89514 18.7399C5.95103 18.748 6.00797 18.7448 6.06262 18.7306C6.11726 18.7163 6.1685 18.6913 6.21332 18.6569C6.32283 18.5776 6.39681 18.4584 6.41936 18.3251C6.43936 17.7478 6.67683 17.1995 7.08413 16.79C7.49144 16.3805 8.03848 16.1401 8.61559 16.117L8.72591 16.1115L8.71041 16.2209C8.4302 18.1196 7.55048 19.879 6.19964 21.2424C6.14312 21.3312 6.11856 21.4365 6.13002 21.5411C6.14147 21.6457 6.18826 21.7432 6.26265 21.8176C6.33704 21.892 6.43458 21.9388 6.53916 21.9502C6.64373 21.9617 6.74909 21.9371 6.83782 21.8806C7.64001 21.081 8.29681 20.1478 8.77879 19.1228C9.25933 18.0902 9.55612 16.9817 9.65582 15.8471V15.8143L10.4818 14.9883L10.5101 15.1652C10.5769 15.5728 10.736 15.9597 10.975 16.2966C11.2999 16.7235 11.4722 17.2471 11.4646 17.7835C11.4646 18.8146 11.0088 21.0756 10.1691 23.2326C9.61024 24.6658 8.46061 27.0699 7.04568 27.0699C6.76124 27.0699 6.47041 26.8538 6.17958 26.4317C5.81491 25.8902 5.49218 25.0706 5.22961 23.9939C5.15775 23.8701 5.04025 23.7795 4.90232 23.7414C4.84614 23.7253 4.78733 23.7204 4.72929 23.7272C4.67124 23.7339 4.61509 23.752 4.56409 23.7806C4.48295 23.8345 4.42025 23.912 4.3844 24.0026C4.34855 24.0932 4.34126 24.1926 4.36352 24.2874C4.66163 25.4371 5.02357 26.3278 5.43748 26.9313L5.44295 26.9395C5.59981 27.2348 5.83029 27.4845 6.11205 27.6646C6.39381 27.8446 6.71729 27.9487 7.05115 27.967C8.86448 27.967 10.1764 25.6513 10.9568 23.7094C11.8265 21.546 12.3644 18.9477 12.3644 17.7835C12.3694 17.079 12.1479 16.3916 11.7326 15.8225C11.3825 15.2755 11.1546 14.9208 11.7381 13.7338L11.7445 13.7202L15.3821 10.0825C15.4213 10.0352 15.4702 9.99688 15.5256 9.97028C15.581 9.94368 15.6416 9.92941 15.703 9.92847H15.7358C15.8374 9.94145 15.9315 9.98911 16.002 10.0634C16.6062 10.6675 17.2097 11.272 17.8126 11.8767C18.4156 12.4815 19.027 13.0938 19.6469 13.7138L19.6597 13.7293C19.9688 14.2179 20.0818 14.6884 19.997 15.1278C19.9478 15.3749 19.8293 15.5709 19.6661 15.8225C19.2481 16.3919 19.0243 17.0808 19.0279 17.7872C19.0279 18.955 19.5658 21.5533 20.4355 23.7131C21.2159 25.655 22.5324 27.9706 24.3466 27.9706C24.6793 27.9491 25.001 27.8435 25.2817 27.6636C25.5623 27.4837 25.7927 27.2355 25.9512 26.9423ZM14.526 0.922887H16.8718V2.1883H14.526V0.922887ZM14.526 3.08631H16.8718V4.35081H14.526V3.08631ZM14.526 7.05485V5.25064H16.8718V7.05576L14.526 7.05485Z" fill="#183087"/>
<path d="M8.45793 9.90267C8.684 9.90267 8.86727 9.7194 8.86727 9.49333C8.86727 9.26725 8.684 9.08398 8.45793 9.08398C8.23185 9.08398 8.04858 9.26725 8.04858 9.49333C8.04858 9.7194 8.23185 9.90267 8.45793 9.90267Z" fill="#183087"/>
<path d="M22.8934 10.0583C23.2167 10.0583 23.4787 9.79625 23.4787 9.47299C23.4787 9.14974 23.2167 8.8877 22.8934 8.8877C22.5702 8.8877 22.3081 9.14974 22.3081 9.47299C22.3081 9.79625 22.5702 10.0583 22.8934 10.0583Z" fill="#183087"/>
<path d="M22.5898 22.141C22.8194 22.141 23.0055 21.9549 23.0055 21.7253C23.0055 21.4957 22.8194 21.3096 22.5898 21.3096C22.3602 21.3096 22.1741 21.4957 22.1741 21.7253C22.1741 21.9549 22.3602 22.141 22.5898 22.141Z" fill="#183087"/>
<path d="M23.4752 24.2585C23.7909 24.2585 24.0468 24.0026 24.0468 23.6869C24.0468 23.3712 23.7909 23.1152 23.4752 23.1152C23.1595 23.1152 22.9036 23.3712 22.9036 23.6869C22.9036 24.0026 23.1595 24.2585 23.4752 24.2585Z" fill="#183087"/>
<path d="M7.69296 24.3591C8.00866 24.3591 8.26459 24.1031 8.26459 23.7874C8.26459 23.4717 8.00866 23.2158 7.69296 23.2158C7.37726 23.2158 7.12134 23.4717 7.12134 23.7874C7.12134 24.1031 7.37726 24.3591 7.69296 24.3591Z" fill="#183087"/>
<path d="M8.363 22.432C8.60015 22.432 8.7924 22.2398 8.7924 22.0026C8.7924 21.7655 8.60015 21.5732 8.363 21.5732C8.12584 21.5732 7.93359 21.7655 7.93359 22.0026C7.93359 22.2398 8.12584 22.432 8.363 22.432Z" fill="#183087"/>
<path d="M16.9164 20.5421C16.8767 20.5429 16.8378 20.554 16.8035 20.5741C16.7692 20.5942 16.7406 20.6227 16.7204 20.657H16.5107C16.4874 20.4179 16.392 20.1915 16.2372 20.0078L16.3858 19.8592C16.4251 19.8698 16.4665 19.8698 16.5058 19.859C16.545 19.8483 16.5807 19.8273 16.6092 19.7981C16.649 19.7545 16.6704 19.6971 16.6691 19.6381C16.6677 19.579 16.6436 19.5227 16.6018 19.4809C16.56 19.4391 16.5038 19.4151 16.4447 19.4137C16.3856 19.4123 16.3283 19.4338 16.2846 19.4736C16.2571 19.502 16.2374 19.5372 16.2274 19.5755C16.2175 19.6139 16.2178 19.6541 16.2281 19.6924L16.0795 19.841C15.8941 19.689 15.6686 19.594 15.4304 19.5675V19.3578C15.4646 19.3376 15.4932 19.309 15.5133 19.2747C15.5334 19.2404 15.5444 19.2015 15.5452 19.1618C15.5382 19.1063 15.5112 19.0553 15.4692 19.0183C15.4272 18.9813 15.3732 18.9609 15.3173 18.9609C15.2614 18.9609 15.2074 18.9813 15.1654 19.0183C15.1235 19.0553 15.0964 19.1063 15.0894 19.1618C15.0903 19.2015 15.1013 19.2404 15.1214 19.2747C15.1415 19.309 15.17 19.3376 15.2043 19.3578V19.5675C14.9652 19.5908 14.7388 19.6862 14.5551 19.841L14.4047 19.6924C14.4156 19.6533 14.4159 19.6121 14.4057 19.5728C14.3955 19.5335 14.3752 19.4977 14.3467 19.4688C14.3182 19.4399 14.2826 19.4191 14.2435 19.4083C14.2044 19.3976 14.1631 19.3974 14.1239 19.4077C14.0847 19.418 14.0489 19.4384 14.0201 19.467C13.9913 19.4955 13.9705 19.5312 13.9599 19.5703C13.9492 19.6094 13.9491 19.6507 13.9595 19.6899C13.9699 19.7291 13.9904 19.7649 14.0191 19.7936C14.0475 19.8227 14.0832 19.8437 14.1225 19.8545C14.1617 19.8652 14.2031 19.8653 14.2424 19.8547L14.391 20.0033C14.239 20.1887 14.144 20.4141 14.1175 20.6524H13.9079C13.8877 20.6181 13.8591 20.5896 13.8248 20.5695C13.7905 20.5494 13.7516 20.5384 13.7118 20.5375C13.6564 20.5446 13.6053 20.5716 13.5684 20.6135C13.5314 20.6555 13.511 20.7095 13.511 20.7654C13.511 20.8214 13.5314 20.8754 13.5684 20.9173C13.6053 20.9593 13.6564 20.9863 13.7118 20.9934C13.7516 20.9925 13.7905 20.9815 13.8248 20.9614C13.8591 20.9413 13.8877 20.9127 13.9079 20.8785H14.1175C14.1408 21.1176 14.2362 21.344 14.391 21.5276L14.2424 21.6762C14.2034 21.6654 14.1621 21.665 14.1229 21.6752C14.0836 21.6854 14.0477 21.7058 14.0188 21.7343C13.99 21.7627 13.9691 21.7983 13.9584 21.8374C13.9476 21.8765 13.9474 21.9178 13.9577 21.957C13.968 21.9963 13.9885 22.0321 14.017 22.0609C14.0456 22.0897 14.0812 22.1104 14.1204 22.1211C14.1595 22.1317 14.2007 22.1318 14.2399 22.1214C14.2791 22.111 14.3149 22.0905 14.3436 22.0619C14.3728 22.0334 14.3938 21.9977 14.4045 21.9585C14.4153 21.9192 14.4153 21.8778 14.4047 21.8385L14.5533 21.6899C14.7387 21.8419 14.9642 21.9369 15.2024 21.9634V22.1731C15.1682 22.1933 15.1396 22.2219 15.1195 22.2562C15.0994 22.2905 15.0884 22.3293 15.0876 22.3691C15.0946 22.4246 15.1216 22.4756 15.1636 22.5126C15.2056 22.5495 15.2596 22.5699 15.3155 22.5699C15.3714 22.5699 15.4254 22.5495 15.4674 22.5126C15.5093 22.4756 15.5364 22.4246 15.5434 22.3691C15.5425 22.3293 15.5315 22.2905 15.5114 22.2562C15.4913 22.2219 15.4628 22.1933 15.4285 22.1731V21.9716C15.6676 21.9483 15.894 21.8529 16.0777 21.6981L16.2263 21.8467C16.2154 21.8858 16.2151 21.927 16.2253 21.9663C16.2355 22.0055 16.2558 22.0414 16.2843 22.0703C16.3128 22.0992 16.3484 22.12 16.3875 22.1308C16.4266 22.1415 16.4678 22.1417 16.5071 22.1314C16.5463 22.1211 16.5821 22.1007 16.6109 22.0721C16.6397 22.0436 16.6605 22.0079 16.6711 21.9688C16.6817 21.9296 16.6819 21.8884 16.6715 21.8492C16.6611 21.81 16.6405 21.7742 16.6119 21.7455C16.5835 21.7164 16.5478 21.6954 16.5085 21.6846C16.4693 21.6739 16.4278 21.6738 16.3885 21.6844L16.2399 21.5358C16.3919 21.3504 16.4869 21.125 16.5134 20.8867H16.7231C16.7433 20.921 16.7719 20.9495 16.8062 20.9696C16.8405 20.9897 16.8794 21.0007 16.9191 21.0016C16.9494 21.0018 16.9794 20.996 17.0073 20.9846C17.0353 20.9731 17.0607 20.9562 17.0821 20.9348C17.1035 20.9134 17.1204 20.888 17.1319 20.86C17.1433 20.832 17.1491 20.8021 17.1489 20.7718C17.1482 20.7111 17.1237 20.6531 17.0808 20.6102C17.0379 20.5672 16.9798 20.5428 16.9191 20.5421H16.9164ZM15.4358 21.7318V21.6844C15.4358 21.6539 15.4237 21.6247 15.4022 21.6032C15.3806 21.5816 15.3514 21.5695 15.321 21.5695C15.2905 21.5695 15.2613 21.5816 15.2397 21.6032C15.2182 21.6247 15.2061 21.6539 15.2061 21.6844V21.7318C14.991 21.7057 14.7909 21.6082 14.6377 21.4551C14.4845 21.3019 14.3871 21.1018 14.361 20.8867H14.4047C14.4352 20.8867 14.4644 20.8746 14.4859 20.853C14.5075 20.8315 14.5196 20.8023 14.5196 20.7718C14.5196 20.7414 14.5075 20.7121 14.4859 20.6906C14.4644 20.6691 14.4352 20.657 14.4047 20.657H14.3573C14.3834 20.4419 14.4809 20.2418 14.6341 20.0886C14.7873 19.9354 14.9874 19.838 15.2024 19.8118V19.8592C15.2024 19.8897 15.2145 19.9189 15.2361 19.9405C15.2576 19.962 15.2868 19.9741 15.3173 19.9741C15.3478 19.9741 15.377 19.962 15.3985 19.9405C15.4201 19.9189 15.4322 19.8897 15.4322 19.8592V19.8118C15.6472 19.838 15.8474 19.9354 16.0005 20.0886C16.1537 20.2418 16.2512 20.4419 16.2773 20.657H16.2299C16.1994 20.657 16.1702 20.6691 16.1487 20.6906C16.1271 20.7121 16.115 20.7414 16.115 20.7718C16.115 20.8023 16.1271 20.8315 16.1487 20.853C16.1702 20.8746 16.1994 20.8867 16.2299 20.8867H16.2773C16.2524 21.1016 16.1559 21.3019 16.0032 21.4552C15.8505 21.6086 15.6507 21.706 15.4358 21.7318Z" fill="#183087"/>
<path d="M14.9416 20.7114C15.0499 20.7114 15.1376 20.6236 15.1376 20.5153C15.1376 20.4071 15.0499 20.3193 14.9416 20.3193C14.8334 20.3193 14.7456 20.4071 14.7456 20.5153C14.7456 20.6236 14.8334 20.7114 14.9416 20.7114Z" fill="#183087"/>
<path d="M15.4358 21.4009C15.5627 21.4009 15.6655 21.298 15.6655 21.1712C15.6655 21.0443 15.5627 20.9414 15.4358 20.9414C15.3089 20.9414 15.2061 21.0443 15.2061 21.1712C15.2061 21.298 15.3089 21.4009 15.4358 21.4009Z" fill="#183087"/>
<path d="M15.8342 20.602C15.9273 20.602 16.0028 20.5265 16.0028 20.4333C16.0028 20.3402 15.9273 20.2646 15.8342 20.2646C15.741 20.2646 15.6655 20.3402 15.6655 20.4333C15.6655 20.5265 15.741 20.602 15.8342 20.602Z" fill="#183087"/>
<path d="M4.8867 5.65226C4.83088 5.65294 4.77623 5.6683 4.72822 5.69678C4.68021 5.72527 4.64054 5.76588 4.6132 5.81454H4.31872C4.28604 5.47732 4.15441 5.15729 3.94038 4.89466L4.15006 4.68497C4.20503 4.6993 4.2628 4.69891 4.31756 4.68384C4.37233 4.66877 4.42217 4.63956 4.46207 4.59913C4.50197 4.5587 4.53052 4.50848 4.54487 4.45351C4.55921 4.39855 4.55884 4.34078 4.54378 4.28601C4.52872 4.23124 4.49952 4.1814 4.4591 4.14149C4.41868 4.10158 4.36847 4.07301 4.31351 4.05865C4.25855 4.0443 4.20078 4.04466 4.146 4.0597C4.09123 4.07474 4.04138 4.10393 4.00146 4.14434C3.96116 4.18403 3.93234 4.23388 3.91805 4.28861C3.90377 4.34333 3.90455 4.40091 3.92032 4.45523L3.71063 4.66491C3.44986 4.44749 3.12893 4.31486 2.79075 4.28474V3.98845C2.8528 3.95324 2.90139 3.8984 2.92889 3.83257C2.95639 3.76673 2.96123 3.69363 2.94265 3.62474C2.92407 3.55586 2.88313 3.4951 2.82626 3.45201C2.76938 3.40893 2.69981 3.38597 2.62847 3.38674C2.55712 3.38597 2.48755 3.40893 2.43068 3.45201C2.37381 3.4951 2.33286 3.55586 2.31429 3.62474C2.29571 3.69363 2.30055 3.76673 2.32804 3.83257C2.35554 3.8984 2.40413 3.95324 2.46619 3.98845V4.27927C2.13014 4.31292 1.81146 4.44483 1.54995 4.65853L1.34026 4.44885C1.35434 4.39441 1.35428 4.33727 1.34008 4.28286C1.32588 4.22845 1.29801 4.17858 1.25912 4.13796C1.19645 4.09068 1.11881 4.06765 1.04049 4.0731C0.962177 4.07856 0.888473 4.11213 0.832962 4.16764C0.777452 4.22315 0.743875 4.29686 0.738421 4.37517C0.732967 4.45349 0.756002 4.53113 0.803282 4.5938C0.842968 4.6341 0.892815 4.66292 0.947544 4.67721C1.00227 4.69149 1.05985 4.69071 1.11417 4.67494L1.32385 4.88463C1.10709 5.14563 0.9751 5.46654 0.945504 5.80451H0.647384C0.619351 5.75645 0.579524 5.71632 0.531667 5.68792C0.483811 5.65953 0.429505 5.6438 0.37388 5.64224C0.330644 5.64175 0.287746 5.6499 0.247706 5.66622C0.207665 5.68254 0.17129 5.7067 0.140715 5.73728C0.110141 5.76785 0.0859837 5.80423 0.0696629 5.84427C0.053342 5.88431 0.0451864 5.9272 0.045675 5.97044C0.0456707 6.01285 0.0540964 6.05484 0.0704622 6.09396C0.086828 6.13309 0.110807 6.16857 0.141007 6.19834C0.171206 6.22812 0.207023 6.25159 0.246374 6.2674C0.285726 6.28321 0.327828 6.29104 0.370233 6.29044C0.426051 6.28976 0.480707 6.27441 0.528715 6.24592C0.576722 6.21744 0.616391 6.17683 0.643738 6.12816H0.934564C0.967246 6.46538 1.09888 6.78542 1.31291 7.04805L1.10322 7.25773C1.04879 7.24365 0.991651 7.24372 0.937243 7.25792C0.882834 7.27212 0.832956 7.29999 0.792342 7.33887C0.745062 7.40154 0.722026 7.47919 0.727481 7.55751C0.732935 7.63582 0.766511 7.70952 0.822022 7.76503C0.877533 7.82055 0.951237 7.85412 1.02955 7.85958C1.10787 7.86503 1.18551 7.84199 1.24818 7.79471C1.28848 7.75503 1.3173 7.70518 1.33159 7.65045C1.34587 7.59572 1.34509 7.53815 1.32932 7.48383L1.53901 7.27414C1.80133 7.49425 2.12505 7.62826 2.46619 7.65796V7.94879C2.40413 7.984 2.35554 8.03883 2.32804 8.10467C2.30055 8.1705 2.29571 8.24361 2.31429 8.31249C2.33286 8.38138 2.37381 8.44214 2.43068 8.48522C2.48755 8.5283 2.55712 8.55127 2.62847 8.5505C2.69981 8.55127 2.76938 8.5283 2.82626 8.48522C2.88313 8.44214 2.92407 8.38138 2.94265 8.31249C2.96123 8.24361 2.95639 8.1705 2.92889 8.10467C2.90139 8.03883 2.8528 7.984 2.79075 7.94879V7.65796C3.12777 7.6258 3.44779 7.49482 3.71063 7.28144L3.92032 7.49112C3.90624 7.54556 3.9063 7.6027 3.9205 7.65711C3.9347 7.71152 3.96257 7.76139 4.00146 7.80201C4.06413 7.84929 4.14178 7.87232 4.22009 7.86687C4.2984 7.86141 4.37211 7.82784 4.42762 7.77233C4.48313 7.71682 4.51671 7.64311 4.52216 7.5648C4.52761 7.48648 4.50458 7.40884 4.4573 7.34617C4.41761 7.30587 4.36777 7.27705 4.31304 7.26276C4.25831 7.24848 4.20074 7.24926 4.14642 7.26503L3.93673 7.05534C4.15349 6.79434 4.28548 6.47343 4.31508 6.13546H4.6059C4.64111 6.19751 4.69594 6.2461 4.76178 6.2736C4.82762 6.3011 4.90072 6.30594 4.96961 6.28736C5.03849 6.26878 5.09925 6.22784 5.14233 6.17096C5.18542 6.11409 5.20838 6.04452 5.20761 5.97318C5.20848 5.93079 5.20077 5.88868 5.18496 5.84935C5.16914 5.81002 5.14553 5.7743 5.11555 5.74432C5.08558 5.71435 5.04986 5.69074 5.01053 5.67492C4.9712 5.6591 4.92908 5.6514 4.8867 5.65226ZM2.78436 7.34252V7.26776C2.78436 7.22472 2.76727 7.18345 2.73683 7.15301C2.7064 7.12258 2.66512 7.10548 2.62209 7.10548C2.57905 7.10548 2.53777 7.12258 2.50734 7.15301C2.4769 7.18345 2.45981 7.22472 2.45981 7.26776V7.34252C2.15347 7.30556 1.86839 7.16689 1.6502 6.9487C1.43202 6.73052 1.29335 6.44544 1.25639 6.1391H1.33115C1.37418 6.1391 1.41546 6.122 1.44589 6.09157C1.47633 6.06114 1.49342 6.01986 1.49342 5.97682C1.49342 5.93378 1.47633 5.89251 1.44589 5.86207C1.41546 5.83164 1.37418 5.81454 1.33115 5.81454H1.25639C1.29343 5.50793 1.43237 5.22264 1.65092 5.00443C1.86946 4.78621 2.15496 4.6477 2.46163 4.61112V4.68588C2.46163 4.72892 2.47873 4.7702 2.50916 4.80063C2.53959 4.83106 2.58087 4.84816 2.62391 4.84816C2.66695 4.84816 2.70822 4.83106 2.73866 4.80063C2.76909 4.7702 2.78619 4.72892 2.78619 4.68588V4.61112C3.09253 4.64809 3.37761 4.78676 3.59579 5.00494C3.81397 5.22313 3.95265 5.50821 3.98961 5.81454H3.91485C3.87181 5.81454 3.83053 5.83164 3.8001 5.86207C3.76967 5.89251 3.75257 5.93378 3.75257 5.97682C3.75257 6.01986 3.76967 6.06114 3.8001 6.09157C3.83053 6.122 3.87181 6.1391 3.91485 6.1391H3.98961C3.95256 6.44571 3.81363 6.731 3.59508 6.94922C3.37653 7.16744 3.09103 7.30594 2.78436 7.34252Z" fill="#183087"/>
<path d="M2.08791 5.89604C2.24501 5.89604 2.37236 5.76869 2.37236 5.61159C2.37236 5.4545 2.24501 5.32715 2.08791 5.32715C1.93082 5.32715 1.80347 5.4545 1.80347 5.61159C1.80347 5.76869 1.93082 5.89604 2.08791 5.89604Z" fill="#183087"/>
<path d="M2.78428 6.86982C2.96352 6.86982 3.10883 6.72451 3.10883 6.54526C3.10883 6.36601 2.96352 6.2207 2.78428 6.2207C2.60503 6.2207 2.45972 6.36601 2.45972 6.54526C2.45972 6.72451 2.60503 6.86982 2.78428 6.86982Z" fill="#183087"/>
<path d="M3.35231 5.73391C3.48674 5.73391 3.59572 5.62493 3.59572 5.49049C3.59572 5.35605 3.48674 5.24707 3.35231 5.24707C3.21787 5.24707 3.10889 5.35605 3.10889 5.49049C3.10889 5.62493 3.21787 5.73391 3.35231 5.73391Z" fill="#183087"/>
<path d="M31.6299 6.80903C31.5741 6.80971 31.5194 6.82507 31.4714 6.85355C31.4234 6.88204 31.3837 6.92265 31.3564 6.97131H31.0656C31.0329 6.63409 30.9012 6.31406 30.6872 6.05143L30.8969 5.84174C30.9519 5.85607 31.0096 5.85568 31.0644 5.84061C31.1192 5.82554 31.169 5.79633 31.2089 5.7559C31.2488 5.71547 31.2774 5.66525 31.2917 5.61028C31.306 5.55532 31.3057 5.49755 31.2906 5.44278C31.2756 5.38801 31.2464 5.33816 31.2059 5.29826C31.1655 5.25835 31.1153 5.22978 31.0603 5.21542C31.0054 5.20107 30.9476 5.20143 30.8928 5.21647C30.8381 5.23151 30.7882 5.2607 30.7483 5.30111C30.708 5.3408 30.6792 5.39065 30.6649 5.44537C30.6506 5.5001 30.6514 5.55768 30.6672 5.612L30.4575 5.82168C30.1965 5.60492 29.8756 5.47293 29.5376 5.44334V5.15251C29.5996 5.1173 29.6482 5.06247 29.6757 4.99663C29.7032 4.9308 29.7081 4.85769 29.6895 4.7888C29.6709 4.71992 29.63 4.65916 29.5731 4.61608C29.5162 4.573 29.4466 4.55003 29.3753 4.5508C29.304 4.55003 29.2344 4.573 29.1775 4.61608C29.1206 4.65916 29.0797 4.71992 29.0611 4.7888C29.0425 4.85769 29.0474 4.9308 29.0749 4.99663C29.1024 5.06247 29.151 5.1173 29.213 5.15251V5.44334C28.8758 5.47602 28.5558 5.60765 28.2931 5.82168L28.0835 5.612C28.0975 5.55756 28.0975 5.50042 28.0833 5.44601C28.0691 5.39161 28.0412 5.34173 28.0023 5.30111C27.9396 5.25383 27.862 5.2308 27.7837 5.23625C27.7054 5.24171 27.6317 5.27528 27.5762 5.33079C27.5206 5.3863 27.4871 5.46001 27.4816 5.53832C27.4762 5.61664 27.4992 5.69428 27.5465 5.75695C27.5862 5.79726 27.636 5.82607 27.6907 5.84036C27.7455 5.85464 27.803 5.85386 27.8574 5.83809L28.067 6.04778C27.8503 6.30878 27.7183 6.62969 27.6887 6.96767H27.3979C27.3627 6.90561 27.3078 6.85702 27.242 6.82952C27.1762 6.80203 27.103 6.79719 27.0342 6.81576C26.9653 6.83434 26.9045 6.87529 26.8614 6.93216C26.8184 6.98903 26.7954 7.0586 26.7962 7.12995C26.7954 7.20129 26.8184 7.27086 26.8614 7.32773C26.9045 7.38461 26.9653 7.42555 27.0342 7.44413C27.103 7.4627 27.1762 7.45787 27.242 7.43037C27.3078 7.40287 27.3627 7.35428 27.3979 7.29222H27.6887C27.7214 7.62944 27.853 7.94948 28.067 8.21211L27.8574 8.4218C27.8029 8.40772 27.7458 8.40778 27.6914 8.42198C27.637 8.43618 27.5871 8.46405 27.5465 8.50294C27.4992 8.56561 27.4762 8.64325 27.4816 8.72157C27.4871 8.79988 27.5206 8.87359 27.5762 8.9291C27.6317 8.98461 27.7054 9.01818 27.7837 9.02364C27.862 9.02909 27.9396 9.00606 28.0023 8.95878C28.0426 8.91909 28.0714 8.86924 28.0857 8.81452C28.1 8.75979 28.0992 8.70221 28.0835 8.64789L28.2931 8.43821C28.5541 8.65497 28.875 8.78696 29.213 8.81656V9.11741C29.151 9.15262 29.1024 9.20745 29.0749 9.27329C29.0474 9.33912 29.0425 9.41223 29.0611 9.48112C29.0797 9.55 29.1206 9.61076 29.1775 9.65384C29.2344 9.69692 29.304 9.71989 29.3753 9.71912C29.4466 9.71989 29.5162 9.69692 29.5731 9.65384C29.63 9.61076 29.6709 9.55 29.6895 9.48112C29.7081 9.41223 29.7032 9.33912 29.6757 9.27329C29.6482 9.20745 29.5996 9.15262 29.5376 9.11741V8.82385C29.8723 8.78977 30.1896 8.65822 30.4502 8.4455L30.6599 8.65519C30.6458 8.70963 30.6458 8.76676 30.66 8.82117C30.6742 8.87558 30.7021 8.92546 30.741 8.96607C30.769 9.00323 30.8047 9.03395 30.8456 9.05615C30.8866 9.07834 30.9318 9.0915 30.9782 9.09474C31.0247 9.09797 31.0712 9.09121 31.1149 9.0749C31.1585 9.05859 31.1981 9.03311 31.231 9.0002C31.2639 8.96728 31.2894 8.92768 31.3057 8.88408C31.322 8.84048 31.3287 8.79388 31.3255 8.74744C31.3223 8.701 31.3091 8.65579 31.2869 8.61487C31.2647 8.57395 31.234 8.53827 31.1968 8.51023C31.1572 8.46993 31.1073 8.44111 31.0526 8.42683C30.9979 8.41254 30.9403 8.41332 30.886 8.42909L30.6763 8.2194C30.8967 7.95781 31.0313 7.63475 31.0619 7.29405H31.3527C31.3816 7.34287 31.4228 7.38323 31.4722 7.41107C31.5216 7.43891 31.5774 7.45325 31.6341 7.45263C31.6908 7.45202 31.7464 7.43648 31.7951 7.40757C31.8439 7.37867 31.8842 7.33742 31.912 7.28799C31.9398 7.23856 31.954 7.18268 31.9533 7.12598C31.9526 7.06928 31.937 7.01377 31.9081 6.96502C31.8791 6.91628 31.8378 6.87603 31.7883 6.84833C31.7388 6.82062 31.6829 6.80644 31.6262 6.80721L31.6299 6.80903ZM29.5266 8.49929V8.42453C29.5266 8.38149 29.5095 8.34022 29.4791 8.30978C29.4487 8.27935 29.4074 8.26225 29.3644 8.26225C29.3213 8.26225 29.2801 8.27935 29.2496 8.30978C29.2192 8.34022 29.2021 8.38149 29.2021 8.42453V8.49929C28.8955 8.46225 28.6102 8.32331 28.392 8.10476C28.1737 7.88621 28.0352 7.60071 27.9987 7.29405H28.0734C28.1165 7.29405 28.1577 7.27695 28.1882 7.24652C28.2186 7.21608 28.2357 7.17481 28.2357 7.13177C28.2357 7.08873 28.2186 7.04745 28.1882 7.01702C28.1577 6.98659 28.1165 6.96949 28.0734 6.96949H27.9987C28.0356 6.66315 28.1743 6.37807 28.3925 6.15989C28.6107 5.9417 28.8957 5.80303 29.2021 5.76607V5.84083C29.2021 5.88387 29.2192 5.92514 29.2496 5.95558C29.2801 5.98601 29.3213 6.00311 29.3644 6.00311C29.4074 6.00311 29.4487 5.98601 29.4791 5.95558C29.5095 5.92514 29.5266 5.88387 29.5266 5.84083V5.76607C29.833 5.80303 30.1181 5.9417 30.3362 6.15989C30.5544 6.37807 30.6931 6.66315 30.7301 6.96949H30.6553C30.6123 6.96949 30.571 6.98659 30.5406 7.01702C30.5101 7.04745 30.493 7.08873 30.493 7.13177C30.493 7.17481 30.5101 7.21608 30.5406 7.24652C30.571 7.27695 30.6123 7.29405 30.6553 7.29405H30.7301C30.6935 7.60071 30.555 7.88621 30.3368 8.10476C30.1185 8.32331 29.8333 8.46225 29.5266 8.49929Z" fill="#183087"/>
<path d="M28.8301 7.05326C28.9872 7.05326 29.1145 6.92591 29.1145 6.76882C29.1145 6.61172 28.9872 6.48438 28.8301 6.48438C28.673 6.48438 28.5457 6.61172 28.5457 6.76882C28.5457 6.92591 28.673 7.05326 28.8301 7.05326Z" fill="#183087"/>
<path d="M29.5267 8.02607C29.706 8.02607 29.8513 7.88076 29.8513 7.70151C29.8513 7.52226 29.706 7.37695 29.5267 7.37695C29.3475 7.37695 29.2021 7.52226 29.2021 7.70151C29.2021 7.88076 29.3475 8.02607 29.5267 8.02607Z" fill="#183087"/>
<path d="M30.0947 6.89016C30.2292 6.89016 30.3382 6.78118 30.3382 6.64674C30.3382 6.5123 30.2292 6.40332 30.0947 6.40332C29.9603 6.40332 29.8513 6.5123 29.8513 6.64674C29.8513 6.78118 29.9603 6.89016 30.0947 6.89016Z" fill="#183087"/>
</g>
<defs>
<clipPath id="clip0_206_837">
<rect width="32" height="27.9695" fill="white"/>
</clipPath>
</defs>
</svg>
