<svg width="23" height="32" viewBox="0 0 23 32" fill="none" xmlns="http://www.w3.org/2000/svg">
<g clip-path="url(#clip0_206_870)">
<path d="M21.9693 20.9019C22.4895 20.9487 22.6727 21.1063 22.7352 21.5834C22.9278 23.0483 22.9522 24.5094 22.5708 25.9475C22.1545 27.5485 21.2603 28.9846 20.0073 30.0646C19.0757 30.8774 18.0691 31.5652 16.8318 31.8415C16.5961 31.8941 16.3478 31.8903 16.1253 31.9978H14.6872C14.1952 31.8103 13.6731 31.7409 13.1635 31.629C10.7939 31.11 8.57808 30.2328 6.59484 28.8154C4.78167 27.5206 3.21859 25.9831 2.12381 24.0149C1.96147 23.7364 1.82562 23.4434 1.71803 23.1396C1.22535 21.6453 0.401296 20.2685 0.154954 18.686C-0.12515 16.8704 -0.0626265 15.0853 0.691403 13.3703C1.05805 12.539 1.61334 11.8045 2.31326 11.2251C2.39028 11.1674 2.45182 11.0916 2.49241 11.0043C2.53299 10.917 2.55135 10.821 2.54584 10.725C2.53709 8.7363 2.53709 6.74765 2.54584 4.75899C2.54584 3.80864 3.1048 3.25031 4.05015 3.2203C4.09204 3.2203 4.13393 3.2203 4.1752 3.2203C4.5916 3.2203 5.00863 3.2203 5.42566 3.2203C6.16844 3.2203 6.45979 3.36848 6.92622 3.9837C7.19069 3.67109 7.40827 3.33221 7.68775 3.04085C8.18293 2.52441 8.73314 2.08925 9.38838 1.79789C9.54094 1.72974 9.61659 1.64534 9.59971 1.46902C9.58283 1.29271 9.60721 1.11451 9.59408 0.938825C9.5647 0.551181 9.6566 0.222309 10.0036 0.000976562H10.3787C10.797 0.184795 10.8646 0.537426 10.852 0.943826C10.8383 1.37023 10.8489 1.36773 11.2622 1.36211C11.4391 1.36211 11.6273 1.33522 11.7905 1.38587C12.1031 1.48215 12.2438 1.33272 12.3782 1.09513C12.4952 0.887956 12.6266 0.689267 12.7715 0.500537C13.011 0.187921 13.3674 0.125398 13.6518 0.326097C13.9219 0.513667 13.9838 0.860671 13.8063 1.18767L13.7913 1.21455C13.6662 1.42901 13.3811 1.63471 13.4355 1.83978C13.4805 2.00672 13.8156 2.08988 14.0126 2.2243C14.8548 2.79889 15.4913 3.5598 15.9777 4.44638C16.0796 4.63395 16.1772 4.68396 16.3897 4.65833C17.1654 4.56634 17.9475 4.54082 18.7275 4.58205C19.2508 4.60831 19.4809 4.8409 19.4846 5.36422C19.4903 6.04072 19.4878 6.71722 19.4846 7.39372C19.4846 7.99394 19.2602 8.2209 18.6549 8.2209C17.714 8.2209 16.8143 8.37596 15.9971 8.87427C15.9002 8.93679 15.8095 8.99932 15.7145 9.06747C15.6938 9.08247 15.6838 9.11373 15.652 9.16063C16.209 9.26566 16.7242 9.43823 17.1888 9.73897C17.2732 9.79336 17.3357 9.78086 17.4051 9.70833C17.497 9.6095 17.5972 9.51872 17.7046 9.43698C17.8195 9.34544 17.9636 9.29855 18.1104 9.30499C18.2571 9.31142 18.3966 9.37074 18.503 9.47199C18.7293 9.6877 18.7962 10.0691 18.5518 10.2848C18.1898 10.6018 18.4042 10.8037 18.5418 11.1232C18.7662 11.6447 19.0713 11.8497 19.6353 11.8079C19.9817 11.7816 20.2249 12.0886 20.228 12.4031C20.2299 12.4841 20.2153 12.5646 20.1851 12.6398C20.1549 12.715 20.1097 12.7832 20.0522 12.8404C19.9948 12.8975 19.9263 12.9424 19.851 12.9722C19.7757 13.002 19.695 13.0162 19.614 13.0139C19.2464 13.0014 19.1295 13.1258 19.1645 13.476C19.1872 13.6423 19.1689 13.8116 19.1114 13.9693C18.92 14.422 19.1157 14.6483 19.4865 14.9003C20.2312 15.4004 20.7707 16.1063 21.1746 16.911C21.4141 17.3924 21.3703 17.6044 20.9714 17.942C20.7989 17.9683 20.6282 18.0133 20.4544 17.9333C20.2155 17.8232 20.1205 17.6013 20.0117 17.3899C19.1533 15.7243 17.2688 14.7521 15.4356 15.0634C14.9861 15.1397 14.6016 15.1347 14.2539 14.8027C14.1458 14.6989 13.9882 14.642 13.8475 14.5764C12.9172 14.1418 11.9274 13.9186 10.9208 13.7455C10.6576 13.6998 10.5282 13.7392 10.3981 13.9955C10.063 14.6558 9.60846 15.2391 9.10515 15.7843C8.19981 16.7647 7.0794 17.4281 5.89333 18.0027C5.25234 18.3042 4.66947 18.7162 4.17144 19.22C3.57071 19.7663 3.13969 20.4738 2.92973 21.2582C2.73716 21.9629 2.77093 22.6275 3.13981 23.2965C3.74003 24.3844 4.50657 25.3335 5.38377 26.1976C7.10003 27.8857 9.11703 29.0918 11.3954 29.8589C11.8137 29.9996 12.2344 30.154 12.6846 30.1784C13.1848 30.4091 13.7344 30.4692 14.2633 30.5986C15.2895 30.8615 16.3741 30.7735 17.3445 30.3485C18.0416 30.049 18.6437 29.6051 19.2039 29.108C20.4606 27.9926 21.2347 26.6021 21.5066 24.9384C21.6723 23.923 21.6461 22.9082 21.5066 21.8922C21.426 21.287 21.5079 21.1263 21.9693 20.9019ZM4.75166 10.0541C5.0524 10.0378 5.35126 9.9803 5.65324 10.0166C5.80205 10.0341 5.82206 9.95717 5.82206 9.83338C5.81956 8.1365 5.81956 6.43962 5.82206 4.74274C5.82206 4.55892 5.74703 4.46888 5.56571 4.47201C5.29561 4.47639 5.02614 4.48389 4.75604 4.49014C4.56847 4.48326 4.3809 4.47139 4.19708 4.47139C3.80756 4.47139 3.79443 4.48452 3.79443 4.87278C3.79443 6.45337 3.79443 8.03396 3.79443 9.61454V10.2854L4.75166 10.0541ZM10.6807 12.43C11.1997 12.5288 11.7217 12.6175 12.2369 12.7332C12.4739 12.7863 12.5408 12.7201 12.5696 12.4894C12.6617 11.7369 12.8718 11.0037 13.1923 10.3167C14.117 8.33532 15.662 7.21803 17.844 7.00295C18.2535 6.96293 18.2548 6.97794 18.2229 6.55028C18.2211 6.40419 18.227 6.2581 18.2404 6.11262C18.2761 5.86253 18.1816 5.8 17.9359 5.80751C16.3241 5.84752 14.7547 6.08698 13.2467 6.68283C11.1684 7.50564 9.87043 9.31443 9.81729 11.5178C9.81089 11.753 9.89796 11.9812 10.0594 12.1524C10.2209 12.3236 10.4436 12.4239 10.6789 12.4312L10.6807 12.43ZM8.14354 10.7625C8.23108 10.8156 8.32111 10.865 8.40614 10.9219C8.56745 11.0313 8.60496 10.9675 8.62622 10.7969C8.92508 8.45099 10.1999 6.81163 12.2813 5.75624C13.0078 5.38735 13.7788 5.14789 14.5659 4.95281C14.6941 4.92155 14.8266 4.9153 14.6979 4.7246C14.3477 4.20566 13.9701 3.71423 13.4374 3.3666C12.4539 2.59819 11.3741 2.4225 10.1862 2.80827C8.61059 3.32283 7.0025 5.71747 7.06502 7.30119C7.1016 8.03899 7.09909 8.77822 7.05752 9.51576C7.02 10.0822 7.12504 10.4711 7.75152 10.5787C7.88782 10.5987 8.01162 10.6993 8.14167 10.7637L8.14354 10.7625ZM6.89621 11.5934C6.10029 11.2339 5.2706 11.1214 4.44342 11.4165C2.91535 11.961 2.01439 13.1046 1.5611 14.6189C1.06092 16.2826 1.19909 17.9464 1.66614 19.5951C1.72866 19.8121 1.79119 20.0365 1.93874 20.2547C2.04065 20.0553 2.12006 19.8884 2.20884 19.7258C2.65401 18.9092 3.29487 18.2646 4.01013 17.6857C4.71665 17.1705 5.51069 16.8016 6.2741 16.3914C7.58146 15.6912 8.58183 14.6783 9.30648 13.3903C9.35899 13.2959 9.40901 13.2203 9.2946 13.1233C8.56557 12.505 7.8153 11.9141 6.89621 11.5934ZM14.9679 10.3654C14.6497 10.281 14.4634 10.4799 14.3283 10.8031C14.0467 11.4843 13.8532 12.1987 13.7525 12.9289C13.7281 13.104 13.7813 13.1871 13.9457 13.2521C14.2639 13.3772 14.5859 13.5022 14.8667 13.7023C14.934 13.7506 15.0105 13.7845 15.0916 13.8017C15.1726 13.8189 15.2563 13.8191 15.3375 13.8023C16.1002 13.684 16.8797 13.7356 17.6202 13.9537C17.7927 14.0024 17.849 13.9843 17.8828 13.7948C18.1848 12.1092 16.9281 10.3998 14.9679 10.3654Z" fill="#183087"/>
<path d="M21.7374 19.9586C21.3666 20.0092 21.1165 19.8885 20.9939 19.6009C20.8589 19.2814 20.9508 19.0382 21.3147 18.7562C21.5648 18.7225 21.8149 18.7112 22.0062 18.9232C22.3244 19.2708 22.21 19.7116 21.7374 19.9586Z" fill="#183087"/>
<path d="M8.18104 26.9083C7.86843 26.6682 7.55581 26.425 7.24319 26.1899C7.00811 26.0148 6.88369 25.7948 6.91557 25.4965C7.15129 24.9376 7.54956 24.8357 8.04849 25.2333C9.32386 26.2578 10.7775 27.0378 12.3363 27.5342C12.6133 27.6223 12.899 27.6867 13.1766 27.7686C13.6143 27.8937 13.8269 28.2113 13.7262 28.5683C13.6256 28.9253 13.2836 29.0916 12.8465 28.9803C11.423 28.6243 10.0615 28.0551 8.80815 27.2922C8.7325 27.2453 8.66747 27.1622 8.55806 27.1884C8.54785 27.1478 8.52313 27.1124 8.48857 27.0888C8.45402 27.0651 8.41201 27.055 8.37049 27.0602C8.37049 27.0096 8.34298 26.9977 8.29984 27.0015H8.30484C8.29108 26.9421 8.23481 26.9264 8.18104 26.9083Z" fill="#183087"/>
<path d="M6.26403 24.5435C5.72696 24.7436 5.31368 24.5304 5.28742 24.0402C5.27117 23.7313 5.44623 23.5475 5.69757 23.4149C6.01019 23.3574 6.26841 23.4281 6.43535 23.7157C6.59353 23.9858 6.54351 24.2121 6.26403 24.5435Z" fill="#183087"/>
</g>
<defs>
<clipPath id="clip0_206_870">
<rect width="22.8716" height="32" fill="white"/>
</clipPath>
</defs>
</svg>
