<svg width="32" height="32" viewBox="0 0 32 32" fill="none" xmlns="http://www.w3.org/2000/svg">
<g clip-path="url(#clip0_206_998)">
<path d="M27.1892 4.57122C27.1368 4.52279 27.0753 4.48517 27.0083 4.46051C26.9413 4.43586 26.8701 4.42465 26.7988 4.42754C26.7275 4.43043 26.6574 4.44735 26.5926 4.47734C26.5279 4.50733 26.4696 4.54979 26.4213 4.6023C26.3465 4.69815 26.3065 4.81649 26.3076 4.93803C26.3088 5.05957 26.3511 5.17713 26.4277 5.27152C27.5933 6.40671 28.566 7.72434 29.3075 9.17256C29.9955 10.5537 30.4807 12.0267 30.7483 13.5463C31.1854 16.1977 30.8974 18.9181 29.9147 21.4193C28.9321 23.9204 27.2914 26.1094 25.1663 27.7542C23.0413 29.3991 20.511 30.4388 17.8434 30.7631C15.1757 31.0875 12.47 30.6844 10.0127 29.5967C7.55545 28.5089 5.43803 26.7769 3.88466 24.5841C2.33129 22.3912 1.39979 19.8192 1.18878 17.1402C0.977771 14.4612 1.49511 11.775 2.68601 9.36603C3.87692 6.95704 5.69707 4.91491 7.95376 3.45586C7.8492 3.69394 7.76599 3.94084 7.70509 4.19364C7.15655 6.50483 8.38802 9.02811 9.83617 10.2276C12.2625 12.2389 13.0451 13.1586 13.2591 15.0803C13.2591 15.0867 13.2508 15.0922 13.2481 15.0986C13.2307 15.1288 13.2188 15.1617 13.2033 15.19C11.9373 14.0192 10.3101 13.315 8.59007 13.1934C8.56722 12.8931 8.45326 12.6069 8.26342 12.3731C8.07359 12.1394 7.81692 11.9691 7.52773 11.8851C7.31193 11.8226 7.08484 11.8095 6.86328 11.8467C6.64172 11.8838 6.43136 11.9704 6.2478 12.0999C4.85725 13.0983 4.18163 14.5419 4.39556 16.0631C4.49119 16.6353 4.79765 17.1509 5.25455 17.5083C5.71145 17.8657 6.28566 18.039 6.864 17.994C7.44139 17.9375 8.02388 18.0215 8.56173 18.239C7.43082 19.4275 6.8384 20.659 6.8384 21.8237C6.8384 22.9299 7.3522 23.9667 8.36608 24.9065C9.58293 26.0347 11.4297 26.6335 13.5882 26.6335C14.2152 26.6318 14.8413 26.5844 15.4614 26.4918C19.4347 25.9058 23.0999 23.6577 24.8013 20.755C26.0172 18.6842 26.072 15.9626 26.1132 13.9732L26.1178 13.7264C26.4973 12.8053 26.6318 11.8015 26.508 10.813C26.3842 9.82452 26.0064 8.88494 25.4114 8.08588C24.8165 7.28682 24.0246 6.65555 23.1131 6.25358C22.2016 5.85162 21.2014 5.69269 20.2102 5.79228C19.2189 5.89187 18.2704 6.24658 17.457 6.82185C16.6437 7.39711 15.9933 8.17329 15.5691 9.07474C15.145 9.97618 14.9617 10.9721 15.037 11.9655C15.1124 12.9589 15.4438 13.9158 15.999 14.743C15.7706 14.509 15.4802 14.3449 15.1619 14.27C14.8436 14.195 14.5105 14.2122 14.2016 14.3197C13.8049 12.3513 12.6877 11.2241 10.5036 9.41666C9.28306 8.411 8.28471 6.26804 8.72629 4.435C9.01061 3.25747 9.88554 2.37706 11.2642 1.85138C15.4258 0.259696 20.412 0.83292 23.7115 3.18981C23.7572 3.22181 23.7956 3.25015 23.8221 3.26935C24.1777 3.48145 24.5846 3.35438 24.708 3.09931C24.7452 2.99952 24.7541 2.89141 24.7337 2.78689C24.7134 2.68236 24.6647 2.58547 24.5928 2.50688C21.136 0.303383 16.9652 -0.489129 12.9411 0.292868C8.91695 1.07486 5.34651 3.3717 2.96649 6.70946C0.586475 10.0472 -0.421535 14.1712 0.150457 18.2305C0.722448 22.2898 2.8308 25.9747 6.04047 28.5248C9.25014 31.0749 13.3162 32.2957 17.3998 31.9353C21.4833 31.5748 25.2727 29.6607 27.986 26.5877C30.6994 23.5148 32.1296 19.5176 31.9817 15.4209C31.8338 11.3241 30.119 7.44046 27.1911 4.57122H27.1892ZM17.4526 8.20621C18.1682 7.49056 19.095 7.024 20.096 6.87544C21.0971 6.72688 22.1194 6.90418 23.012 7.38118C23.9046 7.85817 24.6201 8.60956 25.0529 9.52438C25.4857 10.4392 25.6128 11.469 25.4155 12.4616C25.2181 13.4542 24.7068 14.357 23.9571 15.0368C23.2073 15.7165 22.2588 16.1371 21.2516 16.2364C20.2445 16.3358 19.2321 16.1086 18.364 15.5885C17.4958 15.0683 16.818 14.2828 16.4305 13.3479C16.0733 12.4858 15.9797 11.5372 16.1616 10.622C16.3436 9.70677 16.7929 8.86607 17.4526 8.20621ZM17.4526 16.2378L17.1528 16.2954L16.4561 15.3308C16.7525 15.6719 17.0883 15.9766 17.4563 16.2387L17.4526 16.2378ZM14.1687 15.5978C14.2159 15.5176 14.281 15.4494 14.3589 15.3985C14.5093 15.2995 14.6915 15.2609 14.8691 15.2904C15.0467 15.3198 15.2067 15.4153 15.317 15.5576L16.5055 17.1931C16.5668 17.2771 16.6517 17.3409 16.7494 17.3764C16.8471 17.4119 16.9532 17.4175 17.054 17.3924C17.0586 17.3924 17.5532 17.2718 19.0151 17.0267C20.0632 17.3681 21.1875 17.4001 22.2533 17.1187C23.3191 16.8374 24.2812 16.2547 25.0243 15.4405C24.9457 17.0725 24.7245 18.8296 23.9017 20.2266C22.3539 22.8623 18.9831 24.9193 15.3143 25.456C12.6785 25.8454 10.4076 25.3645 9.08375 24.1376C8.29203 23.4063 7.89525 22.6273 7.89525 21.8256C7.89525 20.5365 8.90091 19.3297 9.75206 18.5435C9.76029 18.5361 10.5356 17.8249 11.2496 17.3047C11.8146 16.8942 11.1993 16.0458 10.6334 16.4572C10.1571 16.8028 9.66978 17.216 9.35985 17.4857C8.58148 17.0495 7.68776 16.8634 6.8 16.9527C6.48418 16.9824 6.16871 16.8925 5.91608 16.7006C5.66345 16.5088 5.49209 16.2291 5.43596 15.9169C5.27597 14.7805 5.78246 13.7282 6.86308 12.9511C6.91659 12.9133 6.97811 12.8885 7.04283 12.8785C7.10754 12.8685 7.17369 12.8736 7.23609 12.8935C7.32536 12.9193 7.40387 12.9734 7.45989 13.0475C7.51592 13.1217 7.54645 13.212 7.54693 13.3049V13.3479C7.53671 13.4529 7.54728 13.559 7.57805 13.6599C7.60882 13.7609 7.65918 13.8548 7.72624 13.9363C7.79331 14.0178 7.87578 14.0853 7.96894 14.1349C8.06209 14.1845 8.16411 14.2153 8.26917 14.2255H8.31763C10.0261 14.2951 11.6407 15.0254 12.8211 16.2624C12.6286 17.0997 12.7377 17.9781 13.1292 18.7428C13.8835 20.19 15.615 21.1326 18.0103 21.394C18.0298 21.3955 18.0494 21.3955 18.0688 21.394C18.728 21.394 18.7819 20.4222 18.1255 20.3491C16.0904 20.1306 14.645 19.3818 14.0581 18.26C13.8547 17.8416 13.7585 17.3791 13.7781 16.9143C13.7978 16.4494 13.9326 15.9967 14.1706 15.5969L14.1687 15.5978Z" fill="#183087"/>
<path d="M28.7719 20.8633C28.7086 20.836 28.6406 20.8214 28.5717 20.8204C28.5028 20.8194 28.4343 20.8319 28.3703 20.8574C28.3063 20.8829 28.2479 20.9208 28.1985 20.9688C28.1491 21.0169 28.1097 21.0743 28.0826 21.1376C27.8709 21.6287 27.6291 22.1062 27.3585 22.5675C27.3157 22.6266 27.2856 22.6939 27.2704 22.7653C27.2551 22.8367 27.2549 22.9104 27.2698 22.9819C27.2847 23.0533 27.3144 23.1209 27.3569 23.1802C27.3994 23.2395 27.4539 23.2892 27.5168 23.3263C27.5797 23.3633 27.6496 23.3868 27.7221 23.3952C27.7946 23.4037 27.868 23.3969 27.9377 23.3753C28.0074 23.3537 28.0719 23.3177 28.1269 23.2698C28.1819 23.2218 28.2263 23.1629 28.2572 23.0968C28.5486 22.5986 28.8096 22.0833 29.0388 21.5536C29.0662 21.4903 29.0808 21.4223 29.0818 21.3534C29.0828 21.2845 29.0702 21.216 29.0448 21.152C29.0193 21.088 28.9814 21.0296 28.9333 20.9802C28.8853 20.9308 28.8279 20.8914 28.7646 20.8643L28.7719 20.8633Z" fill="#183087"/>
</g>
<defs>
<clipPath id="clip0_206_998">
<rect width="31.9982" height="32" fill="white"/>
</clipPath>
</defs>
</svg>
