<svg width="25" height="32" viewBox="0 0 25 32" fill="none" xmlns="http://www.w3.org/2000/svg">
<g clip-path="url(#clip0_206_1015)">
<path d="M11.5232 31.9997C10.9695 31.8677 10.3984 31.7834 9.86483 31.5947C8.04368 30.9501 6.87216 29.6174 6.09561 27.9006C5.38168 26.3249 5.07272 24.6482 4.97169 22.9365C4.92158 22.0017 4.92158 21.0648 4.97169 20.13C4.98505 19.8611 5.20966 19.599 5.34744 19.3384C5.41675 19.2057 5.52613 19.0921 5.58542 18.956C5.81337 18.435 6.02797 17.9081 6.25342 17.3695C5.9428 17.1048 5.60212 16.8326 5.28231 16.5345C4.64335 15.9492 4.11697 15.2519 3.72919 14.477C3.62816 14.2741 3.51209 14.2265 3.2975 14.2315C1.66005 14.2733 0.207968 13.0458 0.023431 11.476C-0.177806 9.7801 0.858439 8.27709 2.49756 7.89966C2.65662 7.84975 2.82269 7.82578 2.98938 7.82869C3.28414 7.85958 3.39937 7.72682 3.49957 7.46797C3.82213 6.65348 4.27319 5.89598 4.83558 5.2243C5.09777 4.90366 5.36915 4.84187 5.60379 5.04477C5.83842 5.24768 5.81504 5.49401 5.56538 5.81381C3.85779 7.99819 3.29499 10.4247 4.14586 13.0892C4.81387 15.1726 6.28599 16.5762 8.27498 17.3828C11.3979 18.6479 14.4858 18.5235 17.3715 16.7199C20.7116 14.6323 21.6602 10.3738 19.5785 6.89348C17.8776 4.05445 15.2799 2.73598 11.9916 2.73598C11.944 2.74155 11.8968 2.75048 11.8505 2.7627C12.1085 3.20943 12.465 3.46995 12.951 3.55762C13.0345 3.57182 13.118 3.57098 13.2015 3.58434C13.523 3.63444 13.6875 3.82149 13.6599 4.10288C13.6341 4.36758 13.4437 4.52039 13.1314 4.51287C12.3039 4.48615 11.6543 4.12042 11.1791 3.44991C11.0575 3.25599 10.946 3.05588 10.8451 2.85037C10.1908 2.91131 9.55152 3.08298 8.95467 3.35806C8.37017 3.62359 7.81322 3.95258 7.24959 4.26237C7.04418 4.37593 6.82707 4.41267 6.68095 4.23148C6.57687 4.08632 6.52937 3.90817 6.54735 3.73047C6.55987 3.61774 6.71435 3.50084 6.82791 3.42235C7.92282 2.67415 9.16637 2.17115 10.4736 1.94773C10.689 1.91015 10.7524 1.82999 10.795 1.62458C10.8847 1.20458 11.1035 0.823141 11.4208 0.533704C11.7381 0.244268 12.138 0.0613282 12.5644 0.0105115C12.6369 0.00106449 12.7101 -0.00256546 12.7832 -0.000343626C13.0562 0.00884146 13.2516 0.181688 13.2717 0.42718C13.278 0.489713 13.2714 0.552885 13.2521 0.612713C13.2328 0.672542 13.2014 0.72773 13.1597 0.774799C13.118 0.821868 13.0671 0.859798 13.0101 0.886197C12.953 0.912596 12.8911 0.926892 12.8283 0.928185C12.4943 0.95407 12.192 1.05427 11.9749 1.31897C11.8771 1.45703 11.7898 1.60216 11.7135 1.75317C12.4567 1.81747 13.1698 1.8183 13.8587 1.94856C17.1945 2.58067 19.5968 4.42102 20.9562 7.56065C21.0397 7.74853 21.1174 7.82368 21.3337 7.83203C22.1673 7.88228 22.9485 8.25575 23.5111 8.87304C24.0737 9.49032 24.3734 10.3027 24.3463 11.1375C24.3192 11.9722 23.9676 12.7635 23.3661 13.343C22.7647 13.9226 21.9609 14.2446 21.1257 14.2407C20.9537 14.2407 20.8201 14.2282 20.7216 14.4269C20.1557 15.5476 19.3265 16.5143 18.3051 17.2442C18.2633 17.2751 18.2216 17.306 18.1832 17.3403C18.1681 17.3536 18.1623 17.3753 18.1882 17.3286C18.4571 18.0525 18.7568 18.718 18.9455 19.4161C19.0875 19.9413 19.0842 20.5016 19.1568 21.051C19.1867 21.1871 19.2283 21.3204 19.2812 21.4493C19.3572 21.6831 19.5058 21.9203 19.4975 22.1507C19.424 24.0846 19.156 25.9851 18.3861 27.7829C18.3084 27.9649 18.2258 28.1453 18.1356 28.3181C17.9853 28.597 17.7281 28.6863 17.4843 28.5586C17.4283 28.5303 17.3787 28.4909 17.3384 28.4428C17.2982 28.3947 17.2682 28.3388 17.2503 28.2787C17.2324 28.2186 17.227 28.1555 17.2343 28.0932C17.2417 28.0309 17.2617 27.9708 17.2931 27.9165C18.179 26.1462 18.4529 24.2424 18.5648 22.2952C18.5848 21.947 18.4679 21.8476 18.118 21.9328C14.1108 22.9072 10.3592 24.7295 7.11599 27.2769C7.00743 27.3604 6.91809 27.423 6.98906 27.6033C8.32508 30.9801 12.8567 32.185 15.6974 29.9121C15.8034 29.8286 15.9011 29.7334 16.0055 29.6474C16.256 29.442 16.5165 29.437 16.7019 29.6307C16.9031 29.8412 16.8822 30.1092 16.6292 30.343C15.6506 31.249 14.4891 31.7625 13.1723 31.9404C13.0821 31.9521 12.9944 31.9804 12.9051 32.0013L11.5232 31.9997ZM6.51311 19.0796L6.73021 19.1405C9.2511 19.8804 11.6902 20.8181 13.9948 22.0965C14.1132 22.1455 14.2455 22.149 14.3664 22.1065C15.2014 21.8418 16.0213 21.552 16.853 21.2898C17.2964 21.1504 17.7515 21.0494 18.2141 20.9266C18.1782 19.8244 17.9009 18.8132 17.3215 17.9031C13.8979 19.5447 10.5036 19.5397 7.07841 17.8905C6.89137 18.278 6.71101 18.6587 6.51311 19.0796ZM13.0262 22.6551C12.8926 22.5816 12.8041 22.5298 12.713 22.4831C10.7959 21.509 8.79068 20.7189 6.72437 20.1233C5.90105 19.8804 5.82506 19.9163 5.84677 20.7913C5.87516 21.9128 5.92443 23.0367 6.04467 24.1514C6.12817 24.9363 6.34527 25.707 6.51645 26.5496C8.51982 24.9914 10.7059 23.6836 13.0262 22.6551ZM3.06286 8.7806C1.71516 8.88915 0.824203 9.98551 0.954465 11.314C1.06302 12.4229 2.15938 13.3857 3.20899 13.2738C2.75558 11.8008 2.71967 10.3103 3.06286 8.7806ZM21.2042 13.2813C22.4125 13.3397 23.4529 12.3152 23.4821 11.081C23.5105 9.87279 22.5252 8.78978 21.3662 8.80314C21.6961 10.3037 21.6727 11.7916 21.2042 13.2813Z" fill="#183087"/>
<path d="M15.9127 11.5928C15.6884 11.5935 15.4663 11.5476 15.2605 11.4583C15.0548 11.3689 14.8697 11.2379 14.717 11.0735C14.5141 10.8589 14.5049 10.59 14.6811 10.4013C14.8573 10.2126 15.1128 10.2009 15.3491 10.3879C15.8075 10.7478 16.023 10.7461 16.5006 10.3771C16.7252 10.2034 16.9665 10.2101 17.1477 10.3913C17.3289 10.5725 17.3306 10.8489 17.1335 11.0593C16.9792 11.2293 16.7906 11.3647 16.5802 11.4566C16.3698 11.5486 16.1423 11.595 15.9127 11.5928Z" fill="#183087"/>
<path d="M8.50951 11.5925C8.28509 11.5954 8.06249 11.5519 7.8557 11.4647C7.64891 11.3775 7.46241 11.2484 7.30793 11.0856C7.09083 10.8593 7.0783 10.5846 7.26952 10.3925C7.46074 10.2005 7.70122 10.2038 7.93753 10.3925C8.36922 10.7399 8.61889 10.7391 9.06562 10.3859C9.3036 10.1988 9.5541 10.2022 9.73363 10.3959C9.91315 10.5896 9.90063 10.856 9.7019 11.0689C9.54984 11.2335 9.36546 11.3649 9.16029 11.455C8.95512 11.5451 8.73358 11.5919 8.50951 11.5925Z" fill="#183087"/>
<path d="M11.5231 11.9314C11.529 11.5256 11.8496 11.1941 12.2262 11.2033C12.6028 11.2125 12.9092 11.5532 12.9026 11.9548C12.9044 12.0487 12.8877 12.142 12.8533 12.2294C12.8189 12.3167 12.7675 12.3964 12.7021 12.4638C12.6368 12.5312 12.5587 12.585 12.4724 12.622C12.3861 12.6591 12.2934 12.6786 12.1995 12.6796C11.8145 12.6763 11.5148 12.3423 11.5231 11.9314Z" fill="#183087"/>
<path d="M10.8342 26.8926C10.9027 26.9435 11.078 27.0111 11.1406 27.1364C11.2033 27.2617 11.2133 27.4829 11.1406 27.5931C10.9983 27.808 10.814 27.9918 10.5987 28.1334C10.5276 28.1676 10.4495 28.1849 10.3706 28.1841C10.2917 28.1832 10.214 28.1641 10.1436 28.1284C10.0804 28.0805 10.0277 28.0203 9.98847 27.9514C9.94928 27.8825 9.92451 27.8064 9.91568 27.7276C9.88896 27.4604 10.4735 26.9043 10.8342 26.8926Z" fill="#183087"/>
<path d="M15.3157 27.7466C15.3157 28.094 14.9157 28.3361 14.6251 28.139C14.4119 27.9924 14.2272 27.8082 14.0799 27.5955C13.8778 27.3032 14.1107 26.9099 14.4623 26.9024C14.752 26.8957 15.3182 27.456 15.3157 27.7466Z" fill="#183087"/>
<path d="M16.4556 24.4307C16.4556 24.7196 15.9597 25.2064 15.6691 25.2048C15.3134 25.2048 15.0779 24.8215 15.2749 24.5251C15.4067 24.3262 15.5771 24.1558 15.7759 24.0241C16.0657 23.8353 16.4565 24.0833 16.4556 24.4307Z" fill="#183087"/>
<path d="M15.6589 20.2172C15.6589 20.4927 15.3374 20.8092 15.0694 20.8017C14.9485 20.7951 14.8346 20.7426 14.7511 20.6549C14.6677 20.5672 14.6208 20.451 14.6201 20.3299C14.6201 20.0485 14.9332 19.7454 15.2121 19.7521C15.3326 19.756 15.4467 19.8068 15.5301 19.8937C15.6136 19.9806 15.6598 20.0967 15.6589 20.2172Z" fill="#183087"/>
<path d="M7.83653 22.0166C8.19057 22.03 8.71579 22.5218 8.69575 22.784C8.68406 22.9293 8.59555 23.1255 8.48116 23.1898C8.40574 23.2251 8.32351 23.2433 8.24026 23.2433C8.157 23.2433 8.07477 23.2251 7.99936 23.1898C7.80484 23.0723 7.64269 22.9081 7.52758 22.7122C7.49477 22.6405 7.47778 22.5626 7.47778 22.4838C7.47778 22.405 7.49477 22.3271 7.52758 22.2554C7.59271 22.1335 7.76555 22.0667 7.83653 22.0166Z" fill="#183087"/>
</g>
<defs>
<clipPath id="clip0_206_1015">
<rect width="24.4215" height="32" fill="white"/>
</clipPath>
</defs>
</svg>
