<svg width="29" height="32" viewBox="0 0 29 32" fill="none" xmlns="http://www.w3.org/2000/svg">
<g clip-path="url(#clip0_189_823)">
<path d="M10.3918 13.5007C10.5126 13.5007 10.6308 13.4641 10.7313 13.3954C10.8319 13.3268 10.9102 13.2292 10.9565 13.115C11.0027 13.0008 11.0148 12.8752 10.9912 12.7539C10.9677 12.6327 10.9094 12.5214 10.824 12.434C10.7385 12.3466 10.6296 12.2871 10.511 12.263C10.3924 12.2389 10.2695 12.2512 10.1578 12.2985C10.0462 12.3458 9.95069 12.4259 9.88353 12.5287C9.81637 12.6315 9.78052 12.7523 9.78052 12.8759C9.78052 13.0416 9.84491 13.2005 9.95954 13.3177C10.0742 13.4349 10.2296 13.5007 10.3918 13.5007Z" fill="#183087"/>
<path d="M14.06 5.37574C14.1405 5.37574 14.2203 5.35946 14.2947 5.32783C14.3691 5.29619 14.4367 5.24984 14.4935 5.19142C14.5503 5.13301 14.5952 5.06369 14.6257 4.98745C14.6562 4.91121 14.6717 4.82956 14.6712 4.74719V0.618042C14.6712 0.452314 14.6068 0.293374 14.4922 0.176187C14.3776 0.0589992 14.2221 -0.00683594 14.06 -0.00683594C13.8979 -0.00683594 13.7424 0.0589992 13.6278 0.176187C13.5131 0.293374 13.4487 0.452314 13.4487 0.618042V4.74719C13.4483 4.82956 13.4637 4.91121 13.4942 4.98745C13.5247 5.06369 13.5697 5.13301 13.6265 5.19142C13.6833 5.24984 13.7508 5.29619 13.8252 5.32783C13.8996 5.35946 13.9794 5.37574 14.06 5.37574Z" fill="#183087"/>
<path d="M13.4487 27.2499V31.379C13.4487 31.5448 13.5131 31.7037 13.6278 31.8209C13.7424 31.9381 13.8979 32.0039 14.06 32.0039C14.2221 32.0039 14.3775 31.9381 14.4922 31.8209C14.6068 31.7037 14.6712 31.5448 14.6712 31.379V27.2499C14.6712 27.0841 14.6068 26.9252 14.4922 26.808C14.3775 26.6908 14.2221 26.625 14.06 26.625C13.8979 26.625 13.7424 26.6908 13.6278 26.808C13.5131 26.9252 13.4487 27.0841 13.4487 27.2499Z" fill="#183087"/>
<path d="M4.62417 8.49037C4.68116 8.54839 4.74877 8.59437 4.82314 8.62568C4.89751 8.65699 4.97718 8.67301 5.05761 8.67284C5.13804 8.67267 5.21765 8.65631 5.29189 8.62469C5.36613 8.59306 5.43355 8.5468 5.49031 8.48854C5.54706 8.43028 5.59203 8.36116 5.62266 8.28513C5.65328 8.2091 5.66896 8.12765 5.66879 8.04542C5.66863 7.9632 5.65262 7.88181 5.62169 7.80591C5.59075 7.73001 5.5455 7.66109 5.48851 7.60306L2.89458 4.95123C2.84078 4.88849 2.77524 4.8374 2.70181 4.80098C2.62839 4.76455 2.54857 4.74353 2.46707 4.73914C2.38557 4.73476 2.30404 4.74711 2.22728 4.77546C2.15052 4.80381 2.08009 4.84758 2.02015 4.90421C1.96021 4.96083 1.91197 5.02915 1.87827 5.10514C1.84457 5.18113 1.8261 5.26325 1.82394 5.34666C1.82179 5.43007 1.83599 5.51307 1.86572 5.59077C1.89545 5.66848 1.9401 5.73931 1.99703 5.79908L2.03114 5.83395L4.62417 8.49037Z" fill="#183087"/>
<path d="M22.6343 24.1381C22.5197 24.2552 22.4553 24.4142 22.4553 24.5799C22.4553 24.7456 22.5197 24.9045 22.6343 25.0217L25.2291 27.6745C25.3439 27.7916 25.4994 27.8574 25.6616 27.8573C25.8238 27.8572 25.9793 27.7913 26.0939 27.674C26.2085 27.5567 26.2729 27.3977 26.2728 27.2319C26.2727 27.0661 26.2082 26.9071 26.0935 26.7899L23.4987 24.1381C23.384 24.0209 23.2286 23.9551 23.0665 23.9551C22.9044 23.9551 22.7489 24.0209 22.6343 24.1381Z" fill="#183087"/>
<path d="M23.496 8.49043L26.0908 5.83401C26.2029 5.71621 26.265 5.55801 26.2638 5.39367C26.2627 5.22933 26.1982 5.07209 26.0844 4.956C25.9706 4.83991 25.8167 4.77433 25.6559 4.77345C25.4952 4.77257 25.3405 4.83646 25.2255 4.95129L22.6343 7.60313C22.573 7.65993 22.5236 7.72884 22.4891 7.80569C22.4546 7.88255 22.4357 7.96576 22.4336 8.05029C22.4314 8.13483 22.446 8.21894 22.4765 8.29754C22.507 8.37614 22.5528 8.4476 22.6111 8.50762C22.6693 8.56763 22.7389 8.61495 22.8156 8.64671C22.8922 8.67847 22.9744 8.69401 23.0571 8.69241C23.1398 8.6908 23.2213 8.67208 23.2968 8.63736C23.3722 8.60265 23.44 8.55267 23.496 8.49043Z" fill="#183087"/>
<mask id="mask0_189_823" style="mask-type:luminance" maskUnits="userSpaceOnUse" x="-1" y="-1" width="30" height="34">
<path d="M28.1211 -0.0244141H-0.0620117V32.0756H28.1211V-0.0244141Z" fill="white"/>
</mask>
<g mask="url(#mask0_189_823)">
<path d="M4.62396 24.1386L2.03004 26.7904C1.91244 26.9045 1.84401 27.0617 1.83981 27.2275C1.8356 27.3932 1.89595 27.5538 2.0076 27.674C2.11924 27.7942 2.27303 27.8642 2.43512 27.8685C2.59722 27.8728 2.75435 27.8111 2.87194 27.697L2.89438 27.674L5.48831 25.0259C5.6005 24.9082 5.66284 24.75 5.6618 24.5857C5.66077 24.4214 5.59646 24.2641 5.48279 24.1479C5.36912 24.0317 5.21525 23.9659 5.05451 23.9649C4.89376 23.9638 4.73908 24.0275 4.62396 24.1422V24.1386Z" fill="#183087"/>
<path d="M3.90155 20.5404C7.08786 23.2932 10.6 24.7503 14.06 24.7503C17.5201 24.7503 21.0304 23.2941 24.2185 20.5404C26.606 18.4768 27.9631 16.436 28.017 16.3498C28.0848 16.2467 28.121 16.1253 28.121 16.0011C28.121 15.8769 28.0848 15.7555 28.017 15.6524C27.9604 15.5662 26.6051 13.5255 24.2185 11.4618C21.0295 8.70903 17.5201 7.25098 14.06 7.25098C10.6 7.25098 7.08786 8.70627 3.90155 11.46C1.51496 13.5227 0.156964 15.5643 0.104008 15.6506C0.0362105 15.7537 0 15.8751 0 15.9993C0 16.1235 0.0362105 16.2449 0.104008 16.348C0.160554 16.4342 1.51586 18.4749 3.90245 20.5386L3.90155 20.5404ZM4.69499 12.4152C6.75936 10.6295 10.0632 8.50073 14.0636 8.50073C18.064 8.50073 21.3428 10.6194 23.4027 12.3922C24.6457 13.4661 25.7698 14.676 26.755 16.0002C25.7772 17.3151 24.6618 18.5169 23.4287 19.5843C21.3643 21.3699 18.0613 23.4987 14.06 23.4987C10.0588 23.4987 6.77731 21.3828 4.71743 19.6118C3.47416 18.5365 2.34998 17.3251 1.36507 15.9993C2.34405 14.6842 3.46064 13.4823 4.69499 12.4152Z" fill="#183087"/>
</g>
<path d="M14.0602 21.6256C14.8669 21.6241 15.6634 21.4412 16.3932 21.0899C17.1231 20.7387 17.7685 20.2276 18.2837 19.593C18.7989 18.9584 19.1713 18.2157 19.3745 17.4176C19.5777 16.6195 19.6067 15.7854 19.4595 14.9746C19.3123 14.1637 18.9925 13.3958 18.5228 12.7254C18.053 12.0549 17.4448 11.4983 16.7412 11.0949C16.0376 10.6914 15.2558 10.4511 14.4513 10.391C13.6467 10.3308 12.8391 10.4522 12.0855 10.7467C11.9345 10.8067 11.813 10.9256 11.7477 11.0772C11.6824 11.2288 11.6787 11.4007 11.7373 11.5551C11.8522 11.8579 12.1735 12.0506 12.5882 11.8891C13.4432 11.57 14.3756 11.5379 15.2497 11.7975C16.1238 12.0572 16.8942 12.595 17.4488 13.3328C18.0035 14.0707 18.3136 14.9701 18.3341 15.9005C18.3546 16.8308 18.0844 17.7436 17.5627 18.5062C17.041 19.2688 16.2951 19.8415 15.4333 20.141C14.5715 20.4406 13.6387 20.4514 12.7705 20.172C11.9022 19.8925 11.1438 19.3373 10.6053 18.587C10.0668 17.8367 9.77635 16.9305 9.77614 15.9999C9.77677 15.7322 9.80049 15.465 9.84704 15.2016C9.86578 15.0436 9.82488 14.8843 9.73268 14.7561C9.64048 14.628 9.50392 14.5406 9.35086 14.5118C9.1978 14.483 9.03977 14.515 8.90898 14.6012C8.77819 14.6874 8.6845 14.8214 8.64702 14.9758C8.50008 15.7881 8.52975 16.6235 8.73391 17.4227C8.93807 18.222 9.31173 18.9655 9.82839 19.6006C10.345 20.2357 10.9921 20.7469 11.7235 21.0978C12.455 21.4487 13.253 21.6308 14.0611 21.6311L14.0602 21.6256Z" fill="#183087"/>
<path d="M16.5059 16.0004C16.5059 15.5059 16.3625 15.0225 16.0937 14.6113C15.825 14.2001 15.443 13.8796 14.9961 13.6903C14.5492 13.5011 14.0574 13.4516 13.5829 13.548C13.1085 13.6445 12.6727 13.8827 12.3306 14.2324C11.9886 14.5821 11.7556 15.0276 11.6613 15.5126C11.5669 15.9977 11.6153 16.5004 11.8004 16.9573C11.9856 17.4142 12.299 17.8047 12.7013 18.0795C13.1035 18.3542 13.5763 18.5009 14.0601 18.5009C14.7088 18.5009 15.3309 18.2374 15.7896 17.7685C16.2482 17.2996 16.5059 16.6636 16.5059 16.0004ZM12.8376 16.0004C12.8376 15.7533 12.9093 15.5116 13.0436 15.3061C13.178 15.1006 13.3689 14.9404 13.5923 14.8458C13.8156 14.7512 14.0614 14.7265 14.2986 14.7747C14.5357 14.8229 14.7535 14.9419 14.9245 15.1167C15.0955 15.2915 15.2119 15.5142 15.2591 15.7566C15.3062 15.999 15.282 16.2503 15.1895 16.4787C15.097 16.7071 14.9403 16.9022 14.7393 17.0396C14.5382 17.1769 14.3019 17.2502 14.0601 17.2502C13.7359 17.2502 13.4249 17.1185 13.1957 16.8841C12.9664 16.6498 12.8376 16.3319 12.8376 16.0004Z" fill="#183087"/>
</g>
<defs>
<clipPath id="clip0_189_823">
<rect width="28.1212" height="32" fill="white"/>
</clipPath>
</defs>
</svg>
