<svg width="32" height="32" viewBox="0 0 32 32" fill="none" xmlns="http://www.w3.org/2000/svg">
<g clip-path="url(#clip0_206_884)">
<path d="M21.5536 6.20823C21.5534 5.94105 21.4739 5.67994 21.3254 5.45785C21.1769 5.23577 20.9659 5.06266 20.7191 4.9604C20.4722 4.85813 20.2006 4.83128 19.9385 4.88324C19.6765 4.93519 19.4357 5.06363 19.2465 5.25233C19.2004 5.29518 19.1634 5.34689 19.1377 5.40437C19.112 5.46185 19.0982 5.52391 19.097 5.58686C19.0958 5.64981 19.1074 5.71234 19.1309 5.77072C19.1545 5.82911 19.1896 5.88214 19.2341 5.92666C19.2786 5.97118 19.3317 6.00626 19.39 6.02982C19.4484 6.05337 19.511 6.06492 19.5739 6.06376C19.6368 6.0626 19.6989 6.04876 19.7564 6.02307C19.8139 5.99738 19.8656 5.96037 19.9084 5.91425C19.947 5.87564 19.9929 5.84502 20.0433 5.82412C20.0937 5.80323 20.1478 5.79248 20.2024 5.79248C20.257 5.79248 20.3111 5.80323 20.3615 5.82412C20.4119 5.84502 20.4578 5.87564 20.4964 5.91425C20.535 5.95285 20.5656 5.99868 20.5865 6.04912C20.6074 6.09957 20.6182 6.15363 20.6182 6.20823C20.6182 6.26282 20.6074 6.31689 20.5865 6.36733C20.5656 6.41777 20.535 6.4636 20.4964 6.50221C20.4139 6.59103 20.369 6.70838 20.3713 6.82959C20.3735 6.9508 20.4226 7.06643 20.5084 7.15215C20.5941 7.23788 20.7097 7.28702 20.8309 7.28925C20.9521 7.29148 21.0695 7.24663 21.1583 7.16412C21.2841 7.03883 21.3838 6.88984 21.4517 6.72576C21.5195 6.56168 21.5542 6.38578 21.5536 6.20823Z" fill="#183087"/>
<path d="M31.2002 13.2479C31.6564 12.1156 31.897 10.908 31.9096 9.68729C31.9496 7.29143 31.076 4.9702 29.4665 3.19508C29.9442 2.74264 30.5229 2.41058 31.1546 2.22641C31.271 2.18942 31.3684 2.10838 31.426 2.00058C31.4835 1.89279 31.4967 1.76677 31.4626 1.64942C31.4285 1.53208 31.3499 1.43269 31.2436 1.37248C31.1373 1.31226 31.0116 1.29598 30.8935 1.32712C30.1105 1.55526 29.394 1.96863 28.8046 2.53225C26.0364 0.0270333 22.1133 -0.548145 18.7572 0.803068C18.1179 0.295997 17.3255 0.0208027 16.5095 0.0224685H16.4547C15.8376 0.0318741 15.2331 0.198539 14.6984 0.5067C14.1636 0.814861 13.7163 1.25433 13.3988 1.78355C13.0813 2.31276 12.904 2.91423 12.8837 3.53107C12.8635 4.1479 13.0009 4.75971 13.283 5.30863C12.9932 5.29518 12.7037 5.34084 12.4321 5.44284C10.3368 6.22892 7.27647 8.29317 5.46329 10.1429C4.96947 10.6486 4.58641 11.2516 4.33852 11.9135C4.09064 12.5754 3.98335 13.2818 4.02352 13.9874C4.04726 14.4065 4.08743 14.8712 4.14129 15.3724C2.9065 16.5173 1.86966 17.8587 1.07276 19.3421C0.587056 20.2678 -0.142417 22.0025 0.419067 23.1483L0.425458 23.162C-0.00670229 24.3361 -0.0936253 25.6095 0.174966 26.8314C0.443557 28.0534 1.05643 29.1729 1.94112 30.0576C2.82582 30.9423 3.94533 31.5552 5.16731 31.8238C6.38928 32.0924 7.66262 32.0054 8.83676 31.5733L8.85136 31.5806C9.15666 31.7204 9.48982 31.7888 9.82551 31.7805C10.7495 31.7805 11.9445 31.3724 13.2592 30.5937C14.503 29.8446 15.6357 28.9251 16.6245 27.862C17.1275 27.9159 17.5932 27.9533 18.0113 27.9798C18.1075 27.9853 18.2036 27.988 18.2998 27.988C19.6304 27.9896 20.9086 27.4698 21.8604 26.54C22.9204 25.501 24.0808 24.0266 25.0458 22.4955C25.0825 22.4436 25.1081 22.3847 25.1213 22.3225C25.1345 22.2603 25.1348 22.1961 25.1224 22.1338C25.1099 22.0714 25.0849 22.0123 25.0488 21.9599C25.0128 21.9076 24.9665 21.8631 24.9127 21.8292C24.8589 21.7954 24.7988 21.7728 24.736 21.7629C24.6732 21.753 24.609 21.756 24.5474 21.7717C24.4858 21.7874 24.4281 21.8155 24.3777 21.8542C24.3273 21.8929 24.2853 21.9415 24.2543 21.997C23.3267 23.4687 22.2156 24.8811 21.2058 25.8717C20.7933 26.2746 20.3014 26.587 19.7615 26.7892C19.2215 26.9913 18.6454 27.0787 18.0697 27.0458C17.8497 27.033 17.6132 27.0166 17.3695 26.9947C17.4912 26.8346 17.6096 26.6742 17.7246 26.5135C18.3133 25.6639 18.6205 24.651 18.6029 23.6176C18.5819 21.8336 18.3592 18.7623 17.7995 15.492L17.7831 15.3953C20.7959 15.9996 23.3221 16.8058 25.1106 17.7398C25.3731 17.8772 25.5763 18.1058 25.6821 18.3825C25.7878 18.6593 25.7888 18.9651 25.6849 19.2426C25.5808 19.5164 25.4494 19.8223 25.2951 20.1428C25.2652 20.1984 25.247 20.2595 25.2414 20.3224C25.2358 20.3853 25.243 20.4487 25.2625 20.5088C25.282 20.5688 25.3135 20.6243 25.355 20.6719C25.3966 20.7195 25.4473 20.7582 25.5041 20.7856C25.561 20.8131 25.6228 20.8288 25.6859 20.8318C25.749 20.8347 25.812 20.8249 25.8712 20.8029C25.9304 20.7809 25.9845 20.7471 26.0303 20.7037C26.0761 20.6602 26.1127 20.6079 26.1378 20.5499C26.3048 20.2039 26.4482 19.8743 26.5614 19.5712C26.6633 19.2996 26.709 19.0101 26.6956 18.7203C27.4319 19.0992 28.2757 19.2148 29.0867 19.0478C29.8978 18.8808 30.6273 18.4413 31.154 17.8024C31.6808 17.1634 31.9731 16.3635 31.9823 15.5355C31.9915 14.7074 31.7172 13.9012 31.2048 13.2507L31.2002 13.2479ZM14.6077 1.74618C15.0126 1.33772 15.5383 1.07054 16.107 0.984212C16.6756 0.897882 17.2569 0.996992 17.7648 1.26686C16.248 2.08459 14.9676 3.27947 14.0471 4.73619C13.8267 4.23969 13.7623 3.68793 13.8624 3.154C13.9625 2.62006 14.2224 2.12911 14.6077 1.74618ZM2.60748 29.3922C1.90013 28.6871 1.39402 27.8058 1.14153 26.8395C0.88904 25.8732 0.89934 24.857 1.17136 23.896C1.8844 24.3525 3.30226 24.9916 6.20007 25.8005C6.54426 27.0349 6.89302 28.1186 7.22717 28.985C7.56132 29.8514 7.85804 30.4458 8.10728 30.8274C7.14586 31.1002 6.12896 31.111 5.16195 30.8587C4.19495 30.6063 3.313 30.1 2.60748 29.3922ZM16.9504 25.9758C15.9635 27.3964 14.4041 28.8206 12.7799 29.7866C11.258 30.6913 9.91042 31.0565 9.26129 30.7397C9.24504 30.7316 9.22947 30.7221 9.21473 30.7114C9.1976 30.6952 9.17929 30.6802 9.15995 30.6667C8.7765 30.3152 8.01051 28.8809 7.03636 25.3184C7.0327 25.3032 7.02875 25.2883 7.02449 25.2737C6.91432 24.869 6.80142 24.4362 6.68577 23.9755C6.65317 23.8577 6.57583 23.7573 6.47025 23.6958C6.36468 23.6342 6.23923 23.6164 6.12069 23.6461C6.00214 23.6757 5.89989 23.7505 5.83574 23.8546C5.7716 23.9586 5.75064 24.0835 5.77735 24.2028C5.823 24.3854 5.86865 24.568 5.91613 24.7506C2.36554 23.7207 1.51191 23.0442 1.31379 22.8178L1.30375 22.8059C1.28674 22.7864 1.27203 22.7649 1.25992 22.742C0.761435 21.7213 1.99031 18.8737 4.2828 16.5429C4.50648 18.1954 4.84977 20.1163 5.2743 22.0573C5.30742 22.1714 5.38266 22.2686 5.48477 22.3293C5.58688 22.39 5.70824 22.4096 5.82428 22.3842C5.94032 22.3588 6.04237 22.2902 6.10977 22.1924C6.17717 22.0946 6.20487 21.9748 6.18728 21.8573C5.52628 18.839 5.06614 15.8791 4.95567 13.939C4.92282 13.3634 5.01025 12.7873 5.2124 12.2473C5.41455 11.7074 5.72697 11.2155 6.12977 10.803C7.86443 9.03633 10.7732 7.06977 12.7589 6.32387C13.0364 6.21995 13.3422 6.22096 13.6189 6.32671C13.8957 6.43247 14.1243 6.63568 14.2617 6.89813C15.0003 8.31325 16.0027 11.1791 16.7267 14.8356C16.7294 14.8776 16.7377 14.9191 16.7514 14.9588C17.3133 17.8169 17.617 20.7197 17.6589 23.6322C17.6731 24.4682 17.4254 25.2877 16.9504 25.9758ZM26.2263 17.4759C26.0395 17.2397 25.8049 17.0456 25.5379 16.9062C23.5714 15.8791 20.9009 15.0374 17.595 14.4019C17.1157 11.9168 16.3259 8.82544 15.0916 6.45899C14.9522 6.19199 14.7581 5.95742 14.5219 5.7706C14.94 4.99476 15.4694 4.28424 16.0931 3.66161C19.5497 0.208717 25.107 0.143895 28.4805 3.51919C31.8539 6.89448 31.7909 12.45 28.3362 15.9038C27.7136 16.5279 27.0031 17.0575 26.2272 17.4759H26.2263ZM30.2526 17.3929C29.8696 17.7782 29.3787 18.0381 28.8447 18.1382C28.3108 18.2383 27.7591 18.1739 27.2625 17.9534C28.7173 17.0322 29.9117 15.7535 30.7319 14.2394C31.001 14.7468 31.0998 15.3273 31.0136 15.8952C30.9275 16.463 30.661 16.9881 30.2535 17.3929H30.2526Z" fill="#183087"/>
<path d="M25.7873 10.4463C25.61 10.446 25.4345 10.4807 25.2707 10.5486C25.107 10.6164 24.9583 10.716 24.8332 10.8416C24.7507 10.9304 24.7059 11.0478 24.7081 11.169C24.7103 11.2902 24.7595 11.4058 24.8452 11.4916C24.9309 11.5773 25.0465 11.6264 25.1677 11.6287C25.289 11.6309 25.4063 11.586 25.4951 11.5035C25.5731 11.4256 25.6788 11.3818 25.7891 11.3818C25.8994 11.3818 26.0051 11.4256 26.0831 11.5035C26.1611 11.5815 26.2049 11.6872 26.2049 11.7975C26.2049 11.9078 26.1611 12.0135 26.0831 12.0915C26.0006 12.1803 25.9557 12.2977 25.958 12.4189C25.9602 12.5401 26.0093 12.6557 26.0951 12.7414C26.1808 12.8272 26.2964 12.8763 26.4176 12.8785C26.5388 12.8808 26.6562 12.8359 26.745 12.7534C26.9342 12.5644 27.063 12.3236 27.1152 12.0614C27.1674 11.7991 27.1406 11.5273 27.0383 11.2803C26.936 11.0333 26.7626 10.8222 26.5403 10.6737C26.3179 10.5253 26.0565 10.4461 25.7891 10.4463H25.7873Z" fill="#183087"/>
<path d="M22.8948 9.93151C22.7843 9.93923 22.6734 9.92314 22.5697 9.88435C22.4659 9.84555 22.3717 9.78495 22.2934 9.70663C22.2151 9.62831 22.1545 9.5341 22.1157 9.43036C22.0769 9.32661 22.0608 9.21575 22.0685 9.10526C22.075 9.04273 22.0688 8.97954 22.0503 8.91946C22.0318 8.85938 22.0014 8.80363 21.9609 8.75555C21.9204 8.70746 21.8707 8.66802 21.8146 8.63957C21.7585 8.61112 21.6973 8.59425 21.6346 8.58996C21.5719 8.58567 21.509 8.59405 21.4496 8.61459C21.3901 8.63514 21.3355 8.66744 21.2888 8.70956C21.2421 8.75168 21.2044 8.80277 21.1779 8.85977C21.1514 8.91677 21.1367 8.97853 21.1346 9.04135C21.1187 9.27517 21.151 9.50975 21.2296 9.73055C21.3081 9.95134 21.4312 10.1536 21.5912 10.3249C21.7513 10.4961 21.9448 10.6326 22.1597 10.7259C22.3747 10.8192 22.6066 10.8674 22.8409 10.8673C22.8799 10.8673 22.9191 10.8673 22.9587 10.8673C23.0215 10.8652 23.0833 10.8504 23.1403 10.8239C23.1973 10.7974 23.2484 10.7597 23.2905 10.7131C23.3326 10.6664 23.3649 10.6117 23.3854 10.5523C23.406 10.4929 23.4144 10.43 23.4101 10.3673C23.4058 10.3045 23.3889 10.2433 23.3605 10.1873C23.332 10.1312 23.2926 10.0815 23.2445 10.041C23.1964 10.0005 23.1407 9.97008 23.0806 9.95159C23.0205 9.9331 22.9573 9.92689 22.8948 9.93334V9.93151Z" fill="#183087"/>
</g>
<defs>
<clipPath id="clip0_206_884">
<rect width="32" height="32" fill="white"/>
</clipPath>
</defs>
</svg>
