<svg width="32" height="31" viewBox="0 0 32 31" fill="none" xmlns="http://www.w3.org/2000/svg">
<g clip-path="url(#clip0_206_709)">
<path d="M17.6395 5.47586C17.7622 4.99333 17.8547 4.51734 18.0024 4.06093C18.4805 2.59375 19.34 1.42371 20.7473 0.723137C22.0019 0.0987517 23.3131 0.0472335 24.6507 0.414753C24.847 0.468811 24.9363 0.636427 24.8866 0.821456C24.839 0.997416 24.6718 1.09247 24.4704 1.03914C23.9589 0.902724 23.4411 0.817465 22.9104 0.843587C21.0757 0.932111 19.7728 1.84311 18.9471 3.46013C18.5767 4.18573 18.3887 4.96467 18.2915 5.76865C18.2527 6.09154 18.1395 6.18115 17.8083 6.15032C15.0792 5.89418 12.856 4.68967 11.1327 2.56618C10.6973 2.0285 10.3472 1.43496 10.1248 0.772478C10.1104 0.743492 10.0896 0.718183 10.064 0.698497C10.0383 0.678811 10.0085 0.665272 9.97677 0.65892C9.30196 0.589262 8.52955 1.07977 8.31695 1.71504C8.29046 1.79413 8.30861 1.89354 8.32493 1.97989C8.61517 3.50366 9.27148 4.86526 10.1593 6.12564C11.018 7.34358 12.0143 8.44759 12.9692 9.58897C13.7884 10.5667 14.6279 11.5292 15.2882 12.6278C15.8596 13.5787 16.3095 14.5782 16.4394 15.6939C16.6484 17.4887 15.9775 18.8985 14.5354 19.9521C13.4684 20.7318 12.2425 21.1316 10.9614 21.3801C9.29761 21.7033 7.62 21.6935 5.93768 21.5847C5.05135 21.5274 4.1643 21.4621 3.27652 21.5872C2.17106 21.7429 1.45778 22.3629 1.08773 23.4013C0.773175 24.2843 0.681748 25.2044 0.662882 26.1314C0.649821 26.7717 0.683199 27.4128 0.689004 28.0542C0.689004 28.1718 0.73762 28.2244 0.842107 28.2625C1.25862 28.4178 1.71438 28.4335 2.14058 28.3071C2.26285 28.2708 2.2886 28.2131 2.29151 28.0894C2.30638 27.4258 2.31473 26.7605 2.36951 26.0994C2.39346 25.811 2.49504 25.5189 2.60932 25.2497C2.92061 24.5136 3.53375 24.211 4.3145 24.3826C4.86814 24.5045 5.35974 24.7708 5.80635 25.1043C6.40643 25.5523 6.98292 26.0319 7.56522 26.5036C9.45978 28.0383 11.6206 28.9819 14.0206 29.3639C17.3584 29.8954 20.5311 29.3465 23.5376 27.8126C23.5645 27.7988 23.591 27.7843 23.6186 27.772C23.8 27.6925 23.9741 27.7426 24.0586 27.8971C24.081 27.9352 24.0952 27.9776 24.1003 28.0214C24.1053 28.0653 24.1012 28.1098 24.0881 28.152C24.075 28.1942 24.0532 28.2331 24.0241 28.2664C23.995 28.2997 23.9594 28.3265 23.9193 28.3452C23.5308 28.5407 23.1411 28.7359 22.7413 28.9064C20.3051 29.9459 17.764 30.3783 15.1224 30.1545C11.9704 29.8871 9.16482 28.7635 6.76234 26.6799C6.13142 26.1328 5.49252 25.5955 4.7339 25.2287C4.52789 25.1284 4.31007 25.0544 4.08557 25.0085C3.69447 24.9298 3.43543 25.0658 3.24641 25.4188C3.02872 25.823 2.9587 26.2674 2.94455 26.7151C2.92714 27.2706 2.94455 27.8271 2.95616 28.384C2.96052 28.5694 2.90501 28.6993 2.7334 28.7769C1.90984 29.1492 1.09462 29.1397 0.285929 28.7305C0.151329 28.6623 0.0682472 28.5654 0.0580887 28.409C-0.0271701 26.9756 -0.05692 25.5429 0.220625 24.1247C0.346518 23.48 0.547148 22.86 0.911766 22.306C1.50567 21.4055 2.38656 20.9883 3.422 20.9273C4.25456 20.8833 5.08896 20.8878 5.92099 20.9407C7.75678 21.0441 9.5835 21.0608 11.3866 20.6287C12.2436 20.423 13.0653 20.1284 13.8174 19.6579C15.5716 18.5596 16.1978 16.9194 15.6155 14.9276C15.2813 13.7844 14.6921 12.7697 13.9546 11.85C12.8883 10.5199 11.7777 9.22508 10.6959 7.9081C9.8146 6.83638 9.0099 5.71205 8.43087 4.44115C8.05586 3.62135 7.78983 2.75595 7.6396 1.86706C7.6248 1.78283 7.63015 1.69631 7.6552 1.61454C8.01582 0.497473 9.18985 -0.186049 10.3334 0.0446939C10.5398 0.0864163 10.6599 0.186187 10.7085 0.401693C10.8725 1.11351 11.2506 1.72048 11.7081 2.27303C13.2424 4.12769 15.22 5.18816 17.6083 5.4784C17.6188 5.47906 17.6293 5.47821 17.6395 5.47586Z" fill="#183087"/>
<path d="M17.7302 15.0872C18.5755 14.9533 19.3936 14.7807 20.2205 14.7016C22.0153 14.53 23.6457 14.9896 25.0842 16.0955C25.7935 16.6397 26.4952 17.1966 27.3122 17.583C27.9823 17.8993 28.6832 18.1213 29.4027 18.2897C29.4359 18.2941 29.4693 18.2961 29.5028 18.2959C29.5859 17.908 29.6795 17.522 29.7499 17.1316C30.1885 14.703 30.01 12.3013 29.4052 9.92344C29.2532 9.32663 29.0609 8.73998 28.8824 8.15006C28.8331 7.98752 28.8527 7.84821 28.9912 7.74517C29.1095 7.65701 29.2452 7.65229 29.3617 7.74517C29.4259 7.79891 29.4742 7.86916 29.5014 7.94834C30.4446 10.7394 30.8927 13.5899 30.5067 16.5359C30.2986 18.1273 29.8383 19.6753 29.1429 21.1217C29.037 21.3438 28.8603 21.4243 28.6785 21.3372C28.4967 21.2502 28.4608 21.0684 28.5541 20.8395C28.7844 20.2811 29.0083 19.7202 29.2329 19.1597C29.259 19.094 29.2746 19.0236 29.2971 18.9478C28.9343 18.8451 28.5856 18.7526 28.2406 18.6474C27.0974 18.2988 26.0856 17.7081 25.1517 16.9709C24.577 16.5174 23.986 16.0882 23.3054 15.7983C22.2065 15.3307 21.0607 15.2215 19.891 15.3833C19.258 15.4707 18.6347 15.6264 18.007 15.7526C17.9482 15.7642 17.8913 15.7849 17.7977 15.8117C17.7977 16.1945 17.834 16.5842 17.7915 16.9655C17.6068 18.646 16.7873 19.9695 15.4547 20.9846C14.4276 21.7668 13.2521 22.2308 12.0124 22.5486C11.6133 22.6513 11.2229 22.7819 10.8841 23.0265C10.231 23.4981 9.99667 24.1609 10.2191 24.9794C10.5148 26.0678 11.2306 26.8297 12.1782 27.3913C12.7841 27.7509 13.4647 27.8753 14.1446 27.9878C16.8972 28.4438 19.5504 28.0865 22.1103 26.9901C22.1546 26.9709 22.1985 26.9502 22.2435 26.9331C22.4347 26.8606 22.6099 26.9233 22.6861 27.0928C22.7623 27.2622 22.6973 27.4479 22.5047 27.5245C22.0058 27.7248 21.5088 27.933 20.9987 28.0999C18.9946 28.7566 16.9393 28.9811 14.843 28.7399C14.1849 28.6641 13.5202 28.5585 12.886 28.3742C11.2937 27.908 10.1712 26.8921 9.63531 25.306C9.33709 24.4225 9.43722 23.5681 10.0935 22.8465C10.4872 22.4137 10.9944 22.1572 11.5506 22.0041C12.3378 21.7864 13.1208 21.5611 13.8562 21.1976C15.0171 20.624 15.9884 19.8429 16.6001 18.6768C17.2658 17.407 17.3257 16.0759 16.9578 14.7114C16.6033 13.3947 15.967 12.2113 15.1224 11.1584C14.548 10.443 14.5353 9.70322 14.7875 8.90904C15.2272 7.5235 16.4128 6.75689 17.8713 6.88569C17.9254 6.8904 17.9802 6.89766 18.0339 6.89947C18.6016 6.92124 18.8752 6.7119 18.9456 6.15065C19.0432 5.3728 19.1847 4.60873 19.5261 3.89619C20.0659 2.7715 20.8837 1.95555 22.1314 1.67075C22.509 1.58477 22.9099 1.59021 23.3007 1.57642C23.4948 1.56916 23.621 1.72154 23.6174 1.9004C23.6176 1.9446 23.6086 1.98835 23.591 2.02886C23.5733 2.06938 23.5474 2.10577 23.5149 2.13571C23.4824 2.16566 23.444 2.18849 23.4022 2.20276C23.3604 2.21703 23.316 2.22242 23.272 2.21858C21.5534 2.09668 20.4345 3.184 19.9408 4.63776C19.7866 5.09162 19.7231 5.57669 19.6208 6.04761C19.6106 6.09478 19.6099 6.14375 19.603 6.19273C19.4579 7.17883 18.8734 7.63451 17.8764 7.54127C16.3058 7.39615 15.0897 8.6032 15.3005 10.1096C15.3226 10.2514 15.3792 10.3857 15.4652 10.5007C16.333 11.6449 17.0684 12.8589 17.4969 14.2412C17.5938 14.5296 17.6616 14.8293 17.7302 15.0872Z" fill="#183087"/>
<path d="M29.4651 23.9909C29.4568 26.1862 27.675 27.9592 25.4862 27.9505C23.3094 27.9418 21.5542 26.1467 21.5618 23.9361C21.5698 21.7549 23.362 19.9707 25.5316 19.9845C27.7182 19.9986 29.4735 21.7876 29.4651 23.9909ZM28.8153 23.9684C28.8237 22.1453 27.3431 20.6477 25.5189 20.6339C23.7168 20.6204 22.2174 22.129 22.2112 23.9579C22.205 25.7868 23.682 27.291 25.4812 27.3004C27.3191 27.3098 28.8066 25.8241 28.8153 23.9684Z" fill="#183087"/>
<path d="M26.9284 0.678886C28.9557 0.658932 30.6511 2.34778 30.6652 4.40488C30.6816 6.4939 29.0326 8.19726 26.977 8.21431C24.9021 8.22955 23.206 6.56719 23.1893 4.50175C23.1741 2.39168 24.8292 0.699566 26.9284 0.678886ZM30.0162 4.47635C30.0224 2.73997 28.6466 1.33411 26.936 1.32903C25.2475 1.32395 23.8467 2.72691 23.8409 4.42882C23.8347 6.1594 25.2167 7.55873 26.9345 7.56163C28.6227 7.5649 30.01 6.17536 30.0162 4.47635Z" fill="#183087"/>
<path d="M31.9993 14.1283C32.0018 17.1932 31.3662 19.8272 30.0699 22.2997C29.9585 22.5116 29.8359 22.5848 29.6574 22.5435C29.4397 22.4931 29.3617 22.271 29.4695 22.0356C29.7597 21.4043 30.0728 20.7824 30.3206 20.1356C31.1166 18.0581 31.4242 15.8991 31.3306 13.6798C31.2392 11.5124 30.7705 9.42052 30.0608 7.37685C30.024 7.27668 30.0138 7.16869 30.0311 7.06339C30.0612 6.91826 30.1849 6.8457 30.33 6.8457C30.4849 6.8457 30.5927 6.92951 30.642 7.07717C30.7614 7.43199 30.8837 7.78609 30.994 8.14381C31.6252 10.1831 31.9942 12.2627 31.9993 14.1283Z" fill="#183087"/>
<path d="M21.4665 8.3086C22.8452 8.31222 23.9499 9.43619 23.9459 10.8312C23.942 11.4888 23.6781 12.1181 23.2118 12.5818C22.7455 13.0455 22.1147 13.3059 21.4571 13.3062C20.0991 13.3062 18.9849 12.1815 18.99 10.8127C18.994 9.42349 20.0995 8.30642 21.4665 8.3086ZM21.4792 8.96164C20.4655 8.95656 19.6445 9.78085 19.6383 10.8119C19.6337 11.0539 19.6771 11.2944 19.7661 11.5194C19.8551 11.7445 19.9879 11.9497 20.1568 12.123C20.3257 12.2964 20.5273 12.4345 20.7499 12.5293C20.9726 12.6241 21.2118 12.6739 21.4538 12.6755C21.6958 12.6772 21.9358 12.6308 22.1597 12.5391C22.3837 12.4473 22.5872 12.3121 22.7584 12.1411C22.9297 11.9701 23.0653 11.7668 23.1574 11.543C23.2495 11.3192 23.2963 11.0793 23.295 10.8373C23.3016 9.80661 22.4874 8.966 21.4781 8.96164H21.4792Z" fill="#183087"/>
<path d="M16.9365 21.7365C16.9354 21.5412 16.973 21.3475 17.0471 21.1668C17.1212 20.986 17.2304 20.8217 17.3684 20.6834C17.5063 20.5451 17.6704 20.4355 17.8509 20.361C18.0315 20.2864 18.2251 20.2484 18.4204 20.249C19.2393 20.2548 19.8876 20.9228 19.8843 21.7572C19.8838 22.1486 19.7282 22.5239 19.4514 22.8007C19.1747 23.0775 18.7995 23.2332 18.4081 23.2338C17.5863 23.2324 16.9336 22.5681 16.9365 21.7365ZM18.4182 20.9021C17.9528 20.9021 17.5863 21.2736 17.5871 21.7481C17.5871 21.9665 17.6738 22.1758 17.8282 22.3302C17.9825 22.4846 18.1919 22.5713 18.4103 22.5713C18.6286 22.5713 18.838 22.4846 18.9923 22.3302C19.1467 22.1758 19.2335 21.9665 19.2335 21.7481C19.2335 21.2805 18.8688 20.9028 18.4182 20.9014V20.9021Z" fill="#183087"/>
<path d="M18.6668 17.6465C18.6703 17.4556 18.7119 17.2672 18.7891 17.0925C18.8663 16.9178 18.9775 16.7601 19.1162 16.6289C19.255 16.4976 19.4185 16.3953 19.5972 16.3279C19.7759 16.2605 19.9663 16.2293 20.1572 16.2363C20.9372 16.2595 21.5652 16.9307 21.542 17.7165C21.5188 18.5024 20.8577 19.138 20.0777 19.1213C19.6954 19.1116 19.3325 18.9511 19.0682 18.6748C18.8039 18.3985 18.6595 18.0288 18.6668 17.6465ZM19.3165 17.6748C19.3165 18.104 19.6739 18.4679 20.0966 18.4708C20.2537 18.4733 20.4081 18.4291 20.54 18.3437C20.672 18.2582 20.7756 18.1355 20.8376 17.9911C20.8997 17.8467 20.9174 17.6871 20.8885 17.5326C20.8596 17.3781 20.7855 17.2356 20.6755 17.1234C20.5654 17.0111 20.4245 16.9341 20.2706 16.9021C20.1167 16.8701 19.9568 16.8845 19.8112 16.9436C19.6655 17.0028 19.5407 17.1038 19.4527 17.234C19.3646 17.3642 19.3172 17.5176 19.3165 17.6748Z" fill="#183087"/>
<path d="M15.2037 24.9722C15.2025 25.3059 15.069 25.6254 14.8325 25.8608C14.5961 26.0962 14.2759 26.2282 13.9423 26.2279C13.2609 26.2279 12.7004 25.65 12.7051 24.9494C12.7042 24.7838 12.7363 24.6197 12.7994 24.4666C12.8625 24.3135 12.9555 24.1745 13.0728 24.0576C13.1901 23.9407 13.3295 23.8484 13.4828 23.7858C13.6362 23.7233 13.8004 23.6919 13.966 23.6934C14.1316 23.6949 14.2952 23.7293 14.4474 23.7947C14.5996 23.86 14.7373 23.9549 14.8524 24.0739C14.9676 24.1929 15.058 24.3336 15.1183 24.4878C15.1786 24.642 15.2076 24.8067 15.2037 24.9722ZM14.5532 24.9606C14.5544 24.8805 14.5396 24.8009 14.5096 24.7266C14.4796 24.6522 14.435 24.5847 14.3785 24.5278C14.3219 24.471 14.2546 24.4261 14.1804 24.3957C14.1063 24.3652 14.0268 24.35 13.9466 24.3508C13.623 24.3508 13.3549 24.629 13.3563 24.9603C13.3578 25.2915 13.6266 25.5738 13.9441 25.577C14.2699 25.5774 14.5511 25.2944 14.5532 24.9606Z" fill="#183087"/>
<path d="M20.1033 25.4519C20.1057 25.6007 20.0783 25.7485 20.0229 25.8867C19.9675 26.0248 19.8851 26.1506 19.7806 26.2565C19.6761 26.3625 19.5515 26.4466 19.4141 26.5039C19.2767 26.5612 19.1293 26.5905 18.9804 26.5902C18.8315 26.5899 18.6842 26.5599 18.5471 26.5021C18.4099 26.4442 18.2857 26.3596 18.1816 26.2532C18.0775 26.1468 17.9957 26.0207 17.9408 25.8823C17.886 25.7439 17.8593 25.596 17.8623 25.4471C17.8623 24.8184 18.3702 24.3061 18.987 24.3116C19.6146 24.3177 20.1037 24.8162 20.1033 25.4519ZM18.9917 24.9632C18.7377 24.957 18.5255 25.1663 18.5146 25.4315C18.5041 25.6891 18.7138 25.9195 18.9645 25.9268C19.0901 25.927 19.2109 25.8781 19.3011 25.7906C19.3912 25.7031 19.4437 25.5838 19.4472 25.4582C19.4508 25.3326 19.4052 25.2106 19.3201 25.1181C19.235 25.0256 19.1172 24.97 18.9917 24.9632Z" fill="#183087"/>
</g>
<defs>
<clipPath id="clip0_206_709">
<rect width="32" height="30.2125" fill="white"/>
</clipPath>
</defs>
</svg>
