<svg width="29" height="32" viewBox="0 0 29 32" fill="none" xmlns="http://www.w3.org/2000/svg">
<g clip-path="url(#clip0_206_904)">
<path d="M15.7682 0.800553C13.5647 0.84428 11.4069 1.14086 9.35561 1.94694C5.75105 3.36709 3.93356 6.00778 3.82139 9.8861C3.80238 10.2891 4.18261 11.1047 3.42215 11.0705C2.6617 11.0363 3.11227 10.2454 3.11987 9.83287C3.19592 5.61994 5.24345 2.67128 9.19021 1.23021C12.6465 -0.0321462 16.2244 -0.446595 19.8081 0.570515C27.6845 2.82147 30.8575 12.5933 25.732 19.0458C23.8974 21.3557 23.502 23.6085 24.5914 26.2549C24.7054 26.5325 25.0381 26.9184 24.4735 27.1028C23.9659 27.2663 24.0286 26.7796 23.926 26.5325C22.7549 23.7321 23.0039 21.2264 25.0058 18.7625C27.9716 15.1275 28.232 10.985 26.2187 6.84428C24.1446 2.5439 20.4203 0.785344 15.7682 0.800553Z" fill="#183087"/>
<path d="M17.4659 29.3845C17.4775 29.4227 17.4809 29.463 17.4759 29.5026C17.4709 29.5423 17.4575 29.5804 17.4367 29.6145C17.4158 29.6487 17.388 29.678 17.355 29.7006C17.3221 29.7232 17.2847 29.7386 17.2453 29.7457C17.0933 29.7989 16.9431 29.8692 16.8214 29.7095C16.7718 29.6293 16.731 29.5439 16.6997 29.4548C15.4583 26.5556 14.0552 23.7114 13.4469 20.5841C13.2967 19.8236 13.2891 19.0175 13.1845 18.2362C13.0895 17.5156 12.6332 17.1297 11.9336 17.0061C11.248 16.8686 10.629 16.5035 10.1769 15.97C8.61227 14.2799 6.01531 14.3559 4.49059 16.1392C4.19491 16.5091 3.91886 16.8943 3.6636 17.2932C3.5058 17.5194 3.35942 17.7 3.05904 17.4833C2.81379 17.2932 2.90504 17.1411 3.01341 16.913C3.96398 14.989 6.51721 13.6487 8.63318 13.9814C9.40504 14.1012 9.95067 14.5784 10.4241 15.1373C10.9526 15.7609 11.5476 16.2134 12.3765 16.373C13.251 16.5403 13.8423 17.1582 13.8803 18.0004C14.0704 21.9928 15.8081 25.4814 17.3233 29.0499C17.3727 29.1601 17.4203 29.278 17.4659 29.3845Z" fill="#183087"/>
<path d="M11.3631 20.152C10.4239 19.1577 9.37262 18.8611 8.21102 19.1045C6.88036 19.3918 5.50106 19.3651 4.1825 19.0265C3.90874 18.9562 3.57984 18.9638 3.64638 18.5398C3.72053 18.0664 4.08745 18.2432 4.31558 18.3022C5.69581 18.6691 7.05323 18.5056 8.44486 18.3193C10.6654 18.0246 12.6407 19.5892 12.8897 21.6596C12.9316 22.0075 12.8897 22.3098 12.5475 22.4543C12.2053 22.5988 11.9639 22.42 11.7871 22.0949C10.9144 20.4391 9.42015 20.247 7.79467 20.4752C7.08057 20.6052 6.37518 20.7792 5.6825 20.9961C5.42015 21.0664 5.15018 21.2832 4.99049 20.8573C4.83079 20.4315 5.1806 20.3668 5.42965 20.287C7.25665 19.7261 9.08935 19.209 10.9563 20.1539C11.0266 20.1938 11.1217 20.152 11.3631 20.152Z" fill="#183087"/>
<path d="M6.54171 28.0188C5.78125 27.9998 4.93905 28.2374 4.07023 28.0815C2.46186 27.7926 1.77175 26.8477 2.11776 25.2431C2.26034 24.5872 2.45236 23.9732 2.06452 23.3287C1.99081 23.1846 1.96835 23.0196 2.00082 22.861C2.0333 22.7024 2.11879 22.5596 2.24323 22.4561C2.47517 22.2222 2.72612 22.0397 2.32688 21.745C2.30537 21.7216 2.28887 21.6939 2.27841 21.6639C2.26795 21.6338 2.26374 21.6019 2.26604 21.5701C2.27745 21.3496 2.45616 21.3401 2.60825 21.3458C3.17859 21.3667 3.74893 21.4504 4.14817 21.9161C4.30026 22.0948 4.1881 22.3629 3.95806 22.4732C3.69717 22.5846 3.43065 22.6823 3.15958 22.7659C2.83449 22.8781 2.67859 23.0587 2.88772 23.4009C3.24133 23.9713 3.05312 24.5416 2.89912 25.1386C2.5189 26.5891 3.05312 27.3325 4.56452 27.3838C5.41433 27.4123 6.27555 27.2678 7.11966 27.2659C8.93905 27.2659 10.0208 28.0416 10.614 29.7545C10.8041 30.2907 10.9371 30.8439 11.1197 31.3838C11.2109 31.6557 11.2565 31.8724 10.9086 31.977C10.5607 32.0815 10.4847 31.8363 10.4086 31.5834C10.3022 31.2203 10.1843 30.8591 10.0702 30.4979C9.44285 28.4732 8.72802 27.958 6.54171 28.0188Z" fill="#183087"/>
<path d="M20.7225 13.8781C20.5837 16.2906 19.5818 18.1861 17.3631 19.302C16.2966 19.8401 15.2719 19.3363 15.2244 18.3134C15.2244 18.1233 15.1122 17.8363 15.4335 17.783C15.487 17.7659 15.5435 17.7605 15.5993 17.7671C15.655 17.7737 15.7087 17.7923 15.7567 17.8215C15.8047 17.8507 15.8458 17.8899 15.8773 17.9364C15.9088 17.9829 15.9299 18.0356 15.9392 18.091C16.116 19.0834 16.7187 18.8115 17.27 18.5188C18.981 17.6233 20.173 15.3629 19.9658 13.4389C19.9225 12.8948 19.6662 12.3898 19.2525 12.0338C18.8387 11.6777 18.3012 11.4995 17.7567 11.5378C16.5647 11.5815 15.8688 12.2811 15.827 13.5359C15.8156 13.8686 15.8631 14.245 15.4297 14.226C14.9962 14.207 15.0894 13.7811 15.078 13.4978C15.019 12.015 16.1027 10.9066 17.6806 10.8096C18.4143 10.7421 19.1451 10.9665 19.7145 11.4341C20.2839 11.9017 20.646 12.5749 20.7225 13.3077C20.734 13.4977 20.734 13.6881 20.7225 13.8781Z" fill="#183087"/>
<path d="M8.1331 21.1025C9.51713 21.1025 10.5856 21.5151 11.3023 22.6368C12.8232 25.0113 13.5513 27.6938 14.2909 30.3706C14.3479 30.5778 14.4164 30.806 14.0818 30.8858C13.6635 30.9866 13.6084 30.6957 13.5361 30.4162C13.1158 28.7657 12.59 27.1439 11.962 25.5607C11.7529 25.0341 11.5114 24.517 11.251 24.0132C10.1426 21.8687 8.77949 21.3516 6.48481 22.1786C6.19964 22.2812 5.84413 22.6691 5.62359 22.1387C5.40306 21.6082 5.94869 21.6406 6.20914 21.5132C6.81551 21.2458 7.4704 21.106 8.1331 21.1025Z" fill="#183087"/>
<path d="M0 17.7858C0.0681745 17.5993 0.158831 17.4219 0.269962 17.2573C1.23954 15.7497 2.51331 14.4436 3.27186 12.7915C3.37833 12.5596 3.58555 12.6299 3.76046 12.6489C4.03042 12.6775 3.9981 12.8942 3.98859 13.0805C3.97338 13.4189 3.75855 13.6623 3.57605 13.9189C2.74905 15.0767 1.91065 16.2288 1.09125 17.3923C0.539924 18.1775 0.65019 18.4455 1.57414 18.7231C2.00115 18.8291 2.41788 18.9729 2.81939 19.1527C2.89069 19.191 2.95268 19.2445 3.00098 19.3095C3.04927 19.3744 3.08268 19.4492 3.09883 19.5285C3.11498 19.6078 3.11347 19.6896 3.09442 19.7683C3.07537 19.8469 3.03924 19.9204 2.98859 19.9835C2.78137 20.2801 2.49049 20.1737 2.30418 19.8866C2 19.4322 1.47529 19.5064 1.04943 19.3638C0.406844 19.1394 0.0304183 18.7516 0 17.7858Z" fill="#183087"/>
<path d="M15.0438 2.89355C14.9943 2.89355 15.1844 2.89355 15.3746 2.89355C15.5647 2.89355 15.7548 2.92397 15.7795 3.17873C15.792 3.23214 15.7918 3.28773 15.7791 3.34108C15.7664 3.39444 15.7414 3.4441 15.7062 3.48615C15.671 3.5282 15.6265 3.56147 15.5762 3.58335C15.5259 3.60522 15.4712 3.61509 15.4164 3.61219C14.7567 3.68253 14.097 3.74336 13.4392 3.83272C12.4999 3.96875 11.5818 4.22431 10.7073 4.59317C10.462 4.69393 10.1369 5.04374 9.91829 4.55135C9.69965 4.05895 10.1445 4.03044 10.3936 3.92397C11.8004 3.32511 13.2814 3.02093 15.0438 2.89355Z" fill="#183087"/>
<path d="M18.4621 15.5895C18.4621 16.54 17.272 17.4241 16.3937 17.1389C16.1826 17.0724 15.9602 16.9716 15.9963 16.694C16.04 16.3575 16.2853 16.6123 16.4279 16.5648C16.6653 16.4915 16.8972 16.4013 17.1218 16.2948C17.8461 15.9336 17.9108 15.426 17.234 14.9811C16.9507 14.791 16.7606 14.5686 16.8879 14.3271C17.061 13.9982 17.3937 14.2207 17.637 14.3271C17.8819 14.4352 18.0901 14.612 18.2366 14.836C18.383 15.0601 18.4614 15.3218 18.4621 15.5895Z" fill="#183087"/>
<path d="M7.81362 6.57456C7.57027 6.43958 7.29651 6.316 7.42008 6.08026C7.63913 5.63443 8.02506 5.29289 8.49423 5.12969C8.65392 5.08216 8.92769 5.40726 8.82502 5.58787C8.57001 5.99159 8.22353 6.32961 7.81362 6.57456Z" fill="#183087"/>
</g>
<defs>
<clipPath id="clip0_206_904">
<rect width="28.2243" height="32" fill="white"/>
</clipPath>
</defs>
</svg>
